<mxfile host="app.diagrams.net" modified="2023-01-04T05:38:40.201Z" agent="5.0 (Windows NT 10.0; Win64; x64) AppleWebKit/537.36 (KHTML, like Gecko) Chrome/108.0.0.0 Safari/537.36 Edg/108.0.1462.54" etag="DpP-RrUGdxXvcuLrToE2" version="20.8.0" type="github">
  <diagram id="6ead9xKW_Qst8LFNrcvm" name="第 1 页">
    <mxGraphModel dx="2869" dy="1660" grid="1" gridSize="10" guides="1" tooltips="1" connect="1" arrows="1" fold="1" page="1" pageScale="1" pageWidth="827" pageHeight="1169" math="0" shadow="0">
      <root>
        <mxCell id="0" />
        <mxCell id="1" parent="0" />
        <mxCell id="fMq1iWLXI49MHX_Gh6SI-56" value="" style="rounded=0;whiteSpace=wrap;html=1;shadow=0;fontSize=30;fillColor=#E0D9E7;strokeColor=none;" parent="1" vertex="1">
          <mxGeometry x="710" y="720" width="327" height="880" as="geometry" />
        </mxCell>
        <mxCell id="fMq1iWLXI49MHX_Gh6SI-54" value="" style="rounded=0;whiteSpace=wrap;html=1;shadow=0;fontSize=30;fillColor=#f8cecc;strokeColor=none;" parent="1" vertex="1">
          <mxGeometry x="1080" y="1328" width="1190" height="270" as="geometry" />
        </mxCell>
        <mxCell id="fMq1iWLXI49MHX_Gh6SI-37" value="" style="rounded=0;whiteSpace=wrap;html=1;shadow=0;fontSize=30;fillColor=#B5E8BC;strokeColor=none;" parent="1" vertex="1">
          <mxGeometry x="1460" y="720" width="808" height="560" as="geometry" />
        </mxCell>
        <mxCell id="fMq1iWLXI49MHX_Gh6SI-69" style="edgeStyle=orthogonalEdgeStyle;rounded=1;orthogonalLoop=1;jettySize=auto;html=1;exitX=0.5;exitY=1;exitDx=0;exitDy=0;entryX=0.25;entryY=0;entryDx=0;entryDy=0;fontSize=30;startArrow=none;startFill=0;endArrow=classic;endFill=1;fillColor=#f0a30a;strokeColor=#BD7000;dashed=1;strokeWidth=2;" parent="1" source="fMq1iWLXI49MHX_Gh6SI-15" target="fMq1iWLXI49MHX_Gh6SI-16" edge="1">
          <mxGeometry relative="1" as="geometry" />
        </mxCell>
        <mxCell id="fMq1iWLXI49MHX_Gh6SI-15" value="" style="rounded=0;whiteSpace=wrap;html=1;fillColor=#FCF6E0;strokeColor=none;fontSize=30;" parent="1" vertex="1">
          <mxGeometry x="1080" y="720" width="310" height="560" as="geometry" />
        </mxCell>
        <mxCell id="2Xh3GLrlYR4H0rZl-e0W-40" style="edgeStyle=orthogonalEdgeStyle;rounded=1;orthogonalLoop=1;jettySize=auto;html=1;exitX=0.5;exitY=1;exitDx=0;exitDy=0;entryX=1;entryY=0.5;entryDx=0;entryDy=0;fontSize=30;" parent="1" source="2Xh3GLrlYR4H0rZl-e0W-9" target="Si9AKmO1rTwMyrS4tQQ6-44" edge="1">
          <mxGeometry relative="1" as="geometry" />
        </mxCell>
        <mxCell id="AzJ7uP2qj4mIcJgj0vIB-7" style="edgeStyle=orthogonalEdgeStyle;rounded=0;orthogonalLoop=1;jettySize=auto;html=1;exitX=1;exitY=0.5;exitDx=0;exitDy=0;entryX=0;entryY=0.25;entryDx=0;entryDy=0;fontSize=17;" parent="1" edge="1">
          <mxGeometry relative="1" as="geometry">
            <mxPoint x="180" y="195" as="sourcePoint" />
            <mxPoint x="263" y="195" as="targetPoint" />
          </mxGeometry>
        </mxCell>
        <mxCell id="AzJ7uP2qj4mIcJgj0vIB-28" style="edgeStyle=orthogonalEdgeStyle;rounded=1;orthogonalLoop=1;jettySize=auto;html=1;exitX=1;exitY=0.5;exitDx=0;exitDy=0;entryX=0;entryY=0.5;entryDx=0;entryDy=0;strokeColor=#A1A1A1;fontSize=17;" parent="1" source="AzJ7uP2qj4mIcJgj0vIB-4" target="AzJ7uP2qj4mIcJgj0vIB-16" edge="1">
          <mxGeometry relative="1" as="geometry" />
        </mxCell>
        <mxCell id="AzJ7uP2qj4mIcJgj0vIB-29" style="edgeStyle=orthogonalEdgeStyle;rounded=1;orthogonalLoop=1;jettySize=auto;html=1;exitX=1;exitY=0.5;exitDx=0;exitDy=0;entryX=0;entryY=0.5;entryDx=0;entryDy=0;strokeColor=#A1A1A1;fontSize=17;" parent="1" source="AzJ7uP2qj4mIcJgj0vIB-4" target="AzJ7uP2qj4mIcJgj0vIB-15" edge="1">
          <mxGeometry relative="1" as="geometry" />
        </mxCell>
        <mxCell id="AzJ7uP2qj4mIcJgj0vIB-43" style="edgeStyle=orthogonalEdgeStyle;rounded=1;orthogonalLoop=1;jettySize=auto;html=1;exitX=1;exitY=0.5;exitDx=0;exitDy=0;entryX=0;entryY=0.5;entryDx=0;entryDy=0;strokeColor=#A1A1A1;fontSize=17;" parent="1" source="AzJ7uP2qj4mIcJgj0vIB-4" target="AzJ7uP2qj4mIcJgj0vIB-42" edge="1">
          <mxGeometry relative="1" as="geometry" />
        </mxCell>
        <mxCell id="AzJ7uP2qj4mIcJgj0vIB-4" value="state" style="rounded=0;whiteSpace=wrap;html=1;fillColor=#dae8fc;strokeColor=none;fontSize=17;" parent="1" vertex="1">
          <mxGeometry x="263" y="175" width="80" height="40" as="geometry" />
        </mxCell>
        <mxCell id="AzJ7uP2qj4mIcJgj0vIB-8" value="step" style="text;html=1;align=center;verticalAlign=middle;resizable=0;points=[];autosize=1;strokeColor=none;fillColor=none;fontSize=17;" parent="1" vertex="1">
          <mxGeometry x="190" y="165" width="60" height="30" as="geometry" />
        </mxCell>
        <mxCell id="AzJ7uP2qj4mIcJgj0vIB-38" style="edgeStyle=orthogonalEdgeStyle;rounded=1;orthogonalLoop=1;jettySize=auto;html=1;strokeColor=#A1A1A1;entryX=0.5;entryY=1;entryDx=0;entryDy=0;exitX=1;exitY=0.5;exitDx=0;exitDy=0;fontSize=17;" parent="1" source="AzJ7uP2qj4mIcJgj0vIB-46" target="AzJ7uP2qj4mIcJgj0vIB-13" edge="1">
          <mxGeometry relative="1" as="geometry">
            <mxPoint x="1140" y="160" as="sourcePoint" />
            <mxPoint x="490" y="490" as="targetPoint" />
            <Array as="points">
              <mxPoint x="1190" y="151" />
              <mxPoint x="1190" y="340" />
              <mxPoint x="120" y="340" />
            </Array>
          </mxGeometry>
        </mxCell>
        <mxCell id="AzJ7uP2qj4mIcJgj0vIB-13" value="env" style="rounded=0;whiteSpace=wrap;html=1;shadow=1;strokeColor=none;fillColor=#dae8fc;fontSize=17;" parent="1" vertex="1">
          <mxGeometry x="60" y="165" width="120" height="60" as="geometry" />
        </mxCell>
        <mxCell id="AzJ7uP2qj4mIcJgj0vIB-24" style="edgeStyle=orthogonalEdgeStyle;rounded=1;orthogonalLoop=1;jettySize=auto;html=1;exitX=1;exitY=0.5;exitDx=0;exitDy=0;entryX=0;entryY=0.5;entryDx=0;entryDy=0;strokeColor=#A1A1A1;fontSize=17;" parent="1" source="AzJ7uP2qj4mIcJgj0vIB-14" edge="1">
          <mxGeometry relative="1" as="geometry">
            <mxPoint x="1020" y="151" as="targetPoint" />
          </mxGeometry>
        </mxCell>
        <mxCell id="AzJ7uP2qj4mIcJgj0vIB-14" value="teacher model" style="rounded=1;whiteSpace=wrap;html=1;shadow=1;fillColor=#1ba1e2;strokeColor=none;fontColor=#ffffff;fontSize=17;" parent="1" vertex="1">
          <mxGeometry x="780" y="126" width="120" height="50" as="geometry" />
        </mxCell>
        <mxCell id="AzJ7uP2qj4mIcJgj0vIB-35" style="edgeStyle=orthogonalEdgeStyle;rounded=1;orthogonalLoop=1;jettySize=auto;html=1;exitX=1;exitY=0.5;exitDx=0;exitDy=0;strokeColor=#A1A1A1;fontSize=17;" parent="1" source="AzJ7uP2qj4mIcJgj0vIB-15" target="AzJ7uP2qj4mIcJgj0vIB-33" edge="1">
          <mxGeometry relative="1" as="geometry" />
        </mxCell>
        <mxCell id="AzJ7uP2qj4mIcJgj0vIB-15" value="reuse model" style="rounded=1;whiteSpace=wrap;html=1;shadow=1;fillColor=#f8cecc;strokeColor=none;fontSize=17;" parent="1" vertex="1">
          <mxGeometry x="440" y="225" width="120" height="50" as="geometry" />
        </mxCell>
        <mxCell id="AzJ7uP2qj4mIcJgj0vIB-23" style="edgeStyle=orthogonalEdgeStyle;rounded=1;orthogonalLoop=1;jettySize=auto;html=1;exitX=1;exitY=0.5;exitDx=0;exitDy=0;strokeColor=#A1A1A1;fontSize=17;" parent="1" source="AzJ7uP2qj4mIcJgj0vIB-16" target="AzJ7uP2qj4mIcJgj0vIB-20" edge="1">
          <mxGeometry relative="1" as="geometry" />
        </mxCell>
        <mxCell id="AzJ7uP2qj4mIcJgj0vIB-16" value="Action-BYOL" style="rounded=1;whiteSpace=wrap;html=1;shadow=1;fillColor=#f8cecc;strokeColor=none;fontSize=17;" parent="1" vertex="1">
          <mxGeometry x="440" y="126" width="120" height="50" as="geometry" />
        </mxCell>
        <mxCell id="AzJ7uP2qj4mIcJgj0vIB-22" style="edgeStyle=orthogonalEdgeStyle;rounded=1;orthogonalLoop=1;jettySize=auto;html=1;exitX=1;exitY=0.5;exitDx=0;exitDy=0;entryX=0;entryY=0.5;entryDx=0;entryDy=0;strokeColor=#A1A1A1;fontSize=17;" parent="1" source="AzJ7uP2qj4mIcJgj0vIB-20" target="AzJ7uP2qj4mIcJgj0vIB-14" edge="1">
          <mxGeometry relative="1" as="geometry" />
        </mxCell>
        <mxCell id="AzJ7uP2qj4mIcJgj0vIB-34" style="edgeStyle=orthogonalEdgeStyle;rounded=1;orthogonalLoop=1;jettySize=auto;html=1;exitX=0.5;exitY=1;exitDx=0;exitDy=0;entryX=0.5;entryY=0;entryDx=0;entryDy=0;strokeColor=#A1A1A1;fontSize=17;" parent="1" source="AzJ7uP2qj4mIcJgj0vIB-20" target="AzJ7uP2qj4mIcJgj0vIB-33" edge="1">
          <mxGeometry relative="1" as="geometry" />
        </mxCell>
        <mxCell id="AzJ7uP2qj4mIcJgj0vIB-20" value="if ask advice" style="rhombus;whiteSpace=wrap;html=1;shadow=1;fillColor=#d5e8d4;strokeColor=none;fontSize=17;" parent="1" vertex="1">
          <mxGeometry x="610" y="121" width="120" height="60" as="geometry" />
        </mxCell>
        <mxCell id="AzJ7uP2qj4mIcJgj0vIB-25" value="advice action" style="text;html=1;align=center;verticalAlign=middle;resizable=0;points=[];autosize=1;strokeColor=none;fillColor=none;fontSize=17;" parent="1" vertex="1">
          <mxGeometry x="894" y="126" width="120" height="30" as="geometry" />
        </mxCell>
        <mxCell id="AzJ7uP2qj4mIcJgj0vIB-36" style="edgeStyle=orthogonalEdgeStyle;rounded=1;orthogonalLoop=1;jettySize=auto;html=1;exitX=1;exitY=0.5;exitDx=0;exitDy=0;entryX=0.5;entryY=1;entryDx=0;entryDy=0;strokeColor=#A1A1A1;fontSize=17;" parent="1" source="AzJ7uP2qj4mIcJgj0vIB-33" target="AzJ7uP2qj4mIcJgj0vIB-46" edge="1">
          <mxGeometry relative="1" as="geometry">
            <mxPoint x="1075" y="171" as="targetPoint" />
          </mxGeometry>
        </mxCell>
        <mxCell id="AzJ7uP2qj4mIcJgj0vIB-33" value="if&amp;nbsp; reuse" style="rhombus;whiteSpace=wrap;html=1;shadow=1;fillColor=#d5e8d4;strokeColor=none;fontSize=17;" parent="1" vertex="1">
          <mxGeometry x="610" y="220" width="120" height="60" as="geometry" />
        </mxCell>
        <mxCell id="AzJ7uP2qj4mIcJgj0vIB-37" value="advice action" style="text;html=1;align=center;verticalAlign=middle;resizable=0;points=[];autosize=1;strokeColor=none;fillColor=none;fontSize=17;" parent="1" vertex="1">
          <mxGeometry x="770" y="225" width="120" height="30" as="geometry" />
        </mxCell>
        <mxCell id="AzJ7uP2qj4mIcJgj0vIB-39" value="action" style="text;html=1;align=center;verticalAlign=middle;resizable=0;points=[];autosize=1;strokeColor=none;fillColor=none;fontSize=17;" parent="1" vertex="1">
          <mxGeometry x="575" y="316" width="70" height="30" as="geometry" />
        </mxCell>
        <mxCell id="AzJ7uP2qj4mIcJgj0vIB-45" style="edgeStyle=orthogonalEdgeStyle;rounded=1;orthogonalLoop=1;jettySize=auto;html=1;exitX=1;exitY=0.5;exitDx=0;exitDy=0;strokeColor=#A1A1A1;entryX=0.5;entryY=0;entryDx=0;entryDy=0;fontSize=17;" parent="1" source="AzJ7uP2qj4mIcJgj0vIB-42" target="AzJ7uP2qj4mIcJgj0vIB-46" edge="1">
          <mxGeometry relative="1" as="geometry">
            <mxPoint x="1080" y="110" as="targetPoint" />
          </mxGeometry>
        </mxCell>
        <mxCell id="AzJ7uP2qj4mIcJgj0vIB-42" value="agent" style="rounded=1;whiteSpace=wrap;html=1;shadow=1;fillColor=#f8cecc;strokeColor=none;fontSize=17;" parent="1" vertex="1">
          <mxGeometry x="440" y="50" width="120" height="50" as="geometry" />
        </mxCell>
        <mxCell id="AzJ7uP2qj4mIcJgj0vIB-46" value="choose action" style="rhombus;whiteSpace=wrap;html=1;shadow=1;fillColor=#d5e8d4;strokeColor=none;fontSize=17;" parent="1" vertex="1">
          <mxGeometry x="1020" y="121" width="120" height="60" as="geometry" />
        </mxCell>
        <mxCell id="AzJ7uP2qj4mIcJgj0vIB-47" value="self action" style="text;html=1;align=center;verticalAlign=middle;resizable=0;points=[];autosize=1;strokeColor=none;fillColor=none;fontSize=17;" parent="1" vertex="1">
          <mxGeometry x="730" y="45" width="100" height="30" as="geometry" />
        </mxCell>
        <mxCell id="Si9AKmO1rTwMyrS4tQQ6-10" style="edgeStyle=orthogonalEdgeStyle;rounded=1;orthogonalLoop=1;jettySize=auto;html=1;exitX=1;exitY=0.5;exitDx=0;exitDy=0;entryX=0;entryY=0.5;entryDx=0;entryDy=0;strokeColor=#A3A3A3;" parent="1" source="Si9AKmO1rTwMyrS4tQQ6-1" target="Si9AKmO1rTwMyrS4tQQ6-3" edge="1">
          <mxGeometry relative="1" as="geometry" />
        </mxCell>
        <mxCell id="Si9AKmO1rTwMyrS4tQQ6-18" style="edgeStyle=orthogonalEdgeStyle;rounded=1;orthogonalLoop=1;jettySize=auto;html=1;exitX=1;exitY=0.75;exitDx=0;exitDy=0;entryX=0;entryY=0.75;entryDx=0;entryDy=0;strokeColor=#A3A3A3;" parent="1" source="Si9AKmO1rTwMyrS4tQQ6-1" target="Si9AKmO1rTwMyrS4tQQ6-3" edge="1">
          <mxGeometry relative="1" as="geometry" />
        </mxCell>
        <mxCell id="Si9AKmO1rTwMyrS4tQQ6-1" value="env" style="rounded=0;whiteSpace=wrap;html=1;shadow=1;strokeColor=none;fillColor=#dae8fc;fontSize=17;" parent="1" vertex="1">
          <mxGeometry x="260" y="455" width="120" height="55" as="geometry" />
        </mxCell>
        <mxCell id="Si9AKmO1rTwMyrS4tQQ6-4" style="edgeStyle=orthogonalEdgeStyle;rounded=1;orthogonalLoop=1;jettySize=auto;html=1;exitX=0.5;exitY=1;exitDx=0;exitDy=0;entryX=0.5;entryY=1;entryDx=0;entryDy=0;strokeColor=#A3A3A3;" parent="1" source="Si9AKmO1rTwMyrS4tQQ6-3" target="Si9AKmO1rTwMyrS4tQQ6-1" edge="1">
          <mxGeometry relative="1" as="geometry">
            <Array as="points">
              <mxPoint x="745" y="540" />
              <mxPoint x="320" y="540" />
            </Array>
          </mxGeometry>
        </mxCell>
        <mxCell id="Si9AKmO1rTwMyrS4tQQ6-3" value="agent" style="rounded=1;whiteSpace=wrap;html=1;shadow=1;fillColor=#f8cecc;strokeColor=none;fontSize=17;" parent="1" vertex="1">
          <mxGeometry x="677" y="455" width="150" height="55" as="geometry" />
        </mxCell>
        <mxCell id="Si9AKmO1rTwMyrS4tQQ6-5" value="action&amp;nbsp;" style="text;html=1;align=center;verticalAlign=middle;resizable=0;points=[];autosize=1;strokeColor=none;fillColor=none;" parent="1" vertex="1">
          <mxGeometry x="515" y="540" width="60" height="30" as="geometry" />
        </mxCell>
        <mxCell id="Si9AKmO1rTwMyrS4tQQ6-9" value="reward" style="text;html=1;align=center;verticalAlign=middle;resizable=0;points=[];autosize=1;strokeColor=none;fillColor=none;" parent="1" vertex="1">
          <mxGeometry x="480" y="455" width="60" height="30" as="geometry" />
        </mxCell>
        <mxCell id="Si9AKmO1rTwMyrS4tQQ6-17" style="edgeStyle=orthogonalEdgeStyle;rounded=1;orthogonalLoop=1;jettySize=auto;html=1;exitX=0;exitY=0.5;exitDx=0;exitDy=0;strokeColor=#A3A3A3;" parent="1" source="Si9AKmO1rTwMyrS4tQQ6-11" target="Si9AKmO1rTwMyrS4tQQ6-5" edge="1">
          <mxGeometry relative="1" as="geometry" />
        </mxCell>
        <mxCell id="Si9AKmO1rTwMyrS4tQQ6-11" value="teacher" style="rounded=1;whiteSpace=wrap;html=1;shadow=1;fillColor=#1ba1e2;strokeColor=none;fontColor=#ffffff;fontSize=17;" parent="1" vertex="1">
          <mxGeometry x="575" y="595" width="120" height="50" as="geometry" />
        </mxCell>
        <mxCell id="Si9AKmO1rTwMyrS4tQQ6-14" style="edgeStyle=orthogonalEdgeStyle;rounded=1;orthogonalLoop=1;jettySize=auto;html=1;exitX=0;exitY=0.5;exitDx=0;exitDy=0;strokeColor=#A3A3A3;" parent="1" source="Si9AKmO1rTwMyrS4tQQ6-12" target="Si9AKmO1rTwMyrS4tQQ6-11" edge="1">
          <mxGeometry relative="1" as="geometry" />
        </mxCell>
        <mxCell id="Si9AKmO1rTwMyrS4tQQ6-12" value="selector" style="rhombus;whiteSpace=wrap;html=1;shadow=1;fillColor=#d5e8d4;strokeColor=none;fontSize=17;" parent="1" vertex="1">
          <mxGeometry x="740" y="590" width="120" height="60" as="geometry" />
        </mxCell>
        <mxCell id="Si9AKmO1rTwMyrS4tQQ6-19" value="intrinsic reward" style="text;html=1;align=center;verticalAlign=middle;resizable=0;points=[];autosize=1;strokeColor=none;fillColor=none;" parent="1" vertex="1">
          <mxGeometry x="450" y="495" width="100" height="30" as="geometry" />
        </mxCell>
        <mxCell id="Si9AKmO1rTwMyrS4tQQ6-20" value="&lt;span style=&quot;color: rgba(0, 0, 0, 0); font-family: monospace; font-size: 0px; text-align: start;&quot;&gt;%3CmxGraphModel%3E%3Croot%3E%3CmxCell%20id%3D%220%22%2F%3E%3CmxCell%20id%3D%221%22%20parent%3D%220%22%2F%3E%3CmxCell%20id%3D%222%22%20value%3D%22%22%20style%3D%22shape%3Dimage%3BverticalLabelPosition%3Dbottom%3BlabelBackgroundColor%3Ddefault%3BverticalAlign%3Dtop%3Baspect%3Dfixed%3BimageAspect%3D0%3Bimage%3Ddata%3Aimage%2Fpng%2CiVBORw0KGgoAAAANSUhEUgAAAJcAAACxCAYAAADJai9SAAAgAElEQVR4nO2dabBl11Xff2vtc%2B7whp7UgyzLtoQtLMuTEOABUoFAhVQllQAphxSBADHGgyxL6m5LFrJly%2FKgyVJbxrZkYjtJURAIRYWQSlVSJCm%2BpJiM8YAnbMBCY8%2FDm%2B695%2By98mGfc%2B659933enzdfbvPv%2Bv0u8O5Z0%2F%2Fvfbaa6%2B9trzxDfuMBmtATvKdAIYQEHqILID0ATBaBJsHayMIwgD0BEIfMIw2FjbHv8XzZCRNi5%2Bvl4WLHElm117oPEwplLTVJR%2F0cDbA6QHQ50AOkKQJy705Arsw20FiKSqHEZ5BkkOAYWEHZteQhx0EEQxBTSqKQUEvm96%2BnwQ2X%2Bg8TCmE%2FsAhGE6XQI%2FxoY%2FcQrt7hKXlZTS5mjt%2B9bdwyQxhAKpH%2BfBHb0PdfsAIYRd33fk7iG4ihHlcMo%2FlHiySK%2F4ppNeUQm56%2Ff%2Be5vxfOAikacpg8Pe0Wt%2Fi%2Fgd%2BAZ9%2Fi3s%2FeDudziy37r6PtPu93PWej7J5Zob73r8blee59%2F27AeGDH3yULN%2FBPff8BoPsBmDXyMONimdTS7AECRc6D1MKYzAYoOLBMiws0Jk5SpC%2FJWeGzsxx1OWkSUYIT6PueVxYRMkBRWWFdnqIRPcTeCk%2BBJBIqEisQoJhFcmmDcn09osLCxVBUJTNaP%2BlfOA9n%2BH%2Bj7%2BKjz36NoIIfrDIXXsep203YNmXCZkn0TbiZwGH%2Bi6IogZqSjAHYoARKoKVqU1nGyUXOgPTCrNAlg3opkAA8wEJRshzAooYzM3PcfTwgNnZNuoSCFn56%2BKS2gWTp4bCtJJLRwt4sV2ni41%2B%2FhAGpGmLwALS%2Bls%2BfP87ENvMR%2B%2F9be7%2FwH8Bv4Vf%2FcAv4Ob%2Bnn5YJGhK0AxzS5g7QXDLBIWAI6hhanEIRBATxBQ1h5hDLIEpvJK1K3k6e8uIgrIuf86ufAJk2YBWCqZKFlokYQdZ70qwBPPbWeoFBrmjo1fh%2FS5EMrw4BE%2BgjQ%2B7yG0XnjYmpSQbWrzMQEQYfjNdkJve8Idr1HIpui9eSJG9kk9ioxJpfSPkycsn62rSBnhEeogcR%2FVJPnL%2FT%2BP0edQgD7u4657fJ%2Fe7aLs2vZXv8tDHfhbnno%2Fk8lfyvvf%2BN3y4BrN5LLRimsVMcViuaaRVxKVNrpNKrlMh13qS3RNn2wZyEE2%2BhdNDOIwQriALr8CH7ZCDuiNI8k3UHUYJmN%2BOD6%2FCbOfwkWE0P9M6SywxtQq9AUHja7FRCmx8o5QJOAwFDLMdWD6HJ0cIGA4fUpIkQVKH2XZCuIkQsoLTKcjMyNOmnUzjmFpywaQ5VrFKV%2Bgpcelko1qsNnwB0AE2EwkXMMtQGRBCwELAB0ea7IzfG0BAyAC%2FQfm78JhacglxRBpO1I1QDHVihUhD1%2Fj12aK%2BqBwXrsEglB96pLBZmQkiQpooZoO4iF2JKD981iWI6SWXgdZ0LhNFArTbGT58FzMjhCsx5s552pMnCoYUZClXPeKQGfU2M6tkXTUbvGRpFbFRXfu8wIrlkiAKkqJ0sOwQneSPePD%2BH0XlwPBeO%2F1lrmopZuwaJZZgaLzE4kWkWkmlWM3lJdV9lzqmVnJZOR5KDtJHxePE4%2FgmD9z%2FTwnyBVSfJvidhc%2BUIzZ59YRTS%2BgkJBgSyGr2KFnj6UZdXl1i%2BvsqTC25AAKGhWVEnqXVOobjEHOz38DpMqpzJO67eLsKYxcWuiCuYEOoOeadzJY16VNZ83sbe16kWdTJ6sOgXPLUmvJhEYR2usRHP%2FSTpO5%2Fcf8Db%2BRDH%2FlHdLp%2FT5Ic4MMf%2BRVUn8fCUvULGxvSTndp6CSWsZFLRkg4vC59WkVMteQSA7FnmZ%2F5Pzz80HWY%2FjaSLGH0cG4zps%2BBPIfKi4uZXPXLU1pSWZtIZ6YvXQ7Sqo6pJVepCil9nOyn2zlKbh5vM2T5NowXEcIVBGaBBFWHWV3nOd8NfXkRC6aUXGYBROM6nHUx%2FwKWFq4nDzvxNofhyP1LuPue%2F0sIr8bYAmYoHswKI2tpJmiwUZhKcolEVTGu7m1h4L%2BPe%2B95gjxcjbd5ALx9Bx9uwGwnJg6EaNDkctJ6LiymcuHaIBolxSEs4vRpTHKCbcXoRDsmaZRqpFhBRi2HxcLIKWO7bcZTOVsj5%2BVO4UTXNS5evOQCCD7HJXPAy%2FC5EegCaaGPeVRyCoMFMNTTAlGljwve66ntDbnOBkl7mhchVCF4EEhFMXKGC8GljXy10XKo0k9tyacCyWY31F%2BmEyPONqwuyST5cbnLlPODZFM%2BAKaZXA0uViS79NL1J2pwYZHsyBcvdB4aXKJIrnRHLnQeGlyiSDbLkxc6Dw0uUSTOvn2h89DgEkWSa0OuBhuDZO7K%2FELnocElimSpvbzqQ5viaHYNLh4kh7tXjHxgZg25GpwTJEd3%2FdCqxRCRZnmkwdlDtl79xpGVa5W4iVO0IViDs0Oy7SX%2F6mS7pxo0OCMkz%2B0vN8MP0cisBucCic%2BXYgxOiUMiSCHJGoo1ODsk3STFa20%2Fn5VboBpyNTg7JDt3XI2X%2BmbRhlgNzg2S%2Fc88s4pc5e6aBg3OBgkhBx0q9CIaNy%2BINt6pDc4KiWcBz3C3u6IxNGcZ%2B4pmI0ODM0PygmtnMDdKn%2BGWq3pgxoZgDU4PgvvHkTV1i7yNhTuLAUbPf%2B4aTDWSmRe%2FroqgB8VccURyWWPBb3BGSMRmRz4oyRXRsKrBmSNZFULR4l5lqX3aUKzBmSBGuZnAniYSTIOzRWMtbbBhaMjVYMOgrBNCSUUKT4kGDU4fCuufy3WpHXbU4PwhsWCIi29EC0ll8QBZH8LY2UzFLLLZwNHgFKDC8OiSbqfLwtISrXaL61%2F5aqxupS8w6VWDBpMg3avvM1PBJQkWhtvKTMZ3AZVn2ICM6GnNuNlgMqrZoorQ6XToZwM6nQ7Xfs%2FLUNHCt2vMgbBR8hucArSUVKrKsRPHmZuZ5UUvuZZvfP1rjJ64VcZuL32iG4%2FVButDfQioKEmSsmlujsXlJQ4dPMBMp0uwUOhjjmjMF0Tia8FddseNNDg9RFOEKNu27yRNW3Q7bY4eOUTAE2xAsBwzBVpEkilCAqQ0kqvBetAQPHPzm9i560q8z%2Bl2W6QtELdCLofJ5QhelvHSw%2Bsypn2s8lttyNVgbWi7leKznL%2F%2Bxte5%2FpWvZPuuK8g5QSb7Sef2c%2FdH%2Fx15%2Bjy5O4B3B%2FDuCEFXMHyNZA0arIbOdDfx4mtfyqtecyNZlvHia3bRmTtBOvMsN9%2Fxz1jMv8L89sOE1pO42f38wtv%2BOV5OYNKvznJu0GASZMs1j5k5w8gRzXnl9%2B%2FkB36kzdYXLLD%2F2LeYnd9Cv7%2BNT%2B77LG%2B7%2BRY68gI%2B%2BdH%2FTpLvRK2N2FSeTdXgPEC9F%2FLMM8gG%2BOD56lf%2BDNMj9PKn2bKthWeBwCF%2B6W0%2FxezmjMceei9In%2FJo3QYN1oJ67%2FEhEMxYXDhBCIEnHv80Pk%2BwfCvk21hayNi29QpOHFvEdTcj1kJIkMZjp8E6UCMDAirCzOwcS0sZt73rPkL%2FSh689zfZ1H4VV17xGh578D8y17qau%2B58AAkziLVYyx2sMa82AFCTHiYx6K6qY%2Bv81Zw4uJ1H7%2FkDZOWVPPS%2B3%2BPIU9uwpWv4%2BId%2Fl4NPCRo2IdaO3hNjGF%2BNbHD5QtovfL%2Bpa2NA4sC1Agsrh5iZadPrB%2FLlJbpbZ1g5fghUmdv0AnxvLpJrZK928cBTSLTR1C4PJCoJGKgKZoGQC91kG74f0ACd2U2EQaDVnUWAvO9QhEnEgnL7%2F%2FoQGoJdDkhEFFFBpDj%2BsogEJwgqIKarhzqDScQqcSoEq2M9T9gG0ws1GT3LudyvGP0hpNh9Xdsse4otvt5tpxois9HZphtJdAi0Yp%2BixAg3Barh6wxFyOn8bJxIjdSafjSGqgYbhotm7aaRVJceLrjkOlXdrMH04aKQXA2JLk1ccMnV4NJFQ64GG4aGXA02DA25GmwYGnI12DBcFLPFBiWk9nf6w7M35DofkLVpEh0B6jvYy8HEiJ4n00uwZO3l4WbZ%2BJygRqyhg0CIDprSAwwJbQSHiYElCB3EHNO%2BT0FlVbCRoZNyE3T3DFEc1GVjxDKBIJ6gGUGPkydP8o69P4l3h%2FB6FK%2F7CXoIyLgUOrdaPEZq4tXgzDBR1ohhMiDoIrkc4Mpr4Pa734TOPEUmT5K758j1Od5x278l0FvrKVOFZrZ4HmAoRiDIMsEd4M4P%2Fgw%2F9fM3kCXfJJl%2Fhnff%2BzPMbDnI7Xf%2BPDPzOUafade3oFHozwPGVA3p4%2FUArn0kSjHr4VrCW299ExKO859%2F83%2BAbsFCXvP6nU5U8bkabCQESBDrQmjz2KOP0Ol0SGSewYrw3HNPYnICdAHTRUxXMMliLI4p1k5UmiiB5wHxwBuxFLUZ3vKWvfQWujyx7%2FfYPPMKXvaS1%2FO5x3%2BHkHf52X%2FzZrLFlQud4XOCRufacBgQMELc9GIzJP5qHnvgD%2Bgf%2Fx7uf%2B%2Fvc%2Fjpqzjx%2FFXs%2B8h%2FxfkX0e5eVexq16keFmXmmgemOPsXKUZMEMSZYvHOZIWgx4AcrIvgiMp7DpIh1kLDFah1iQdQTG%2FzNAr9RqDYW1cSa%2FghBXm2Fq8T4uAR94CaeMQUzGH4aVa3gIZcG4b6xt9R2ZOgFuPLVuEQpJBQ1SGq9V9NL8Uacm04BKm27jHy%2F2jwvHhf3JA8%2FGya0ZDrvOBU415PN5nG0cwWG2wYGsm1gYjnKk36Zlyfmn79ahIacm0UDJByOLSRL4ZUspFv5bRDuFycKM%2FobMi1gVgdKqowR4xJqtH3kWDTRrFJh7425NoQFPIqDGeDVoQIWk22ujuzFLQqwlhN0dKcqhLCaFitRqE%2FTyhtqeMumTL2r37vxY7Xv%2FGHJ34uEjtGI7k2BJPZIWue6Tw9EmocZoaIVOd0BjMww6k25Dp%2FmF4CrYU%2F%2FeP%2FV72ujlYUwRfDYzMsNjgrmAV%2B4PVvJBQSrCSWSHNKwXmArXGd7L6LG8NDYB0LJ04A4JIEHzxmgVa73ZDr%2FGAyccodQrn5uHVxSogFhWQSodVq8fyzzwDwspdfT%2BIScu85dORQo3NtLEY9HErlN0IQc5FOwRcKymp718WASTasYFYNhYsLUXIlLiHLM9IkJXGuIddGQWqSKh7nHGdQYPiQ0z94mB3Xvpa03eHAwSeZ6XRYWVkqfh0YJdj4MtH5RTBbRTCnSj8b0KbNq2%2B8iVarxRf%2B9I9pp63iDm2GxY2AjJFARXAqpEnK8uJxtmyexW3pcPjo39BfeYbULbGyfBDImUSg0bOULgzBfAjVBXFYnOnO4POcLM8QEW563Ru47vobmN%2B0ubFzbQRWO%2FtRbDEWfB6YnZ2jt3yYdus47ZkBh499lfnuNmCWYFsI1qnWGFc7HNbfnd8hs7RlmQVEHOocZoGbfvD1HD9%2BnC9%2B4U%2Fp9%2FskLiFttWh3Og25NgqVU6CVw2PAOUd%2FsETijvOBD%2F4iu65e4kP33cNTf%2Fs087OvYKXXihszin0ZZlKEWrh4sGnTFl50zTVs2bKFEydOsLC4wN%2F89TcJIaDqAMizjGwwaMh17lHIG9PCbRkgQ%2FAsLC7SaS%2BDPEN39jv08y9y9z2vo3%2F8Ot5%2F9%2B%2FhbHOc4lu529qBDBe37QIq%2BiqCN2Nh4QRf%2B8qX8CFw3ctfwaH9%2BwnFeZ0qUlnotbFznVtobSYYhzWHmIvnJ1kgLB%2BhlfawcJBu%2BxCbNx2g3XqSrZuWOXrwOzhbwVmOWkBtOCGIW9OseuqFglNldnaW3Hte94Yf4tD%2B%2FfRWloFh2bUwUUBjoT8pJu1Ir1dg%2FTOIw1j83qGkqJSn6sLOK7cRsqO0kwEtzegvncB5T76ywK6tsyRhGRdWSILhTIikyovzMIexIy4EvUQElzjMjBtv%2BgH%2B4s%2F%2BhOWlxVWeEHU0w%2BKakGLLhAcZUJ6oC4JJCoCRF%2Fe1EWlh1cJ0JIKKQyTj6Ilnme0uIOEQW644zsrykywvP8W2OYflfforTzE39xyDpEO%2Ff5jcd8FmcNIm0AbawAwwD7QvyHwxyzPIYTDI%2BPpXv0LiTk6dZlPsBKgIZoJKm36%2ByJZtRm9wkEG%2BGDex2iyCkLZyujObOXYIWm4LZg4sEKyPmKLWRuQEL3ppn7e%2F80cY5H%2FJ1S8MWHaUQe9Zup0T%2BHwZCW3UZslWOsx1r6TXS3n%2Fvfvo5Zt54KH%2FwOLyPO%2B%2B8xPk%2FhqMrSNxv04Na9nJzs5%2BVulYa6CRXBMQLOo3wTKQPsu9IywuPUl7roj6EOYxlOPLxzHdgclWkDkwx1Ar8sCAYAus9A%2By3PsbZuefJdgyaiukuoAfLKCyTJIcQ8xYGhyjteXFGAnve%2B%2BP4%2B2F3HXHT%2BJa12F%2BB8JVU7I4FNGQaw0EyxBdQdwC77tvL0EOMDOfoRogdAkhpd%2FPcGzmnjsfI9gymItKvAgqHgtLiCyxZfMcV%2B26iv7Kk7zn1scYnIBff%2BKn0GSZbHCIMMhptzpsms1ROU4rbbFj%2ByzPPHecjz18H8eXtnPb7s8ibm39Zn2sRcmzo%2Bp6Ugsacq0BQxREAqpw1217kZk%2BaasfN7JaG6GNz5V8JWVu9iVY7kZsnKE0HIQEP%2BiQ9TaT2NU8%2BuB9SLZA3j%2BM5gOc65A4CB5mZlKCJQxy8GGGTVuvIdgW%2BoMZct8hPQU952JCo3OtQrnInCNqqHoGfom4NAPgwFoIaSGpUlrJLCFE%2FUMsDoeCoeaAHt4fwIen2brlCHtv%2F9dc8%2BLNpG6JEI5joYcPOUIAyTGEQEqweRYX57j3g59jpbeLdvdlLC3PE5g7A53rwqAh1yqU5ArRfimGD77YZp8ASfHXFbEeBKcOM49JjooH86gIEhwicGLxIC9%2F2Qs4fPjr9FaeopUuEfwimI%2BkwjDLQXy0aokjhJQtW6%2Fi%2FR%2F4BFm%2Bk5vfcRebtryQQDI1jjkNuSbCavat6NUApao%2BGoYSGFmiid9Y1foqCa1kNlrdbQXnBsASvd4CSkoIQAhYkYYhqEtBPWgPwyGyFWQGVAkWbW%2FT0GjTNYifN8jYu9KBJlrLI2pOf1b%2BRtEi7LqoIBLvX%2Bot01vps2luM8t9odPu4tIrCF7jc8WKHT%2BCGYhLUedx7R553gfr4pI2uR%2BA%2BakgFjTkWhP1HS0iOvR2WNM8Xi5SR1U%2Brt4Y4NHEMTOv5CwgqTEofLt6PkMQVLV6tCEM6EEISM8Xi8FGnvXj0LuhpT63uKiWf0LwvObGmwjBF451FxrjTXkSH3gprvIeMZAQg%2BfKoLgyTAIeH00LzhMkI0iGl4wgg%2Fgej6EE0%2Bp500QsuIgk1%2FgaXn238ah78HnLEaP%2BU7aO1BrDSXa1mgXMQHXSAwvHekpdzgp70rRR6yIiF8TK%2FMqXvoiqI%2Fe%2B9vmF9CWvSaFTvv8sk5v44cXhT386uBjGnhGplfscp8prbryp8Hw0QvATvRM2GuW29Kic62lflzvOj%2BQa73RjPCklkxVOZi5JUFVarZTllRXSJD0v2Vwbq%2BPVnBLW3L5%2FeeAMu9eonWe920prcqB2wJvUbhif9ovS7%2Ff5wp%2F%2FCQCv%2Fb7vP7MsnjMUBaiOITuNa0LYkVO7Lg0kscmVMizsyTH0hRy63Q7jBJh4gg2K71NMAiY9YpD%2FBLEEtTS6rlBUp%2BjQUFk44okIWZbT7c6cy%2FKeJs6FW%2FHpSrzxtKaXbIrkRG9nN8GFdjzATxXkh1GHW0M0XkafoEfx7ihBe%2BSyyK5rlJvv%2FJe05o7h9ThBBiBWkCgKz8r4WNiIvvf6V%2FLa7%2FtB%2FurLX8JpEVr7vGLUZflMLpEz0dWkprPJWF6mC8WwOGmqO0qkcbEtUnutoBL3EqgzAivc9u5foT27iHdP89TBP0Jmv8O%2F%2BLnX4Ft%2FR3AHMV3GxFdpgVQEa3e6OJcQQuC6l9%2FADa9%2B7QWq3rMd2s4k15NIPZ1QLMFKX%2B1qaaNOrElYv9AGmC5z850%2FDfpF3nnXj5O3%2F4Lujq9x2%2Ft%2BjN3vexOSHiFYr3rO7Nw8S8uLzMzOcv0Nr0JU%2BMZffYVvfu2rfO0rXzpX5T2POFPJV%2F%2FtdEOj8BqVXOsTK6JuGrBg%2BBDIvSf3HlHl0X33gzvEO9%2F7iwzsOQ4f%2Fzbz23J6%2BfP0s4O4ZAASEFHMjBe%2B6MX8g3%2F447zqNTei6vi773y7Mp5OU%2FjGUVz2Cr1VyvW5XGAQAiID2m3HwomcmfZOsuU5Unbwucf%2FE4sLW%2BmqREVfhG9%2F8%2Bu02m1eet3L%2BeqX%2F7LaXbPe7pIGFzdUhEKBjP7fUHk0rXFF1G1TokLiHK00pZ2mBO%2FZvftX6S3M8IkHfofvuerHYPlafv3j%2F5PZ9Hu59V33keh8sTtGKuX1hle%2Flq9%2F9cs41QnS6tLq1ZcD1FtWBJioH5lucRNmoaRPuqh9H9e%2FPCHEK1FB%2FSZ%2B6zNfID94I0vPvpbPfeiP0cUbefCe3%2BXgsynKZoIJZjGQxQ%2B%2B4Yf5yz%2F%2FM4oNuzU3ltrsq%2Fk3Xf%2B6137AIB4caWOHdk%2BKyzQuPaxmHhUVgvUwPQ448NuAlCDLiOQgcZu74CDE3chmCig%2B2CpPiNXSa%2FoWby9nJOYywBeKdaC%2BUL92U8rYHYUbnVmhpM%2FEe1wOBKRmIEUMCz6aLEJeWbLTVPF%2BqF%2FJSfbENbj4kbj2YvVGCvfZSpk%2BzcYtKTeUeP34vngXzI%2FcJ0ZlRC3jOZ3NzHB6Z5WXJhJrP1%2B9GZdHZ9pUa1FS6q4rFsfl4Zf1ycQazz1dsp8l2S6EJ8alhES7B4qXp1%2BRa1V%2BvVFHG7jwqLRyve70Gv98y6VGDp4dEmk9z1quuyfruSer%2FMkKef3M1NNrvkaSTBcSzwGGO1pGIRPdcE8dozrbuK3s9C3SYY18rgU9S4e90lPjXD3vdNMbx7Sln4guRCv4hDYelxOTTRMTflDcVt5e%2BoDHqCihimUVquFx%2BPz1JhGnq0KdrZwbT2%2Bj5eapVu9pPXPsR%2Bv5L57r9BNCFr25QqFg1%2FchWMxdac80fJU5Kw2oJZGseG%2BrM1FNFIp7rLipPmsEkCAkJiO%2FqQol0aZWVY6cRWMLIz8u7MBFBMDxxeNCTxRAQi0vxbe18p9xdsrymxTpS5Wn8vADEyuO1WOkDerdc2IepPhchvW4Ot2yDmL6Mla5a%2BXBJjyrjkStDQE0OMQrqaZY7hkGijVQIWggqCeojw6AGlb1AitdTccaXsr%2FpCBYKV3LxweNBtUBpJqixEZWkcoJNGggkMc84DENiEKI2RumP5JoLZ3xyi0JVpIqJNhASLQ9lr4V5fXkZFX5kUDQkzduqJNYh%2B%2BFIt8j5RdSaaEVyWP6se5zgsujM6YGgkAoGliKtEuSjAwg5WfRfj1CyPI3ZfrOu8gDU1LXJuS%2BIlRQH7e%2BqSeoFR09drqSvDo2qibtbA7LDRcc73zrLVhmQyaHABoLEdTzxOcejw%2BX2MjSgiAeM18UoOjl440LkcDFGqJ6AVMsAwmKkiBeueVtt2KZkYgj5L6KXhcKcj3%2B2U%2FHtCWSnMQwDVVH8MFHEolVZ0tbrdLrjS%2BmKGmM52AOyZVb3nYbllE1rpSi2BlePE989tMEzbGio2XkkWjFCoWWHYi6RCtimYoiProISNHttYyXWnTsW952GwwMNUEseoug4CWm98TnP110rpzgPD4JBA0IhtTUCSk7Uk28CoL6YbtIUCQTWq5DyAwXlJvfcguJJThcrPSCqp6AV8%2Fjn%2F1UQbJY%2F6FIv5yklXkopZs88OkHjGBFJLzo9WwBnLpi13EgYAQJmHh8UaFec%2F7gD38fX%2FUmz1PPfhfTvGJ0yeq4N9SRSAsJDofD%2BZS3%2FNxbSWmRuhQ%2FCCSSQhB8Fmilw00ZsbFi%2BjEfsbCf%2BY3P4F2OJwYBGVgPU48VPQuJZdEgSEjQEEkspjif8I43v5OUlMSl5INAKgmEcmWs5gkqUXoFKaR2kf4nP%2FtreOcx8bHczmMa80hZBwHUBLUkSoWQ4EKC%2BoS3%2FtLbSaVFqi3CwJOU6Vc8KVzPpah%2FZwSJ677eZXzq85%2FAu6ySrEHL9IeySwqixrRLMisupLzrl29FMiURFyW1F1KX0lvp02q1sWBFZymHxFDUv5Frzqc%2B%2F2tF%2B4eiw5VcKKwC%2B%2FY9Gru5xQp1roXP43JQXCss2Ihh5JWV3ZwnSwZFhULQnE%2F9%2B0%2FgNa8aoIRaLNjb33wzGhxqsXCzOkvoG%2BYDnc4MK8t9EpcSvNFut8mzvGrfag2z0Hu8egaaxd4jHq%2BeJz73yUKyBsqdz5HcUdy%2F%2Fc3vLNKPQ8CsmyX046kQ3U6XleUVEpeMuBnHRfRy%2FPSFXDa8ejIdjKT%2F%2BGc%2FWTVweexw5GZM%2F%2BZfuQX1CYm1SCxFvYNcILeR9KP0ieNdqKkndX0vaM7ArZBrhqkV5f80QQuVpSJXJJMGx9t%2F%2BR24ov7TkJLmbVxQBAg%2B4Io48oX4ZwQy5AFl%2FbseXnOCFOl%2F%2FvGh2iSGPLbvUbNgReQUqSpVRGPPq0V7sSI00Kg0CVWi9QcPZU45BAyHgbJHaaXAVoJ1KC0YP%2BTEquG3cvcRK%2FSOeq8qFb9Rm1pMTwulXYv8aFWJdTKMmElsODyYFUOQyEgvtlKylO%2BLnj5cjSiGYXNRv8HVlPcyPWrpT0aldBP94Ib1DUECXkMh2cqb65Irllertoiki%2BpMKNZyQ838tHrqWAZLKfW6YZmpCBYqpd9IqsqtP8GYEPTCKsU5ziggBj9LigawQmIM7x%2F9eZSMo0fxWo2I47Cx8lmUKEY1m1GLOowV%2BS6lSqnJyohZoz4bHpJ4vIzrva7CgROHeRWtqTW1WWVZtnoZyolDQVipflPP%2F5o1USNWqUNq1F0ZKulB6ukXZS7KW5JZKIfdmmQtD1LQ0bZZjZJW8VnOHOCq9JOCWGVJkiBRuS6yVxWgfH45Da3LEVuVVHnfONuHca7KqDGhIEkptssxPb4z6lyrz3yqJ5baqsShsiZHV03XVs1mjaEppP7sclq1ygwy%2BswqSpdJYRMa3ik21DFLyb3mk3AAAAXbSURBVFHO0qo7iy%2FHJ6xlGiXxxstQfSKlBjP0vavqkdoMsMx6rRxlvoZSLaoYsTbqo8do2nVIUd%2FxGZNGGRtpw6T8ouBjFVhMigeU08xyt4%2BZVbVSHTZUy0T9PEGzAMWkoNxNbeX0baLkqFW0SFQoywO6a41pDHNdf716WBv9BBk29iRJIcKEDFGlYyM3SD271SdWf1ccUaJWO1ilRpbYneNsd1i%2BoXSxotdOMnxWtq56IctcWa0Gqu%2BGbBsREzLs2iNfTkiz1PdGbhypr9HOk0Q%2BekSI27l8zWGwjC5TEqmWqqgQSl3NQhVjajQzCmYEo3JdFgwLAaliUq0emOrlKskabU5F2qukZNlzR2tm1bPGfjZaf6ulbi0TNboy7HTFz%2Bqpl%2FeZgJdILBcEZzUDZAjViKCF3hjlsEdFoy6IROGiRRilSQSr8jPW5KVwt7KuynvHmaMTPhutkbGutDoTozkZeZeU7sxmhiuOOSsfKzYMgIbVRLwKeT6MoZW2WgwGA1qtVjRd%2BOJcvorpJSmi7cg5LWakoy1dFaTuVaFRguW5H%2B3ypwIZq5yT%2Fu7UE5Cxv%2BMIGMGBC56Zfk7bFyaLmp41nAxEaiEegqEkBG3Rcx3i%2BonVTucYzeFaOa1UlVU3jH2w1npQfTg%2FQ1SBSESE3qAXz61Rx%2B7du2klKf2sz75H9rF7zx4efeRR9uyNf999x14%2Bvu%2Fj7N2zl3379vGe99wZjZjAvkf28e479uLU8dDDD3PXe%2B7ioYceJITAnr17ePjhj%2BFUV8XdqprWCvGqwk%2F8xE%2BQZRntdvssinkqWEdyncavIEp0JOBlwGxvmc%2FdcSebsj5BM9Baq5XKr0rUZywHMzJvHKPLy%2F%2FJmxhoa5UudPY41d55dkjqM4ayoXOfIyLc%2F%2BAD7N2zhyRNMYzde3dXPxSEPXv2xKxaVNI%2Fvu%2BRke8feOBBxCDPM%2B64404effTRmGjioj5Vx4TyisSQjiJR0k0LgoFoPKZFs2W2kbGVFcz6KFG%2F0uJI4iwfkA9yBKMlUcUYeCPpOBLzG0Cs84dKURr3larP8nq9Hvse2Qcw%2FLtvHyJSEcYskCYpt%2B%2B%2BHQuxR959991keYYRK2337tvjvWE4iyxjcK2FMn6CS1yMkzUFl0scSaK0U0c3VQZLx8gXj5AvHWawsJ%2FsxH76x56jf%2Bw5%2FOIh0nyZdr5C1%2Ffp5H22poob9Ipj8aYXI1p4mqbVUJWkaRVtxqny7jvejVPHnr17EI0RaMphEMAHT5Znlc%2BPU8cjjzxCmqR0Wh0%2B9vDHCCGeG9hut4e2lXV2VIsoIXja7TaqjiRJcS65%2BK%2FE4ZyLFm9RpDuDzcxCdxbpzCGd2Xh1Z5HuHFnSIUu7LEubvuuy6B3amY9Sa2QmMV0YIVe%2F368Uc5%2Fn3Hnne6rlCB88Dz%2F0cJRCwUjKyivg1LF3794Rh7Nbb3sXuc%2Brrf4PP%2FwxtIi%2FFaP1rV9rIXjy3FeRBcuZ6cV%2BBe%2Fx3hM89CXlaGuWA%2B3NHG5t5WhnO8c62zne3c6x7nb2J5vZn2xhf%2FsKnu%2Fu5ODsVexPd3JY5ulLQhmffhoh%2B%2FZ93OpD0yoFu5DM6jTGKs2y%2BN1JvFSDD8VwltDrrYycz6duyOlVulcNufe0WilZlpMkjuAv%2FoquGymVnLbPmMsy2j5D8agUBunSXqqKiWOQe8TiZMDh6GvKYrtLX9OxcEq1tE4i0U5thrxxSEZsGRNmbiWCD1XjlsRajxjls3yekybD4fa0MudcsaCqWLgQEZ1PH8MsKmIJXpWlNGUlsYmtHU2%2FCq3aMxCCCJkVFu%2B1ErO1CXYx1FQCVKHTTzVD65HqssfQsgkoXpTgShKtVcOT7GsGpzAkno0H7EbjvIUKH4krf5mQc7hmd%2FI7V6P0UImvpxEXVRz6BuOYTlKVaIKlN9gwNJJrFdZaXzxdKXJ5DP3r4TIl13oEqpNotQvP6T3v8ibYpU%2Bu9daj634zNk6g05VUdYKV0%2B%2BzINclcPrG%2Fwf6x%2Bl7FFg%2F5wAAAABJRU5ErkJggg%3D%3D%3BfontSize%3D30%3B%22%20vertex%3D%221%22%20parent%3D%221%22%3E%3CmxGeometry%20x%3D%2290%22%20y%3D%22370%22%20width%3D%22151%22%20height%3D%22177%22%20as%3D%22geometry%22%2F%3E%3C%2FmxCell%3E%3CmxCell%20id%3D%223%22%20value%3D%22%22%20style%3D%22shape%3Dimage%3BverticalLabelPosition%3Dbottom%3BlabelBackgroundColor%3Ddefault%3BverticalAlign%3Dtop%3Baspect%3Dfixed%3BimageAspect%3D0%3Bimage%3Ddata%3Aimage%2Fpng%2CiVBORw0KGgoAAAANSUhEUgAAAJcAAACxCAYAAADJai9SAAAgAElEQVR4nO2dabBl11Xff2vtc%2B7whp7UgyzLtoQtLMuTEOABUoFAhVQllQAphxSBADHGgyxL6m5LFrJly%2FKgyVJbxrZkYjtJURAIRYWQSlVSJCm%2BpJiM8YAnbMBCY8%2FDm%2B695%2By98mGfc%2B659933enzdfbvPv%2Bv0u8O5Z0%2F%2Fvfbaa6%2B9trzxDfuMBmtATvKdAIYQEHqILID0ATBaBJsHayMIwgD0BEIfMIw2FjbHv8XzZCRNi5%2Bvl4WLHElm117oPEwplLTVJR%2F0cDbA6QHQ50AOkKQJy705Arsw20FiKSqHEZ5BkkOAYWEHZteQhx0EEQxBTSqKQUEvm96%2BnwQ2X%2Bg8TCmE%2FsAhGE6XQI%2FxoY%2FcQrt7hKXlZTS5mjt%2B9bdwyQxhAKpH%2BfBHb0PdfsAIYRd33fk7iG4ihHlcMo%2FlHiySK%2F4ppNeUQm56%2Ff%2Be5vxfOAikacpg8Pe0Wt%2Fi%2Fgd%2BAZ9%2Fi3s%2FeDudziy37r6PtPu93PWej7J5Zob73r8blee59%2F27AeGDH3yULN%2FBPff8BoPsBmDXyMONimdTS7AECRc6D1MKYzAYoOLBMiws0Jk5SpC%2FJWeGzsxx1OWkSUYIT6PueVxYRMkBRWWFdnqIRPcTeCk%2BBJBIqEisQoJhFcmmDcn09osLCxVBUJTNaP%2BlfOA9n%2BH%2Bj7%2BKjz36NoIIfrDIXXsep203YNmXCZkn0TbiZwGH%2Bi6IogZqSjAHYoARKoKVqU1nGyUXOgPTCrNAlg3opkAA8wEJRshzAooYzM3PcfTwgNnZNuoSCFn56%2BKS2gWTp4bCtJJLRwt4sV2ni41%2B%2FhAGpGmLwALS%2Bls%2BfP87ENvMR%2B%2F9be7%2FwH8Bv4Vf%2FcAv4Ob%2Bnn5YJGhK0AxzS5g7QXDLBIWAI6hhanEIRBATxBQ1h5hDLIEpvJK1K3k6e8uIgrIuf86ufAJk2YBWCqZKFlokYQdZ70qwBPPbWeoFBrmjo1fh%2FS5EMrw4BE%2BgjQ%2B7yG0XnjYmpSQbWrzMQEQYfjNdkJve8Idr1HIpui9eSJG9kk9ioxJpfSPkycsn62rSBnhEeogcR%2FVJPnL%2FT%2BP0edQgD7u4657fJ%2Fe7aLs2vZXv8tDHfhbnno%2Fk8lfyvvf%2BN3y4BrN5LLRimsVMcViuaaRVxKVNrpNKrlMh13qS3RNn2wZyEE2%2BhdNDOIwQriALr8CH7ZCDuiNI8k3UHUYJmN%2BOD6%2FCbOfwkWE0P9M6SywxtQq9AUHja7FRCmx8o5QJOAwFDLMdWD6HJ0cIGA4fUpIkQVKH2XZCuIkQsoLTKcjMyNOmnUzjmFpywaQ5VrFKV%2Bgpcelko1qsNnwB0AE2EwkXMMtQGRBCwELAB0ea7IzfG0BAyAC%2FQfm78JhacglxRBpO1I1QDHVihUhD1%2Fj12aK%2BqBwXrsEglB96pLBZmQkiQpooZoO4iF2JKD981iWI6SWXgdZ0LhNFArTbGT58FzMjhCsx5s552pMnCoYUZClXPeKQGfU2M6tkXTUbvGRpFbFRXfu8wIrlkiAKkqJ0sOwQneSPePD%2BH0XlwPBeO%2F1lrmopZuwaJZZgaLzE4kWkWkmlWM3lJdV9lzqmVnJZOR5KDtJHxePE4%2FgmD9z%2FTwnyBVSfJvidhc%2BUIzZ59YRTS%2BgkJBgSyGr2KFnj6UZdXl1i%2BvsqTC25AAKGhWVEnqXVOobjEHOz38DpMqpzJO67eLsKYxcWuiCuYEOoOeadzJY16VNZ83sbe16kWdTJ6sOgXPLUmvJhEYR2usRHP%2FSTpO5%2Fcf8Db%2BRDH%2FlHdLp%2FT5Ic4MMf%2BRVUn8fCUvULGxvSTndp6CSWsZFLRkg4vC59WkVMteQSA7FnmZ%2F5Pzz80HWY%2FjaSLGH0cG4zps%2BBPIfKi4uZXPXLU1pSWZtIZ6YvXQ7Sqo6pJVepCil9nOyn2zlKbh5vM2T5NowXEcIVBGaBBFWHWV3nOd8NfXkRC6aUXGYBROM6nHUx%2FwKWFq4nDzvxNofhyP1LuPue%2F0sIr8bYAmYoHswKI2tpJmiwUZhKcolEVTGu7m1h4L%2BPe%2B95gjxcjbd5ALx9Bx9uwGwnJg6EaNDkctJ6LiymcuHaIBolxSEs4vRpTHKCbcXoRDsmaZRqpFhBRi2HxcLIKWO7bcZTOVsj5%2BVO4UTXNS5evOQCCD7HJXPAy%2FC5EegCaaGPeVRyCoMFMNTTAlGljwve66ntDbnOBkl7mhchVCF4EEhFMXKGC8GljXy10XKo0k9tyacCyWY31F%2BmEyPONqwuyST5cbnLlPODZFM%2BAKaZXA0uViS79NL1J2pwYZHsyBcvdB4aXKJIrnRHLnQeGlyiSDbLkxc6Dw0uUSTOvn2h89DgEkWSa0OuBhuDZO7K%2FELnocElimSpvbzqQ5viaHYNLh4kh7tXjHxgZg25GpwTJEd3%2FdCqxRCRZnmkwdlDtl79xpGVa5W4iVO0IViDs0Oy7SX%2F6mS7pxo0OCMkz%2B0vN8MP0cisBucCic%2BXYgxOiUMiSCHJGoo1ODsk3STFa20%2Fn5VboBpyNTg7JDt3XI2X%2BmbRhlgNzg2S%2Fc88s4pc5e6aBg3OBgkhBx0q9CIaNy%2BINt6pDc4KiWcBz3C3u6IxNGcZ%2B4pmI0ODM0PygmtnMDdKn%2BGWq3pgxoZgDU4PgvvHkTV1i7yNhTuLAUbPf%2B4aTDWSmRe%2FroqgB8VccURyWWPBb3BGSMRmRz4oyRXRsKrBmSNZFULR4l5lqX3aUKzBmSBGuZnAniYSTIOzRWMtbbBhaMjVYMOgrBNCSUUKT4kGDU4fCuufy3WpHXbU4PwhsWCIi29EC0ll8QBZH8LY2UzFLLLZwNHgFKDC8OiSbqfLwtISrXaL61%2F5aqxupS8w6VWDBpMg3avvM1PBJQkWhtvKTMZ3AZVn2ICM6GnNuNlgMqrZoorQ6XToZwM6nQ7Xfs%2FLUNHCt2vMgbBR8hucArSUVKrKsRPHmZuZ5UUvuZZvfP1rjJ64VcZuL32iG4%2FVButDfQioKEmSsmlujsXlJQ4dPMBMp0uwUOhjjmjMF0Tia8FddseNNDg9RFOEKNu27yRNW3Q7bY4eOUTAE2xAsBwzBVpEkilCAqQ0kqvBetAQPHPzm9i560q8z%2Bl2W6QtELdCLofJ5QhelvHSw%2Bsypn2s8lttyNVgbWi7leKznL%2F%2Bxte5%2FpWvZPuuK8g5QSb7Sef2c%2FdH%2Fx15%2Bjy5O4B3B%2FDuCEFXMHyNZA0arIbOdDfx4mtfyqtecyNZlvHia3bRmTtBOvMsN9%2Fxz1jMv8L89sOE1pO42f38wtv%2BOV5OYNKvznJu0GASZMs1j5k5w8gRzXnl9%2B%2FkB36kzdYXLLD%2F2LeYnd9Cv7%2BNT%2B77LG%2B7%2BRY68gI%2B%2BdH%2FTpLvRK2N2FSeTdXgPEC9F%2FLMM8gG%2BOD56lf%2BDNMj9PKn2bKthWeBwCF%2B6W0%2FxezmjMceei9In%2FJo3QYN1oJ67%2FEhEMxYXDhBCIEnHv80Pk%2BwfCvk21hayNi29QpOHFvEdTcj1kJIkMZjp8E6UCMDAirCzOwcS0sZt73rPkL%2FSh689zfZ1H4VV17xGh578D8y17qau%2B58AAkziLVYyx2sMa82AFCTHiYx6K6qY%2Bv81Zw4uJ1H7%2FkDZOWVPPS%2B3%2BPIU9uwpWv4%2BId%2Fl4NPCRo2IdaO3hNjGF%2BNbHD5QtovfL%2Bpa2NA4sC1Agsrh5iZadPrB%2FLlJbpbZ1g5fghUmdv0AnxvLpJrZK928cBTSLTR1C4PJCoJGKgKZoGQC91kG74f0ACd2U2EQaDVnUWAvO9QhEnEgnL7%2F%2FoQGoJdDkhEFFFBpDj%2BsogEJwgqIKarhzqDScQqcSoEq2M9T9gG0ws1GT3LudyvGP0hpNh9Xdsse4otvt5tpxois9HZphtJdAi0Yp%2BixAg3Barh6wxFyOn8bJxIjdSafjSGqgYbhotm7aaRVJceLrjkOlXdrMH04aKQXA2JLk1ccMnV4NJFQ64GG4aGXA02DA25GmwYGnI12DBcFLPFBiWk9nf6w7M35DofkLVpEh0B6jvYy8HEiJ4n00uwZO3l4WbZ%2BJygRqyhg0CIDprSAwwJbQSHiYElCB3EHNO%2BT0FlVbCRoZNyE3T3DFEc1GVjxDKBIJ6gGUGPkydP8o69P4l3h%2FB6FK%2F7CXoIyLgUOrdaPEZq4tXgzDBR1ohhMiDoIrkc4Mpr4Pa734TOPEUmT5K758j1Od5x278l0FvrKVOFZrZ4HmAoRiDIMsEd4M4P%2Fgw%2F9fM3kCXfJJl%2Fhnff%2BzPMbDnI7Xf%2BPDPzOUafade3oFHozwPGVA3p4%2FUArn0kSjHr4VrCW299ExKO859%2F83%2BAbsFCXvP6nU5U8bkabCQESBDrQmjz2KOP0Ol0SGSewYrw3HNPYnICdAHTRUxXMMliLI4p1k5UmiiB5wHxwBuxFLUZ3vKWvfQWujyx7%2FfYPPMKXvaS1%2FO5x3%2BHkHf52X%2FzZrLFlQud4XOCRufacBgQMELc9GIzJP5qHnvgD%2Bgf%2Fx7uf%2B%2Fvc%2Fjpqzjx%2FFXs%2B8h%2FxfkX0e5eVexq16keFmXmmgemOPsXKUZMEMSZYvHOZIWgx4AcrIvgiMp7DpIh1kLDFah1iQdQTG%2FzNAr9RqDYW1cSa%2FghBXm2Fq8T4uAR94CaeMQUzGH4aVa3gIZcG4b6xt9R2ZOgFuPLVuEQpJBQ1SGq9V9NL8Uacm04BKm27jHy%2F2jwvHhf3JA8%2FGya0ZDrvOBU415PN5nG0cwWG2wYGsm1gYjnKk36Zlyfmn79ahIacm0UDJByOLSRL4ZUspFv5bRDuFycKM%2FobMi1gVgdKqowR4xJqtH3kWDTRrFJh7425NoQFPIqDGeDVoQIWk22ujuzFLQqwlhN0dKcqhLCaFitRqE%2FTyhtqeMumTL2r37vxY7Xv%2FGHJ34uEjtGI7k2BJPZIWue6Tw9EmocZoaIVOd0BjMww6k25Dp%2FmF4CrYU%2F%2FeP%2FV72ujlYUwRfDYzMsNjgrmAV%2B4PVvJBQSrCSWSHNKwXmArXGd7L6LG8NDYB0LJ04A4JIEHzxmgVa73ZDr%2FGAyccodQrn5uHVxSogFhWQSodVq8fyzzwDwspdfT%2BIScu85dORQo3NtLEY9HErlN0IQc5FOwRcKymp718WASTasYFYNhYsLUXIlLiHLM9IkJXGuIddGQWqSKh7nHGdQYPiQ0z94mB3Xvpa03eHAwSeZ6XRYWVkqfh0YJdj4MtH5RTBbRTCnSj8b0KbNq2%2B8iVarxRf%2B9I9pp63iDm2GxY2AjJFARXAqpEnK8uJxtmyexW3pcPjo39BfeYbULbGyfBDImUSg0bOULgzBfAjVBXFYnOnO4POcLM8QEW563Ru47vobmN%2B0ubFzbQRWO%2FtRbDEWfB6YnZ2jt3yYdus47ZkBh499lfnuNmCWYFsI1qnWGFc7HNbfnd8hs7RlmQVEHOocZoGbfvD1HD9%2BnC9%2B4U%2Fp9%2FskLiFttWh3Og25NgqVU6CVw2PAOUd%2FsETijvOBD%2F4iu65e4kP33cNTf%2Fs087OvYKXXihszin0ZZlKEWrh4sGnTFl50zTVs2bKFEydOsLC4wN%2F89TcJIaDqAMizjGwwaMh17lHIG9PCbRkgQ%2FAsLC7SaS%2BDPEN39jv08y9y9z2vo3%2F8Ot5%2F9%2B%2FhbHOc4lu529qBDBe37QIq%2BiqCN2Nh4QRf%2B8qX8CFw3ctfwaH9%2BwnFeZ0qUlnotbFznVtobSYYhzWHmIvnJ1kgLB%2BhlfawcJBu%2BxCbNx2g3XqSrZuWOXrwOzhbwVmOWkBtOCGIW9OseuqFglNldnaW3Hte94Yf4tD%2B%2FfRWloFh2bUwUUBjoT8pJu1Ir1dg%2FTOIw1j83qGkqJSn6sLOK7cRsqO0kwEtzegvncB5T76ywK6tsyRhGRdWSILhTIikyovzMIexIy4EvUQElzjMjBtv%2BgH%2B4s%2F%2BhOWlxVWeEHU0w%2BKakGLLhAcZUJ6oC4JJCoCRF%2Fe1EWlh1cJ0JIKKQyTj6Ilnme0uIOEQW644zsrykywvP8W2OYflfforTzE39xyDpEO%2Ff5jcd8FmcNIm0AbawAwwD7QvyHwxyzPIYTDI%2BPpXv0LiTk6dZlPsBKgIZoJKm36%2ByJZtRm9wkEG%2BGDex2iyCkLZyujObOXYIWm4LZg4sEKyPmKLWRuQEL3ppn7e%2F80cY5H%2FJ1S8MWHaUQe9Zup0T%2BHwZCW3UZslWOsx1r6TXS3n%2Fvfvo5Zt54KH%2FwOLyPO%2B%2B8xPk%2FhqMrSNxv04Na9nJzs5%2BVulYa6CRXBMQLOo3wTKQPsu9IywuPUl7roj6EOYxlOPLxzHdgclWkDkwx1Ar8sCAYAus9A%2By3PsbZuefJdgyaiukuoAfLKCyTJIcQ8xYGhyjteXFGAnve%2B%2BP4%2B2F3HXHT%2BJa12F%2BB8JVU7I4FNGQaw0EyxBdQdwC77tvL0EOMDOfoRogdAkhpd%2FPcGzmnjsfI9gymItKvAgqHgtLiCyxZfMcV%2B26iv7Kk7zn1scYnIBff%2BKn0GSZbHCIMMhptzpsms1ROU4rbbFj%2ByzPPHecjz18H8eXtnPb7s8ibm39Zn2sRcmzo%2Bp6Ugsacq0BQxREAqpw1217kZk%2BaasfN7JaG6GNz5V8JWVu9iVY7kZsnKE0HIQEP%2BiQ9TaT2NU8%2BuB9SLZA3j%2BM5gOc65A4CB5mZlKCJQxy8GGGTVuvIdgW%2BoMZct8hPQU952JCo3OtQrnInCNqqHoGfom4NAPgwFoIaSGpUlrJLCFE%2FUMsDoeCoeaAHt4fwIen2brlCHtv%2F9dc8%2BLNpG6JEI5joYcPOUIAyTGEQEqweRYX57j3g59jpbeLdvdlLC3PE5g7A53rwqAh1yqU5ArRfimGD77YZp8ASfHXFbEeBKcOM49JjooH86gIEhwicGLxIC9%2F2Qs4fPjr9FaeopUuEfwimI%2BkwjDLQXy0aokjhJQtW6%2Fi%2FR%2F4BFm%2Bk5vfcRebtryQQDI1jjkNuSbCavat6NUApao%2BGoYSGFmiid9Y1foqCa1kNlrdbQXnBsASvd4CSkoIQAhYkYYhqEtBPWgPwyGyFWQGVAkWbW%2FT0GjTNYifN8jYu9KBJlrLI2pOf1b%2BRtEi7LqoIBLvX%2Bot01vps2luM8t9odPu4tIrCF7jc8WKHT%2BCGYhLUedx7R553gfr4pI2uR%2BA%2BakgFjTkWhP1HS0iOvR2WNM8Xi5SR1U%2Brt4Y4NHEMTOv5CwgqTEofLt6PkMQVLV6tCEM6EEISM8Xi8FGnvXj0LuhpT63uKiWf0LwvObGmwjBF451FxrjTXkSH3gprvIeMZAQg%2BfKoLgyTAIeH00LzhMkI0iGl4wgg%2Fgej6EE0%2Bp500QsuIgk1%2FgaXn238ah78HnLEaP%2BU7aO1BrDSXa1mgXMQHXSAwvHekpdzgp70rRR6yIiF8TK%2FMqXvoiqI%2Fe%2B9vmF9CWvSaFTvv8sk5v44cXhT386uBjGnhGplfscp8prbryp8Hw0QvATvRM2GuW29Kic62lflzvOj%2BQa73RjPCklkxVOZi5JUFVarZTllRXSJD0v2Vwbq%2BPVnBLW3L5%2FeeAMu9eonWe920prcqB2wJvUbhif9ovS7%2Ff5wp%2F%2FCQCv%2Fb7vP7MsnjMUBaiOITuNa0LYkVO7Lg0kscmVMizsyTH0hRy63Q7jBJh4gg2K71NMAiY9YpD%2FBLEEtTS6rlBUp%2BjQUFk44okIWZbT7c6cy%2FKeJs6FW%2FHpSrzxtKaXbIrkRG9nN8GFdjzATxXkh1GHW0M0XkafoEfx7ihBe%2BSyyK5rlJvv%2FJe05o7h9ThBBiBWkCgKz8r4WNiIvvf6V%2FLa7%2FtB%2FurLX8JpEVr7vGLUZflMLpEz0dWkprPJWF6mC8WwOGmqO0qkcbEtUnutoBL3EqgzAivc9u5foT27iHdP89TBP0Jmv8O%2F%2BLnX4Ft%2FR3AHMV3GxFdpgVQEa3e6OJcQQuC6l9%2FADa9%2B7QWq3rMd2s4k15NIPZ1QLMFKX%2B1qaaNOrElYv9AGmC5z850%2FDfpF3nnXj5O3%2F4Lujq9x2%2Ft%2BjN3vexOSHiFYr3rO7Nw8S8uLzMzOcv0Nr0JU%2BMZffYVvfu2rfO0rXzpX5T2POFPJV%2F%2FtdEOj8BqVXOsTK6JuGrBg%2BBDIvSf3HlHl0X33gzvEO9%2F7iwzsOQ4f%2Fzbz23J6%2BfP0s4O4ZAASEFHMjBe%2B6MX8g3%2F447zqNTei6vi773y7Mp5OU%2FjGUVz2Cr1VyvW5XGAQAiID2m3HwomcmfZOsuU5Unbwucf%2FE4sLW%2BmqREVfhG9%2F8%2Bu02m1eet3L%2BeqX%2F7LaXbPe7pIGFzdUhEKBjP7fUHk0rXFF1G1TokLiHK00pZ2mBO%2FZvftX6S3M8IkHfofvuerHYPlafv3j%2F5PZ9Hu59V33keh8sTtGKuX1hle%2Flq9%2F9cs41QnS6tLq1ZcD1FtWBJioH5lucRNmoaRPuqh9H9e%2FPCHEK1FB%2FSZ%2B6zNfID94I0vPvpbPfeiP0cUbefCe3%2BXgsynKZoIJZjGQxQ%2B%2B4Yf5yz%2F%2FM4oNuzU3ltrsq%2Fk3Xf%2B6137AIB4caWOHdk%2BKyzQuPaxmHhUVgvUwPQ448NuAlCDLiOQgcZu74CDE3chmCig%2B2CpPiNXSa%2FoWby9nJOYywBeKdaC%2BUL92U8rYHYUbnVmhpM%2FEe1wOBKRmIEUMCz6aLEJeWbLTVPF%2BqF%2FJSfbENbj4kbj2YvVGCvfZSpk%2BzcYtKTeUeP34vngXzI%2FcJ0ZlRC3jOZ3NzHB6Z5WXJhJrP1%2B9GZdHZ9pUa1FS6q4rFsfl4Zf1ycQazz1dsp8l2S6EJ8alhES7B4qXp1%2BRa1V%2BvVFHG7jwqLRyve70Gv98y6VGDp4dEmk9z1quuyfruSer%2FMkKef3M1NNrvkaSTBcSzwGGO1pGIRPdcE8dozrbuK3s9C3SYY18rgU9S4e90lPjXD3vdNMbx7Sln4guRCv4hDYelxOTTRMTflDcVt5e%2BoDHqCihimUVquFx%2BPz1JhGnq0KdrZwbT2%2Bj5eapVu9pPXPsR%2Bv5L57r9BNCFr25QqFg1%2FchWMxdac80fJU5Kw2oJZGseG%2BrM1FNFIp7rLipPmsEkCAkJiO%2FqQol0aZWVY6cRWMLIz8u7MBFBMDxxeNCTxRAQi0vxbe18p9xdsrymxTpS5Wn8vADEyuO1WOkDerdc2IepPhchvW4Ot2yDmL6Mla5a%2BXBJjyrjkStDQE0OMQrqaZY7hkGijVQIWggqCeojw6AGlb1AitdTccaXsr%2FpCBYKV3LxweNBtUBpJqixEZWkcoJNGggkMc84DENiEKI2RumP5JoLZ3xyi0JVpIqJNhASLQ9lr4V5fXkZFX5kUDQkzduqJNYh%2B%2BFIt8j5RdSaaEVyWP6se5zgsujM6YGgkAoGliKtEuSjAwg5WfRfj1CyPI3ZfrOu8gDU1LXJuS%2BIlRQH7e%2BqSeoFR09drqSvDo2qibtbA7LDRcc73zrLVhmQyaHABoLEdTzxOcejw%2BX2MjSgiAeM18UoOjl440LkcDFGqJ6AVMsAwmKkiBeueVtt2KZkYgj5L6KXhcKcj3%2B2U%2FHtCWSnMQwDVVH8MFHEolVZ0tbrdLrjS%2BmKGmM52AOyZVb3nYbllE1rpSi2BlePE989tMEzbGio2XkkWjFCoWWHYi6RCtimYoiProISNHttYyXWnTsW952GwwMNUEseoug4CWm98TnP110rpzgPD4JBA0IhtTUCSk7Uk28CoL6YbtIUCQTWq5DyAwXlJvfcguJJThcrPSCqp6AV8%2Fjn%2F1UQbJY%2F6FIv5yklXkopZs88OkHjGBFJLzo9WwBnLpi13EgYAQJmHh8UaFec%2F7gD38fX%2FUmz1PPfhfTvGJ0yeq4N9SRSAsJDofD%2BZS3%2FNxbSWmRuhQ%2FCCSSQhB8Fmilw00ZsbFi%2BjEfsbCf%2BY3P4F2OJwYBGVgPU48VPQuJZdEgSEjQEEkspjif8I43v5OUlMSl5INAKgmEcmWs5gkqUXoFKaR2kf4nP%2FtreOcx8bHczmMa80hZBwHUBLUkSoWQ4EKC%2BoS3%2FtLbSaVFqi3CwJOU6Vc8KVzPpah%2FZwSJ677eZXzq85%2FAu6ySrEHL9IeySwqixrRLMisupLzrl29FMiURFyW1F1KX0lvp02q1sWBFZymHxFDUv5Frzqc%2B%2F2tF%2B4eiw5VcKKwC%2B%2FY9Gru5xQp1roXP43JQXCss2Ihh5JWV3ZwnSwZFhULQnE%2F9%2B0%2FgNa8aoIRaLNjb33wzGhxqsXCzOkvoG%2BYDnc4MK8t9EpcSvNFut8mzvGrfag2z0Hu8egaaxd4jHq%2BeJz73yUKyBsqdz5HcUdy%2F%2Fc3vLNKPQ8CsmyX046kQ3U6XleUVEpeMuBnHRfRy%2FPSFXDa8ejIdjKT%2F%2BGc%2FWTVweexw5GZM%2F%2BZfuQX1CYm1SCxFvYNcILeR9KP0ieNdqKkndX0vaM7ArZBrhqkV5f80QQuVpSJXJJMGx9t%2F%2BR24ov7TkJLmbVxQBAg%2B4Io48oX4ZwQy5AFl%2FbseXnOCFOl%2F%2FvGh2iSGPLbvUbNgReQUqSpVRGPPq0V7sSI00Kg0CVWi9QcPZU45BAyHgbJHaaXAVoJ1KC0YP%2BTEquG3cvcRK%2FSOeq8qFb9Rm1pMTwulXYv8aFWJdTKMmElsODyYFUOQyEgvtlKylO%2BLnj5cjSiGYXNRv8HVlPcyPWrpT0aldBP94Ib1DUECXkMh2cqb65Irllertoiki%2BpMKNZyQ838tHrqWAZLKfW6YZmpCBYqpd9IqsqtP8GYEPTCKsU5ziggBj9LigawQmIM7x%2F9eZSMo0fxWo2I47Cx8lmUKEY1m1GLOowV%2BS6lSqnJyohZoz4bHpJ4vIzrva7CgROHeRWtqTW1WWVZtnoZyolDQVipflPP%2F5o1USNWqUNq1F0ZKulB6ukXZS7KW5JZKIfdmmQtD1LQ0bZZjZJW8VnOHOCq9JOCWGVJkiBRuS6yVxWgfH45Da3LEVuVVHnfONuHca7KqDGhIEkptssxPb4z6lyrz3yqJ5baqsShsiZHV03XVs1mjaEppP7sclq1ygwy%2BswqSpdJYRMa3ik21DFLyb3mk3AAAAXbSURBVFHO0qo7iy%2FHJ6xlGiXxxstQfSKlBjP0vavqkdoMsMx6rRxlvoZSLaoYsTbqo8do2nVIUd%2FxGZNGGRtpw6T8ouBjFVhMigeU08xyt4%2BZVbVSHTZUy0T9PEGzAMWkoNxNbeX0baLkqFW0SFQoywO6a41pDHNdf716WBv9BBk29iRJIcKEDFGlYyM3SD271SdWf1ccUaJWO1ilRpbYneNsd1i%2BoXSxotdOMnxWtq56IctcWa0Gqu%2BGbBsREzLs2iNfTkiz1PdGbhypr9HOk0Q%2BekSI27l8zWGwjC5TEqmWqqgQSl3NQhVjajQzCmYEo3JdFgwLAaliUq0emOrlKskabU5F2qukZNlzR2tm1bPGfjZaf6ulbi0TNboy7HTFz%2Bqpl%2FeZgJdILBcEZzUDZAjViKCF3hjlsEdFoy6IROGiRRilSQSr8jPW5KVwt7KuynvHmaMTPhutkbGutDoTozkZeZeU7sxmhiuOOSsfKzYMgIbVRLwKeT6MoZW2WgwGA1qtVjRd%2BOJcvorpJSmi7cg5LWakoy1dFaTuVaFRguW5H%2B3ypwIZq5yT%2Fu7UE5Cxv%2BMIGMGBC56Zfk7bFyaLmp41nAxEaiEegqEkBG3Rcx3i%2BonVTucYzeFaOa1UlVU3jH2w1npQfTg%2FQ1SBSESE3qAXz61Rx%2B7du2klKf2sz75H9rF7zx4efeRR9uyNf999x14%2Bvu%2Fj7N2zl3379vGe99wZjZjAvkf28e479uLU8dDDD3PXe%2B7ioYceJITAnr17ePjhj%2BFUV8XdqprWCvGqwk%2F8xE%2BQZRntdvssinkqWEdyncavIEp0JOBlwGxvmc%2FdcSebsj5BM9Baq5XKr0rUZywHMzJvHKPLy%2F%2FJmxhoa5UudPY41d55dkjqM4ayoXOfIyLc%2F%2BAD7N2zhyRNMYzde3dXPxSEPXv2xKxaVNI%2Fvu%2BRke8feOBBxCDPM%2B64404effTRmGjioj5Vx4TyisSQjiJR0k0LgoFoPKZFs2W2kbGVFcz6KFG%2F0uJI4iwfkA9yBKMlUcUYeCPpOBLzG0Cs84dKURr3larP8nq9Hvse2Qcw%2FLtvHyJSEcYskCYpt%2B%2B%2BHQuxR959991keYYRK2337tvjvWE4iyxjcK2FMn6CS1yMkzUFl0scSaK0U0c3VQZLx8gXj5AvHWawsJ%2FsxH76x56jf%2Bw5%2FOIh0nyZdr5C1%2Ffp5H22poob9Ipj8aYXI1p4mqbVUJWkaRVtxqny7jvejVPHnr17EI0RaMphEMAHT5Znlc%2BPU8cjjzxCmqR0Wh0%2B9vDHCCGeG9hut4e2lXV2VIsoIXja7TaqjiRJcS65%2BK%2FE4ZyLFm9RpDuDzcxCdxbpzCGd2Xh1Z5HuHFnSIUu7LEubvuuy6B3amY9Sa2QmMV0YIVe%2F368Uc5%2Fn3Hnne6rlCB88Dz%2F0cJRCwUjKyivg1LF3794Rh7Nbb3sXuc%2Brrf4PP%2FwxtIi%2FFaP1rV9rIXjy3FeRBcuZ6cV%2BBe%2Fx3hM89CXlaGuWA%2B3NHG5t5WhnO8c62zne3c6x7nb2J5vZn2xhf%2FsKnu%2Fu5ODsVexPd3JY5ulLQhmffhoh%2B%2FZ93OpD0yoFu5DM6jTGKs2y%2BN1JvFSDD8VwltDrrYycz6duyOlVulcNufe0WilZlpMkjuAv%2FoquGymVnLbPmMsy2j5D8agUBunSXqqKiWOQe8TiZMDh6GvKYrtLX9OxcEq1tE4i0U5thrxxSEZsGRNmbiWCD1XjlsRajxjls3yekybD4fa0MudcsaCqWLgQEZ1PH8MsKmIJXpWlNGUlsYmtHU2%2FCq3aMxCCCJkVFu%2B1ErO1CXYx1FQCVKHTTzVD65HqssfQsgkoXpTgShKtVcOT7GsGpzAkno0H7EbjvIUKH4krf5mQc7hmd%2FI7V6P0UImvpxEXVRz6BuOYTlKVaIKlN9gwNJJrFdZaXzxdKXJ5DP3r4TIl13oEqpNotQvP6T3v8ibYpU%2Bu9daj634zNk6g05VUdYKV0%2B%2BzINclcPrG%2Fwf6x%2Bl7FFg%2F5wAAAABJRU5ErkJggg%3D%3D%3BfontSize%3D30%3B%22%20vertex%3D%221%22%20parent%3D%221%22%3E%3CmxGeometry%20x%3D%22100%22%20y%3D%22380%22%20width%3D%22151%22%20height%3D%22177%22%20as%3D%22geometry%22%2F%3E%3C%2FmxCell%3E%3CmxCell%20id%3D%224%22%20value%3D%22%22%20style%3D%22shape%3Dimage%3BverticalLabelPosition%3Dbottom%3BlabelBackgroundColor%3Ddefault%3BverticalAlign%3Dtop%3Baspect%3Dfixed%3BimageAspect%3D0%3Bimage%3Ddata%3Aimage%2Fpng%2CiVBORw0KGgoAAAANSUhEUgAAAJcAAACxCAYAAADJai9SAAAgAElEQVR4nO2dabBl11Xff2vtc%2B7whp7UgyzLtoQtLMuTEOABUoFAhVQllQAphxSBADHGgyxL6m5LFrJly%2FKgyVJbxrZkYjtJURAIRYWQSlVSJCm%2BpJiM8YAnbMBCY8%2FDm%2B695%2By98mGfc%2B659933enzdfbvPv%2Bv0u8O5Z0%2F%2Fvfbaa6%2B9trzxDfuMBmtATvKdAIYQEHqILID0ATBaBJsHayMIwgD0BEIfMIw2FjbHv8XzZCRNi5%2Bvl4WLHElm117oPEwplLTVJR%2F0cDbA6QHQ50AOkKQJy705Arsw20FiKSqHEZ5BkkOAYWEHZteQhx0EEQxBTSqKQUEvm96%2BnwQ2X%2Bg8TCmE%2FsAhGE6XQI%2FxoY%2FcQrt7hKXlZTS5mjt%2B9bdwyQxhAKpH%2BfBHb0PdfsAIYRd33fk7iG4ihHlcMo%2FlHiySK%2F4ppNeUQm56%2Ff%2Be5vxfOAikacpg8Pe0Wt%2Fi%2Fgd%2BAZ9%2Fi3s%2FeDudziy37r6PtPu93PWej7J5Zob73r8blee59%2F27AeGDH3yULN%2FBPff8BoPsBmDXyMONimdTS7AECRc6D1MKYzAYoOLBMiws0Jk5SpC%2FJWeGzsxx1OWkSUYIT6PueVxYRMkBRWWFdnqIRPcTeCk%2BBJBIqEisQoJhFcmmDcn09osLCxVBUJTNaP%2BlfOA9n%2BH%2Bj7%2BKjz36NoIIfrDIXXsep203YNmXCZkn0TbiZwGH%2Bi6IogZqSjAHYoARKoKVqU1nGyUXOgPTCrNAlg3opkAA8wEJRshzAooYzM3PcfTwgNnZNuoSCFn56%2BKS2gWTp4bCtJJLRwt4sV2ni41%2B%2FhAGpGmLwALS%2Bls%2BfP87ENvMR%2B%2F9be7%2FwH8Bv4Vf%2FcAv4Ob%2Bnn5YJGhK0AxzS5g7QXDLBIWAI6hhanEIRBATxBQ1h5hDLIEpvJK1K3k6e8uIgrIuf86ufAJk2YBWCqZKFlokYQdZ70qwBPPbWeoFBrmjo1fh%2FS5EMrw4BE%2BgjQ%2B7yG0XnjYmpSQbWrzMQEQYfjNdkJve8Idr1HIpui9eSJG9kk9ioxJpfSPkycsn62rSBnhEeogcR%2FVJPnL%2FT%2BP0edQgD7u4657fJ%2Fe7aLs2vZXv8tDHfhbnno%2Fk8lfyvvf%2BN3y4BrN5LLRimsVMcViuaaRVxKVNrpNKrlMh13qS3RNn2wZyEE2%2BhdNDOIwQriALr8CH7ZCDuiNI8k3UHUYJmN%2BOD6%2FCbOfwkWE0P9M6SywxtQq9AUHja7FRCmx8o5QJOAwFDLMdWD6HJ0cIGA4fUpIkQVKH2XZCuIkQsoLTKcjMyNOmnUzjmFpywaQ5VrFKV%2Bgpcelko1qsNnwB0AE2EwkXMMtQGRBCwELAB0ea7IzfG0BAyAC%2FQfm78JhacglxRBpO1I1QDHVihUhD1%2Fj12aK%2BqBwXrsEglB96pLBZmQkiQpooZoO4iF2JKD981iWI6SWXgdZ0LhNFArTbGT58FzMjhCsx5s552pMnCoYUZClXPeKQGfU2M6tkXTUbvGRpFbFRXfu8wIrlkiAKkqJ0sOwQneSPePD%2BH0XlwPBeO%2F1lrmopZuwaJZZgaLzE4kWkWkmlWM3lJdV9lzqmVnJZOR5KDtJHxePE4%2FgmD9z%2FTwnyBVSfJvidhc%2BUIzZ59YRTS%2BgkJBgSyGr2KFnj6UZdXl1i%2BvsqTC25AAKGhWVEnqXVOobjEHOz38DpMqpzJO67eLsKYxcWuiCuYEOoOeadzJY16VNZ83sbe16kWdTJ6sOgXPLUmvJhEYR2usRHP%2FSTpO5%2Fcf8Db%2BRDH%2FlHdLp%2FT5Ic4MMf%2BRVUn8fCUvULGxvSTndp6CSWsZFLRkg4vC59WkVMteQSA7FnmZ%2F5Pzz80HWY%2FjaSLGH0cG4zps%2BBPIfKi4uZXPXLU1pSWZtIZ6YvXQ7Sqo6pJVepCil9nOyn2zlKbh5vM2T5NowXEcIVBGaBBFWHWV3nOd8NfXkRC6aUXGYBROM6nHUx%2FwKWFq4nDzvxNofhyP1LuPue%2F0sIr8bYAmYoHswKI2tpJmiwUZhKcolEVTGu7m1h4L%2BPe%2B95gjxcjbd5ALx9Bx9uwGwnJg6EaNDkctJ6LiymcuHaIBolxSEs4vRpTHKCbcXoRDsmaZRqpFhBRi2HxcLIKWO7bcZTOVsj5%2BVO4UTXNS5evOQCCD7HJXPAy%2FC5EegCaaGPeVRyCoMFMNTTAlGljwve66ntDbnOBkl7mhchVCF4EEhFMXKGC8GljXy10XKo0k9tyacCyWY31F%2BmEyPONqwuyST5cbnLlPODZFM%2BAKaZXA0uViS79NL1J2pwYZHsyBcvdB4aXKJIrnRHLnQeGlyiSDbLkxc6Dw0uUSTOvn2h89DgEkWSa0OuBhuDZO7K%2FELnocElimSpvbzqQ5viaHYNLh4kh7tXjHxgZg25GpwTJEd3%2FdCqxRCRZnmkwdlDtl79xpGVa5W4iVO0IViDs0Oy7SX%2F6mS7pxo0OCMkz%2B0vN8MP0cisBucCic%2BXYgxOiUMiSCHJGoo1ODsk3STFa20%2Fn5VboBpyNTg7JDt3XI2X%2BmbRhlgNzg2S%2Fc88s4pc5e6aBg3OBgkhBx0q9CIaNy%2BINt6pDc4KiWcBz3C3u6IxNGcZ%2B4pmI0ODM0PygmtnMDdKn%2BGWq3pgxoZgDU4PgvvHkTV1i7yNhTuLAUbPf%2B4aTDWSmRe%2FroqgB8VccURyWWPBb3BGSMRmRz4oyRXRsKrBmSNZFULR4l5lqX3aUKzBmSBGuZnAniYSTIOzRWMtbbBhaMjVYMOgrBNCSUUKT4kGDU4fCuufy3WpHXbU4PwhsWCIi29EC0ll8QBZH8LY2UzFLLLZwNHgFKDC8OiSbqfLwtISrXaL61%2F5aqxupS8w6VWDBpMg3avvM1PBJQkWhtvKTMZ3AZVn2ICM6GnNuNlgMqrZoorQ6XToZwM6nQ7Xfs%2FLUNHCt2vMgbBR8hucArSUVKrKsRPHmZuZ5UUvuZZvfP1rjJ64VcZuL32iG4%2FVButDfQioKEmSsmlujsXlJQ4dPMBMp0uwUOhjjmjMF0Tia8FddseNNDg9RFOEKNu27yRNW3Q7bY4eOUTAE2xAsBwzBVpEkilCAqQ0kqvBetAQPHPzm9i560q8z%2Bl2W6QtELdCLofJ5QhelvHSw%2Bsypn2s8lttyNVgbWi7leKznL%2F%2Bxte5%2FpWvZPuuK8g5QSb7Sef2c%2FdH%2Fx15%2Bjy5O4B3B%2FDuCEFXMHyNZA0arIbOdDfx4mtfyqtecyNZlvHia3bRmTtBOvMsN9%2Fxz1jMv8L89sOE1pO42f38wtv%2BOV5OYNKvznJu0GASZMs1j5k5w8gRzXnl9%2B%2FkB36kzdYXLLD%2F2LeYnd9Cv7%2BNT%2B77LG%2B7%2BRY68gI%2B%2BdH%2FTpLvRK2N2FSeTdXgPEC9F%2FLMM8gG%2BOD56lf%2BDNMj9PKn2bKthWeBwCF%2B6W0%2FxezmjMceei9In%2FJo3QYN1oJ67%2FEhEMxYXDhBCIEnHv80Pk%2BwfCvk21hayNi29QpOHFvEdTcj1kJIkMZjp8E6UCMDAirCzOwcS0sZt73rPkL%2FSh689zfZ1H4VV17xGh578D8y17qau%2B58AAkziLVYyx2sMa82AFCTHiYx6K6qY%2Bv81Zw4uJ1H7%2FkDZOWVPPS%2B3%2BPIU9uwpWv4%2BId%2Fl4NPCRo2IdaO3hNjGF%2BNbHD5QtovfL%2Bpa2NA4sC1Agsrh5iZadPrB%2FLlJbpbZ1g5fghUmdv0AnxvLpJrZK928cBTSLTR1C4PJCoJGKgKZoGQC91kG74f0ACd2U2EQaDVnUWAvO9QhEnEgnL7%2F%2FoQGoJdDkhEFFFBpDj%2BsogEJwgqIKarhzqDScQqcSoEq2M9T9gG0ws1GT3LudyvGP0hpNh9Xdsse4otvt5tpxois9HZphtJdAi0Yp%2BixAg3Barh6wxFyOn8bJxIjdSafjSGqgYbhotm7aaRVJceLrjkOlXdrMH04aKQXA2JLk1ccMnV4NJFQ64GG4aGXA02DA25GmwYGnI12DBcFLPFBiWk9nf6w7M35DofkLVpEh0B6jvYy8HEiJ4n00uwZO3l4WbZ%2BJygRqyhg0CIDprSAwwJbQSHiYElCB3EHNO%2BT0FlVbCRoZNyE3T3DFEc1GVjxDKBIJ6gGUGPkydP8o69P4l3h%2FB6FK%2F7CXoIyLgUOrdaPEZq4tXgzDBR1ohhMiDoIrkc4Mpr4Pa734TOPEUmT5K758j1Od5x278l0FvrKVOFZrZ4HmAoRiDIMsEd4M4P%2Fgw%2F9fM3kCXfJJl%2Fhnff%2BzPMbDnI7Xf%2BPDPzOUafade3oFHozwPGVA3p4%2FUArn0kSjHr4VrCW299ExKO859%2F83%2BAbsFCXvP6nU5U8bkabCQESBDrQmjz2KOP0Ol0SGSewYrw3HNPYnICdAHTRUxXMMliLI4p1k5UmiiB5wHxwBuxFLUZ3vKWvfQWujyx7%2FfYPPMKXvaS1%2FO5x3%2BHkHf52X%2FzZrLFlQud4XOCRufacBgQMELc9GIzJP5qHnvgD%2Bgf%2Fx7uf%2B%2Fvc%2Fjpqzjx%2FFXs%2B8h%2FxfkX0e5eVexq16keFmXmmgemOPsXKUZMEMSZYvHOZIWgx4AcrIvgiMp7DpIh1kLDFah1iQdQTG%2FzNAr9RqDYW1cSa%2FghBXm2Fq8T4uAR94CaeMQUzGH4aVa3gIZcG4b6xt9R2ZOgFuPLVuEQpJBQ1SGq9V9NL8Uacm04BKm27jHy%2F2jwvHhf3JA8%2FGya0ZDrvOBU415PN5nG0cwWG2wYGsm1gYjnKk36Zlyfmn79ahIacm0UDJByOLSRL4ZUspFv5bRDuFycKM%2FobMi1gVgdKqowR4xJqtH3kWDTRrFJh7425NoQFPIqDGeDVoQIWk22ujuzFLQqwlhN0dKcqhLCaFitRqE%2FTyhtqeMumTL2r37vxY7Xv%2FGHJ34uEjtGI7k2BJPZIWue6Tw9EmocZoaIVOd0BjMww6k25Dp%2FmF4CrYU%2F%2FeP%2FV72ujlYUwRfDYzMsNjgrmAV%2B4PVvJBQSrCSWSHNKwXmArXGd7L6LG8NDYB0LJ04A4JIEHzxmgVa73ZDr%2FGAyccodQrn5uHVxSogFhWQSodVq8fyzzwDwspdfT%2BIScu85dORQo3NtLEY9HErlN0IQc5FOwRcKymp718WASTasYFYNhYsLUXIlLiHLM9IkJXGuIddGQWqSKh7nHGdQYPiQ0z94mB3Xvpa03eHAwSeZ6XRYWVkqfh0YJdj4MtH5RTBbRTCnSj8b0KbNq2%2B8iVarxRf%2B9I9pp63iDm2GxY2AjJFARXAqpEnK8uJxtmyexW3pcPjo39BfeYbULbGyfBDImUSg0bOULgzBfAjVBXFYnOnO4POcLM8QEW563Ru47vobmN%2B0ubFzbQRWO%2FtRbDEWfB6YnZ2jt3yYdus47ZkBh499lfnuNmCWYFsI1qnWGFc7HNbfnd8hs7RlmQVEHOocZoGbfvD1HD9%2BnC9%2B4U%2Fp9%2FskLiFttWh3Og25NgqVU6CVw2PAOUd%2FsETijvOBD%2F4iu65e4kP33cNTf%2Fs087OvYKXXihszin0ZZlKEWrh4sGnTFl50zTVs2bKFEydOsLC4wN%2F89TcJIaDqAMizjGwwaMh17lHIG9PCbRkgQ%2FAsLC7SaS%2BDPEN39jv08y9y9z2vo3%2F8Ot5%2F9%2B%2FhbHOc4lu529qBDBe37QIq%2BiqCN2Nh4QRf%2B8qX8CFw3ctfwaH9%2BwnFeZ0qUlnotbFznVtobSYYhzWHmIvnJ1kgLB%2BhlfawcJBu%2BxCbNx2g3XqSrZuWOXrwOzhbwVmOWkBtOCGIW9OseuqFglNldnaW3Hte94Yf4tD%2B%2FfRWloFh2bUwUUBjoT8pJu1Ir1dg%2FTOIw1j83qGkqJSn6sLOK7cRsqO0kwEtzegvncB5T76ywK6tsyRhGRdWSILhTIikyovzMIexIy4EvUQElzjMjBtv%2BgH%2B4s%2F%2BhOWlxVWeEHU0w%2BKakGLLhAcZUJ6oC4JJCoCRF%2Fe1EWlh1cJ0JIKKQyTj6Ilnme0uIOEQW644zsrykywvP8W2OYflfforTzE39xyDpEO%2Ff5jcd8FmcNIm0AbawAwwD7QvyHwxyzPIYTDI%2BPpXv0LiTk6dZlPsBKgIZoJKm36%2ByJZtRm9wkEG%2BGDex2iyCkLZyujObOXYIWm4LZg4sEKyPmKLWRuQEL3ppn7e%2F80cY5H%2FJ1S8MWHaUQe9Zup0T%2BHwZCW3UZslWOsx1r6TXS3n%2Fvfvo5Zt54KH%2FwOLyPO%2B%2B8xPk%2FhqMrSNxv04Na9nJzs5%2BVulYa6CRXBMQLOo3wTKQPsu9IywuPUl7roj6EOYxlOPLxzHdgclWkDkwx1Ar8sCAYAus9A%2By3PsbZuefJdgyaiukuoAfLKCyTJIcQ8xYGhyjteXFGAnve%2B%2BP4%2B2F3HXHT%2BJa12F%2BB8JVU7I4FNGQaw0EyxBdQdwC77tvL0EOMDOfoRogdAkhpd%2FPcGzmnjsfI9gymItKvAgqHgtLiCyxZfMcV%2B26iv7Kk7zn1scYnIBff%2BKn0GSZbHCIMMhptzpsms1ROU4rbbFj%2ByzPPHecjz18H8eXtnPb7s8ibm39Zn2sRcmzo%2Bp6Ugsacq0BQxREAqpw1217kZk%2BaasfN7JaG6GNz5V8JWVu9iVY7kZsnKE0HIQEP%2BiQ9TaT2NU8%2BuB9SLZA3j%2BM5gOc65A4CB5mZlKCJQxy8GGGTVuvIdgW%2BoMZct8hPQU952JCo3OtQrnInCNqqHoGfom4NAPgwFoIaSGpUlrJLCFE%2FUMsDoeCoeaAHt4fwIen2brlCHtv%2F9dc8%2BLNpG6JEI5joYcPOUIAyTGEQEqweRYX57j3g59jpbeLdvdlLC3PE5g7A53rwqAh1yqU5ArRfimGD77YZp8ASfHXFbEeBKcOM49JjooH86gIEhwicGLxIC9%2F2Qs4fPjr9FaeopUuEfwimI%2BkwjDLQXy0aokjhJQtW6%2Fi%2FR%2F4BFm%2Bk5vfcRebtryQQDI1jjkNuSbCavat6NUApao%2BGoYSGFmiid9Y1foqCa1kNlrdbQXnBsASvd4CSkoIQAhYkYYhqEtBPWgPwyGyFWQGVAkWbW%2FT0GjTNYifN8jYu9KBJlrLI2pOf1b%2BRtEi7LqoIBLvX%2Bot01vps2luM8t9odPu4tIrCF7jc8WKHT%2BCGYhLUedx7R553gfr4pI2uR%2BA%2BakgFjTkWhP1HS0iOvR2WNM8Xi5SR1U%2Brt4Y4NHEMTOv5CwgqTEofLt6PkMQVLV6tCEM6EEISM8Xi8FGnvXj0LuhpT63uKiWf0LwvObGmwjBF451FxrjTXkSH3gprvIeMZAQg%2BfKoLgyTAIeH00LzhMkI0iGl4wgg%2Fgej6EE0%2Bp500QsuIgk1%2FgaXn238ah78HnLEaP%2BU7aO1BrDSXa1mgXMQHXSAwvHekpdzgp70rRR6yIiF8TK%2FMqXvoiqI%2Fe%2B9vmF9CWvSaFTvv8sk5v44cXhT386uBjGnhGplfscp8prbryp8Hw0QvATvRM2GuW29Kic62lflzvOj%2BQa73RjPCklkxVOZi5JUFVarZTllRXSJD0v2Vwbq%2BPVnBLW3L5%2FeeAMu9eonWe920prcqB2wJvUbhif9ovS7%2Ff5wp%2F%2FCQCv%2Fb7vP7MsnjMUBaiOITuNa0LYkVO7Lg0kscmVMizsyTH0hRy63Q7jBJh4gg2K71NMAiY9YpD%2FBLEEtTS6rlBUp%2BjQUFk44okIWZbT7c6cy%2FKeJs6FW%2FHpSrzxtKaXbIrkRG9nN8GFdjzATxXkh1GHW0M0XkafoEfx7ihBe%2BSyyK5rlJvv%2FJe05o7h9ThBBiBWkCgKz8r4WNiIvvf6V%2FLa7%2FtB%2FurLX8JpEVr7vGLUZflMLpEz0dWkprPJWF6mC8WwOGmqO0qkcbEtUnutoBL3EqgzAivc9u5foT27iHdP89TBP0Jmv8O%2F%2BLnX4Ft%2FR3AHMV3GxFdpgVQEa3e6OJcQQuC6l9%2FADa9%2B7QWq3rMd2s4k15NIPZ1QLMFKX%2B1qaaNOrElYv9AGmC5z850%2FDfpF3nnXj5O3%2F4Lujq9x2%2Ft%2BjN3vexOSHiFYr3rO7Nw8S8uLzMzOcv0Nr0JU%2BMZffYVvfu2rfO0rXzpX5T2POFPJV%2F%2FtdEOj8BqVXOsTK6JuGrBg%2BBDIvSf3HlHl0X33gzvEO9%2F7iwzsOQ4f%2Fzbz23J6%2BfP0s4O4ZAASEFHMjBe%2B6MX8g3%2F447zqNTei6vi773y7Mp5OU%2FjGUVz2Cr1VyvW5XGAQAiID2m3HwomcmfZOsuU5Unbwucf%2FE4sLW%2BmqREVfhG9%2F8%2Bu02m1eet3L%2BeqX%2F7LaXbPe7pIGFzdUhEKBjP7fUHk0rXFF1G1TokLiHK00pZ2mBO%2FZvftX6S3M8IkHfofvuerHYPlafv3j%2F5PZ9Hu59V33keh8sTtGKuX1hle%2Flq9%2F9cs41QnS6tLq1ZcD1FtWBJioH5lucRNmoaRPuqh9H9e%2FPCHEK1FB%2FSZ%2B6zNfID94I0vPvpbPfeiP0cUbefCe3%2BXgsynKZoIJZjGQxQ%2B%2B4Yf5yz%2F%2FM4oNuzU3ltrsq%2Fk3Xf%2B6137AIB4caWOHdk%2BKyzQuPaxmHhUVgvUwPQ448NuAlCDLiOQgcZu74CDE3chmCig%2B2CpPiNXSa%2FoWby9nJOYywBeKdaC%2BUL92U8rYHYUbnVmhpM%2FEe1wOBKRmIEUMCz6aLEJeWbLTVPF%2BqF%2FJSfbENbj4kbj2YvVGCvfZSpk%2BzcYtKTeUeP34vngXzI%2FcJ0ZlRC3jOZ3NzHB6Z5WXJhJrP1%2B9GZdHZ9pUa1FS6q4rFsfl4Zf1ycQazz1dsp8l2S6EJ8alhES7B4qXp1%2BRa1V%2BvVFHG7jwqLRyve70Gv98y6VGDp4dEmk9z1quuyfruSer%2FMkKef3M1NNrvkaSTBcSzwGGO1pGIRPdcE8dozrbuK3s9C3SYY18rgU9S4e90lPjXD3vdNMbx7Sln4guRCv4hDYelxOTTRMTflDcVt5e%2BoDHqCihimUVquFx%2BPz1JhGnq0KdrZwbT2%2Bj5eapVu9pPXPsR%2Bv5L57r9BNCFr25QqFg1%2FchWMxdac80fJU5Kw2oJZGseG%2BrM1FNFIp7rLipPmsEkCAkJiO%2FqQol0aZWVY6cRWMLIz8u7MBFBMDxxeNCTxRAQi0vxbe18p9xdsrymxTpS5Wn8vADEyuO1WOkDerdc2IepPhchvW4Ot2yDmL6Mla5a%2BXBJjyrjkStDQE0OMQrqaZY7hkGijVQIWggqCeojw6AGlb1AitdTccaXsr%2FpCBYKV3LxweNBtUBpJqixEZWkcoJNGggkMc84DENiEKI2RumP5JoLZ3xyi0JVpIqJNhASLQ9lr4V5fXkZFX5kUDQkzduqJNYh%2B%2BFIt8j5RdSaaEVyWP6se5zgsujM6YGgkAoGliKtEuSjAwg5WfRfj1CyPI3ZfrOu8gDU1LXJuS%2BIlRQH7e%2BqSeoFR09drqSvDo2qibtbA7LDRcc73zrLVhmQyaHABoLEdTzxOcejw%2BX2MjSgiAeM18UoOjl440LkcDFGqJ6AVMsAwmKkiBeueVtt2KZkYgj5L6KXhcKcj3%2B2U%2FHtCWSnMQwDVVH8MFHEolVZ0tbrdLrjS%2BmKGmM52AOyZVb3nYbllE1rpSi2BlePE989tMEzbGio2XkkWjFCoWWHYi6RCtimYoiProISNHttYyXWnTsW952GwwMNUEseoug4CWm98TnP110rpzgPD4JBA0IhtTUCSk7Uk28CoL6YbtIUCQTWq5DyAwXlJvfcguJJThcrPSCqp6AV8%2Fjn%2F1UQbJY%2F6FIv5yklXkopZs88OkHjGBFJLzo9WwBnLpi13EgYAQJmHh8UaFec%2F7gD38fX%2FUmz1PPfhfTvGJ0yeq4N9SRSAsJDofD%2BZS3%2FNxbSWmRuhQ%2FCCSSQhB8Fmilw00ZsbFi%2BjEfsbCf%2BY3P4F2OJwYBGVgPU48VPQuJZdEgSEjQEEkspjif8I43v5OUlMSl5INAKgmEcmWs5gkqUXoFKaR2kf4nP%2FtreOcx8bHczmMa80hZBwHUBLUkSoWQ4EKC%2BoS3%2FtLbSaVFqi3CwJOU6Vc8KVzPpah%2FZwSJ677eZXzq85%2FAu6ySrEHL9IeySwqixrRLMisupLzrl29FMiURFyW1F1KX0lvp02q1sWBFZymHxFDUv5Frzqc%2B%2F2tF%2B4eiw5VcKKwC%2B%2FY9Gru5xQp1roXP43JQXCss2Ihh5JWV3ZwnSwZFhULQnE%2F9%2B0%2FgNa8aoIRaLNjb33wzGhxqsXCzOkvoG%2BYDnc4MK8t9EpcSvNFut8mzvGrfag2z0Hu8egaaxd4jHq%2BeJz73yUKyBsqdz5HcUdy%2F%2Fc3vLNKPQ8CsmyX046kQ3U6XleUVEpeMuBnHRfRy%2FPSFXDa8ejIdjKT%2F%2BGc%2FWTVweexw5GZM%2F%2BZfuQX1CYm1SCxFvYNcILeR9KP0ieNdqKkndX0vaM7ArZBrhqkV5f80QQuVpSJXJJMGx9t%2F%2BR24ov7TkJLmbVxQBAg%2B4Io48oX4ZwQy5AFl%2FbseXnOCFOl%2F%2FvGh2iSGPLbvUbNgReQUqSpVRGPPq0V7sSI00Kg0CVWi9QcPZU45BAyHgbJHaaXAVoJ1KC0YP%2BTEquG3cvcRK%2FSOeq8qFb9Rm1pMTwulXYv8aFWJdTKMmElsODyYFUOQyEgvtlKylO%2BLnj5cjSiGYXNRv8HVlPcyPWrpT0aldBP94Ib1DUECXkMh2cqb65Irllertoiki%2BpMKNZyQ838tHrqWAZLKfW6YZmpCBYqpd9IqsqtP8GYEPTCKsU5ziggBj9LigawQmIM7x%2F9eZSMo0fxWo2I47Cx8lmUKEY1m1GLOowV%2BS6lSqnJyohZoz4bHpJ4vIzrva7CgROHeRWtqTW1WWVZtnoZyolDQVipflPP%2F5o1USNWqUNq1F0ZKulB6ukXZS7KW5JZKIfdmmQtD1LQ0bZZjZJW8VnOHOCq9JOCWGVJkiBRuS6yVxWgfH45Da3LEVuVVHnfONuHca7KqDGhIEkptssxPb4z6lyrz3yqJ5baqsShsiZHV03XVs1mjaEppP7sclq1ygwy%2BswqSpdJYRMa3ik21DFLyb3mk3AAAAXbSURBVFHO0qo7iy%2FHJ6xlGiXxxstQfSKlBjP0vavqkdoMsMx6rRxlvoZSLaoYsTbqo8do2nVIUd%2FxGZNGGRtpw6T8ouBjFVhMigeU08xyt4%2BZVbVSHTZUy0T9PEGzAMWkoNxNbeX0baLkqFW0SFQoywO6a41pDHNdf716WBv9BBk29iRJIcKEDFGlYyM3SD271SdWf1ccUaJWO1ilRpbYneNsd1i%2BoXSxotdOMnxWtq56IctcWa0Gqu%2BGbBsREzLs2iNfTkiz1PdGbhypr9HOk0Q%2BekSI27l8zWGwjC5TEqmWqqgQSl3NQhVjajQzCmYEo3JdFgwLAaliUq0emOrlKskabU5F2qukZNlzR2tm1bPGfjZaf6ulbi0TNboy7HTFz%2Bqpl%2FeZgJdILBcEZzUDZAjViKCF3hjlsEdFoy6IROGiRRilSQSr8jPW5KVwt7KuynvHmaMTPhutkbGutDoTozkZeZeU7sxmhiuOOSsfKzYMgIbVRLwKeT6MoZW2WgwGA1qtVjRd%2BOJcvorpJSmi7cg5LWakoy1dFaTuVaFRguW5H%2B3ypwIZq5yT%2Fu7UE5Cxv%2BMIGMGBC56Zfk7bFyaLmp41nAxEaiEegqEkBG3Rcx3i%2BonVTucYzeFaOa1UlVU3jH2w1npQfTg%2FQ1SBSESE3qAXz61Rx%2B7du2klKf2sz75H9rF7zx4efeRR9uyNf999x14%2Bvu%2Fj7N2zl3379vGe99wZjZjAvkf28e479uLU8dDDD3PXe%2B7ioYceJITAnr17ePjhj%2BFUV8XdqprWCvGqwk%2F8xE%2BQZRntdvssinkqWEdyncavIEp0JOBlwGxvmc%2FdcSebsj5BM9Baq5XKr0rUZywHMzJvHKPLy%2F%2FJmxhoa5UudPY41d55dkjqM4ayoXOfIyLc%2F%2BAD7N2zhyRNMYzde3dXPxSEPXv2xKxaVNI%2Fvu%2BRke8feOBBxCDPM%2B64404effTRmGjioj5Vx4TyisSQjiJR0k0LgoFoPKZFs2W2kbGVFcz6KFG%2F0uJI4iwfkA9yBKMlUcUYeCPpOBLzG0Cs84dKURr3larP8nq9Hvse2Qcw%2FLtvHyJSEcYskCYpt%2B%2B%2BHQuxR959991keYYRK2337tvjvWE4iyxjcK2FMn6CS1yMkzUFl0scSaK0U0c3VQZLx8gXj5AvHWawsJ%2FsxH76x56jf%2Bw5%2FOIh0nyZdr5C1%2Ffp5H22poob9Ipj8aYXI1p4mqbVUJWkaRVtxqny7jvejVPHnr17EI0RaMphEMAHT5Znlc%2BPU8cjjzxCmqR0Wh0%2B9vDHCCGeG9hut4e2lXV2VIsoIXja7TaqjiRJcS65%2BK%2FE4ZyLFm9RpDuDzcxCdxbpzCGd2Xh1Z5HuHFnSIUu7LEubvuuy6B3amY9Sa2QmMV0YIVe%2F368Uc5%2Fn3Hnne6rlCB88Dz%2F0cJRCwUjKyivg1LF3794Rh7Nbb3sXuc%2Brrf4PP%2FwxtIi%2FFaP1rV9rIXjy3FeRBcuZ6cV%2BBe%2Fx3hM89CXlaGuWA%2B3NHG5t5WhnO8c62zne3c6x7nb2J5vZn2xhf%2FsKnu%2Fu5ODsVexPd3JY5ulLQhmffhoh%2B%2FZ93OpD0yoFu5DM6jTGKs2y%2BN1JvFSDD8VwltDrrYycz6duyOlVulcNufe0WilZlpMkjuAv%2FoquGymVnLbPmMsy2j5D8agUBunSXqqKiWOQe8TiZMDh6GvKYrtLX9OxcEq1tE4i0U5thrxxSEZsGRNmbiWCD1XjlsRajxjls3yekybD4fa0MudcsaCqWLgQEZ1PH8MsKmIJXpWlNGUlsYmtHU2%2FCq3aMxCCCJkVFu%2B1ErO1CXYx1FQCVKHTTzVD65HqssfQsgkoXpTgShKtVcOT7GsGpzAkno0H7EbjvIUKH4krf5mQc7hmd%2FI7V6P0UImvpxEXVRz6BuOYTlKVaIKlN9gwNJJrFdZaXzxdKXJ5DP3r4TIl13oEqpNotQvP6T3v8ibYpU%2Bu9daj634zNk6g05VUdYKV0%2B%2BzINclcPrG%2Fwf6x%2Bl7FFg%2F5wAAAABJRU5ErkJggg%3D%3D%3BfontSize%3D30%3B%22%20vertex%3D%221%22%20parent%3D%221%22%3E%3CmxGeometry%20x%3D%22110%22%20y%3D%22390%22%20width%3D%22151%22%20height%3D%22177%22%20as%3D%22geometry%22%2F%3E%3C%2FmxCell%3E%3CmxCell%20id%3D%225%22%20value%3D%22%22%20style%3D%22shape%3Dimage%3BverticalLabelPosition%3Dbottom%3BlabelBackgroundColor%3Ddefault%3BverticalAlign%3Dtop%3Baspect%3Dfixed%3BimageAspect%3D0%3Bimage%3Ddata%3Aimage%2Fpng%2CiVBORw0KGgoAAAANSUhEUgAAAJcAAACxCAYAAADJai9SAAAgAElEQVR4nO2dabBl11Xff2vtc%2B7whp7UgyzLtoQtLMuTEOABUoFAhVQllQAphxSBADHGgyxL6m5LFrJly%2FKgyVJbxrZkYjtJURAIRYWQSlVSJCm%2BpJiM8YAnbMBCY8%2FDm%2B695%2By98mGfc%2B659933enzdfbvPv%2Bv0u8O5Z0%2F%2Fvfbaa6%2B9trzxDfuMBmtATvKdAIYQEHqILID0ATBaBJsHayMIwgD0BEIfMIw2FjbHv8XzZCRNi5%2Bvl4WLHElm117oPEwplLTVJR%2F0cDbA6QHQ50AOkKQJy705Arsw20FiKSqHEZ5BkkOAYWEHZteQhx0EEQxBTSqKQUEvm96%2BnwQ2X%2Bg8TCmE%2FsAhGE6XQI%2FxoY%2FcQrt7hKXlZTS5mjt%2B9bdwyQxhAKpH%2BfBHb0PdfsAIYRd33fk7iG4ihHlcMo%2FlHiySK%2F4ppNeUQm56%2Ff%2Be5vxfOAikacpg8Pe0Wt%2Fi%2Fgd%2BAZ9%2Fi3s%2FeDudziy37r6PtPu93PWej7J5Zob73r8blee59%2F27AeGDH3yULN%2FBPff8BoPsBmDXyMONimdTS7AECRc6D1MKYzAYoOLBMiws0Jk5SpC%2FJWeGzsxx1OWkSUYIT6PueVxYRMkBRWWFdnqIRPcTeCk%2BBJBIqEisQoJhFcmmDcn09osLCxVBUJTNaP%2BlfOA9n%2BH%2Bj7%2BKjz36NoIIfrDIXXsep203YNmXCZkn0TbiZwGH%2Bi6IogZqSjAHYoARKoKVqU1nGyUXOgPTCrNAlg3opkAA8wEJRshzAooYzM3PcfTwgNnZNuoSCFn56%2BKS2gWTp4bCtJJLRwt4sV2ni41%2B%2FhAGpGmLwALS%2Bls%2BfP87ENvMR%2B%2F9be7%2FwH8Bv4Vf%2FcAv4Ob%2Bnn5YJGhK0AxzS5g7QXDLBIWAI6hhanEIRBATxBQ1h5hDLIEpvJK1K3k6e8uIgrIuf86ufAJk2YBWCqZKFlokYQdZ70qwBPPbWeoFBrmjo1fh%2FS5EMrw4BE%2BgjQ%2B7yG0XnjYmpSQbWrzMQEQYfjNdkJve8Idr1HIpui9eSJG9kk9ioxJpfSPkycsn62rSBnhEeogcR%2FVJPnL%2FT%2BP0edQgD7u4657fJ%2Fe7aLs2vZXv8tDHfhbnno%2Fk8lfyvvf%2BN3y4BrN5LLRimsVMcViuaaRVxKVNrpNKrlMh13qS3RNn2wZyEE2%2BhdNDOIwQriALr8CH7ZCDuiNI8k3UHUYJmN%2BOD6%2FCbOfwkWE0P9M6SywxtQq9AUHja7FRCmx8o5QJOAwFDLMdWD6HJ0cIGA4fUpIkQVKH2XZCuIkQsoLTKcjMyNOmnUzjmFpywaQ5VrFKV%2Bgpcelko1qsNnwB0AE2EwkXMMtQGRBCwELAB0ea7IzfG0BAyAC%2FQfm78JhacglxRBpO1I1QDHVihUhD1%2Fj12aK%2BqBwXrsEglB96pLBZmQkiQpooZoO4iF2JKD981iWI6SWXgdZ0LhNFArTbGT58FzMjhCsx5s552pMnCoYUZClXPeKQGfU2M6tkXTUbvGRpFbFRXfu8wIrlkiAKkqJ0sOwQneSPePD%2BH0XlwPBeO%2F1lrmopZuwaJZZgaLzE4kWkWkmlWM3lJdV9lzqmVnJZOR5KDtJHxePE4%2FgmD9z%2FTwnyBVSfJvidhc%2BUIzZ59YRTS%2BgkJBgSyGr2KFnj6UZdXl1i%2BvsqTC25AAKGhWVEnqXVOobjEHOz38DpMqpzJO67eLsKYxcWuiCuYEOoOeadzJY16VNZ83sbe16kWdTJ6sOgXPLUmvJhEYR2usRHP%2FSTpO5%2Fcf8Db%2BRDH%2FlHdLp%2FT5Ic4MMf%2BRVUn8fCUvULGxvSTndp6CSWsZFLRkg4vC59WkVMteQSA7FnmZ%2F5Pzz80HWY%2FjaSLGH0cG4zps%2BBPIfKi4uZXPXLU1pSWZtIZ6YvXQ7Sqo6pJVepCil9nOyn2zlKbh5vM2T5NowXEcIVBGaBBFWHWV3nOd8NfXkRC6aUXGYBROM6nHUx%2FwKWFq4nDzvxNofhyP1LuPue%2F0sIr8bYAmYoHswKI2tpJmiwUZhKcolEVTGu7m1h4L%2BPe%2B95gjxcjbd5ALx9Bx9uwGwnJg6EaNDkctJ6LiymcuHaIBolxSEs4vRpTHKCbcXoRDsmaZRqpFhBRi2HxcLIKWO7bcZTOVsj5%2BVO4UTXNS5evOQCCD7HJXPAy%2FC5EegCaaGPeVRyCoMFMNTTAlGljwve66ntDbnOBkl7mhchVCF4EEhFMXKGC8GljXy10XKo0k9tyacCyWY31F%2BmEyPONqwuyST5cbnLlPODZFM%2BAKaZXA0uViS79NL1J2pwYZHsyBcvdB4aXKJIrnRHLnQeGlyiSDbLkxc6Dw0uUSTOvn2h89DgEkWSa0OuBhuDZO7K%2FELnocElimSpvbzqQ5viaHYNLh4kh7tXjHxgZg25GpwTJEd3%2FdCqxRCRZnmkwdlDtl79xpGVa5W4iVO0IViDs0Oy7SX%2F6mS7pxo0OCMkz%2B0vN8MP0cisBucCic%2BXYgxOiUMiSCHJGoo1ODsk3STFa20%2Fn5VboBpyNTg7JDt3XI2X%2BmbRhlgNzg2S%2Fc88s4pc5e6aBg3OBgkhBx0q9CIaNy%2BINt6pDc4KiWcBz3C3u6IxNGcZ%2B4pmI0ODM0PygmtnMDdKn%2BGWq3pgxoZgDU4PgvvHkTV1i7yNhTuLAUbPf%2B4aTDWSmRe%2FroqgB8VccURyWWPBb3BGSMRmRz4oyRXRsKrBmSNZFULR4l5lqX3aUKzBmSBGuZnAniYSTIOzRWMtbbBhaMjVYMOgrBNCSUUKT4kGDU4fCuufy3WpHXbU4PwhsWCIi29EC0ll8QBZH8LY2UzFLLLZwNHgFKDC8OiSbqfLwtISrXaL61%2F5aqxupS8w6VWDBpMg3avvM1PBJQkWhtvKTMZ3AZVn2ICM6GnNuNlgMqrZoorQ6XToZwM6nQ7Xfs%2FLUNHCt2vMgbBR8hucArSUVKrKsRPHmZuZ5UUvuZZvfP1rjJ64VcZuL32iG4%2FVButDfQioKEmSsmlujsXlJQ4dPMBMp0uwUOhjjmjMF0Tia8FddseNNDg9RFOEKNu27yRNW3Q7bY4eOUTAE2xAsBwzBVpEkilCAqQ0kqvBetAQPHPzm9i560q8z%2Bl2W6QtELdCLofJ5QhelvHSw%2Bsypn2s8lttyNVgbWi7leKznL%2F%2Bxte5%2FpWvZPuuK8g5QSb7Sef2c%2FdH%2Fx15%2Bjy5O4B3B%2FDuCEFXMHyNZA0arIbOdDfx4mtfyqtecyNZlvHia3bRmTtBOvMsN9%2Fxz1jMv8L89sOE1pO42f38wtv%2BOV5OYNKvznJu0GASZMs1j5k5w8gRzXnl9%2B%2FkB36kzdYXLLD%2F2LeYnd9Cv7%2BNT%2B77LG%2B7%2BRY68gI%2B%2BdH%2FTpLvRK2N2FSeTdXgPEC9F%2FLMM8gG%2BOD56lf%2BDNMj9PKn2bKthWeBwCF%2B6W0%2FxezmjMceei9In%2FJo3QYN1oJ67%2FEhEMxYXDhBCIEnHv80Pk%2BwfCvk21hayNi29QpOHFvEdTcj1kJIkMZjp8E6UCMDAirCzOwcS0sZt73rPkL%2FSh689zfZ1H4VV17xGh578D8y17qau%2B58AAkziLVYyx2sMa82AFCTHiYx6K6qY%2Bv81Zw4uJ1H7%2FkDZOWVPPS%2B3%2BPIU9uwpWv4%2BId%2Fl4NPCRo2IdaO3hNjGF%2BNbHD5QtovfL%2Bpa2NA4sC1Agsrh5iZadPrB%2FLlJbpbZ1g5fghUmdv0AnxvLpJrZK928cBTSLTR1C4PJCoJGKgKZoGQC91kG74f0ACd2U2EQaDVnUWAvO9QhEnEgnL7%2F%2FoQGoJdDkhEFFFBpDj%2BsogEJwgqIKarhzqDScQqcSoEq2M9T9gG0ws1GT3LudyvGP0hpNh9Xdsse4otvt5tpxois9HZphtJdAi0Yp%2BixAg3Barh6wxFyOn8bJxIjdSafjSGqgYbhotm7aaRVJceLrjkOlXdrMH04aKQXA2JLk1ccMnV4NJFQ64GG4aGXA02DA25GmwYGnI12DBcFLPFBiWk9nf6w7M35DofkLVpEh0B6jvYy8HEiJ4n00uwZO3l4WbZ%2BJygRqyhg0CIDprSAwwJbQSHiYElCB3EHNO%2BT0FlVbCRoZNyE3T3DFEc1GVjxDKBIJ6gGUGPkydP8o69P4l3h%2FB6FK%2F7CXoIyLgUOrdaPEZq4tXgzDBR1ohhMiDoIrkc4Mpr4Pa734TOPEUmT5K758j1Od5x278l0FvrKVOFZrZ4HmAoRiDIMsEd4M4P%2Fgw%2F9fM3kCXfJJl%2Fhnff%2BzPMbDnI7Xf%2BPDPzOUafade3oFHozwPGVA3p4%2FUArn0kSjHr4VrCW299ExKO859%2F83%2BAbsFCXvP6nU5U8bkabCQESBDrQmjz2KOP0Ol0SGSewYrw3HNPYnICdAHTRUxXMMliLI4p1k5UmiiB5wHxwBuxFLUZ3vKWvfQWujyx7%2FfYPPMKXvaS1%2FO5x3%2BHkHf52X%2FzZrLFlQud4XOCRufacBgQMELc9GIzJP5qHnvgD%2Bgf%2Fx7uf%2B%2Fvc%2Fjpqzjx%2FFXs%2B8h%2FxfkX0e5eVexq16keFmXmmgemOPsXKUZMEMSZYvHOZIWgx4AcrIvgiMp7DpIh1kLDFah1iQdQTG%2FzNAr9RqDYW1cSa%2FghBXm2Fq8T4uAR94CaeMQUzGH4aVa3gIZcG4b6xt9R2ZOgFuPLVuEQpJBQ1SGq9V9NL8Uacm04BKm27jHy%2F2jwvHhf3JA8%2FGya0ZDrvOBU415PN5nG0cwWG2wYGsm1gYjnKk36Zlyfmn79ahIacm0UDJByOLSRL4ZUspFv5bRDuFycKM%2FobMi1gVgdKqowR4xJqtH3kWDTRrFJh7425NoQFPIqDGeDVoQIWk22ujuzFLQqwlhN0dKcqhLCaFitRqE%2FTyhtqeMumTL2r37vxY7Xv%2FGHJ34uEjtGI7k2BJPZIWue6Tw9EmocZoaIVOd0BjMww6k25Dp%2FmF4CrYU%2F%2FeP%2FV72ujlYUwRfDYzMsNjgrmAV%2B4PVvJBQSrCSWSHNKwXmArXGd7L6LG8NDYB0LJ04A4JIEHzxmgVa73ZDr%2FGAyccodQrn5uHVxSogFhWQSodVq8fyzzwDwspdfT%2BIScu85dORQo3NtLEY9HErlN0IQc5FOwRcKymp718WASTasYFYNhYsLUXIlLiHLM9IkJXGuIddGQWqSKh7nHGdQYPiQ0z94mB3Xvpa03eHAwSeZ6XRYWVkqfh0YJdj4MtH5RTBbRTCnSj8b0KbNq2%2B8iVarxRf%2B9I9pp63iDm2GxY2AjJFARXAqpEnK8uJxtmyexW3pcPjo39BfeYbULbGyfBDImUSg0bOULgzBfAjVBXFYnOnO4POcLM8QEW563Ru47vobmN%2B0ubFzbQRWO%2FtRbDEWfB6YnZ2jt3yYdus47ZkBh499lfnuNmCWYFsI1qnWGFc7HNbfnd8hs7RlmQVEHOocZoGbfvD1HD9%2BnC9%2B4U%2Fp9%2FskLiFttWh3Og25NgqVU6CVw2PAOUd%2FsETijvOBD%2F4iu65e4kP33cNTf%2Fs087OvYKXXihszin0ZZlKEWrh4sGnTFl50zTVs2bKFEydOsLC4wN%2F89TcJIaDqAMizjGwwaMh17lHIG9PCbRkgQ%2FAsLC7SaS%2BDPEN39jv08y9y9z2vo3%2F8Ot5%2F9%2B%2FhbHOc4lu529qBDBe37QIq%2BiqCN2Nh4QRf%2B8qX8CFw3ctfwaH9%2BwnFeZ0qUlnotbFznVtobSYYhzWHmIvnJ1kgLB%2BhlfawcJBu%2BxCbNx2g3XqSrZuWOXrwOzhbwVmOWkBtOCGIW9OseuqFglNldnaW3Hte94Yf4tD%2B%2FfRWloFh2bUwUUBjoT8pJu1Ir1dg%2FTOIw1j83qGkqJSn6sLOK7cRsqO0kwEtzegvncB5T76ywK6tsyRhGRdWSILhTIikyovzMIexIy4EvUQElzjMjBtv%2BgH%2B4s%2F%2BhOWlxVWeEHU0w%2BKakGLLhAcZUJ6oC4JJCoCRF%2Fe1EWlh1cJ0JIKKQyTj6Ilnme0uIOEQW644zsrykywvP8W2OYflfforTzE39xyDpEO%2Ff5jcd8FmcNIm0AbawAwwD7QvyHwxyzPIYTDI%2BPpXv0LiTk6dZlPsBKgIZoJKm36%2ByJZtRm9wkEG%2BGDex2iyCkLZyujObOXYIWm4LZg4sEKyPmKLWRuQEL3ppn7e%2F80cY5H%2FJ1S8MWHaUQe9Zup0T%2BHwZCW3UZslWOsx1r6TXS3n%2Fvfvo5Zt54KH%2FwOLyPO%2B%2B8xPk%2FhqMrSNxv04Na9nJzs5%2BVulYa6CRXBMQLOo3wTKQPsu9IywuPUl7roj6EOYxlOPLxzHdgclWkDkwx1Ar8sCAYAus9A%2By3PsbZuefJdgyaiukuoAfLKCyTJIcQ8xYGhyjteXFGAnve%2B%2BP4%2B2F3HXHT%2BJa12F%2BB8JVU7I4FNGQaw0EyxBdQdwC77tvL0EOMDOfoRogdAkhpd%2FPcGzmnjsfI9gymItKvAgqHgtLiCyxZfMcV%2B26iv7Kk7zn1scYnIBff%2BKn0GSZbHCIMMhptzpsms1ROU4rbbFj%2ByzPPHecjz18H8eXtnPb7s8ibm39Zn2sRcmzo%2Bp6Ugsacq0BQxREAqpw1217kZk%2BaasfN7JaG6GNz5V8JWVu9iVY7kZsnKE0HIQEP%2BiQ9TaT2NU8%2BuB9SLZA3j%2BM5gOc65A4CB5mZlKCJQxy8GGGTVuvIdgW%2BoMZct8hPQU952JCo3OtQrnInCNqqHoGfom4NAPgwFoIaSGpUlrJLCFE%2FUMsDoeCoeaAHt4fwIen2brlCHtv%2F9dc8%2BLNpG6JEI5joYcPOUIAyTGEQEqweRYX57j3g59jpbeLdvdlLC3PE5g7A53rwqAh1yqU5ArRfimGD77YZp8ASfHXFbEeBKcOM49JjooH86gIEhwicGLxIC9%2F2Qs4fPjr9FaeopUuEfwimI%2BkwjDLQXy0aokjhJQtW6%2Fi%2FR%2F4BFm%2Bk5vfcRebtryQQDI1jjkNuSbCavat6NUApao%2BGoYSGFmiid9Y1foqCa1kNlrdbQXnBsASvd4CSkoIQAhYkYYhqEtBPWgPwyGyFWQGVAkWbW%2FT0GjTNYifN8jYu9KBJlrLI2pOf1b%2BRtEi7LqoIBLvX%2Bot01vps2luM8t9odPu4tIrCF7jc8WKHT%2BCGYhLUedx7R553gfr4pI2uR%2BA%2BakgFjTkWhP1HS0iOvR2WNM8Xi5SR1U%2Brt4Y4NHEMTOv5CwgqTEofLt6PkMQVLV6tCEM6EEISM8Xi8FGnvXj0LuhpT63uKiWf0LwvObGmwjBF451FxrjTXkSH3gprvIeMZAQg%2BfKoLgyTAIeH00LzhMkI0iGl4wgg%2Fgej6EE0%2Bp500QsuIgk1%2FgaXn238ah78HnLEaP%2BU7aO1BrDSXa1mgXMQHXSAwvHekpdzgp70rRR6yIiF8TK%2FMqXvoiqI%2Fe%2B9vmF9CWvSaFTvv8sk5v44cXhT386uBjGnhGplfscp8prbryp8Hw0QvATvRM2GuW29Kic62lflzvOj%2BQa73RjPCklkxVOZi5JUFVarZTllRXSJD0v2Vwbq%2BPVnBLW3L5%2FeeAMu9eonWe920prcqB2wJvUbhif9ovS7%2Ff5wp%2F%2FCQCv%2Fb7vP7MsnjMUBaiOITuNa0LYkVO7Lg0kscmVMizsyTH0hRy63Q7jBJh4gg2K71NMAiY9YpD%2FBLEEtTS6rlBUp%2BjQUFk44okIWZbT7c6cy%2FKeJs6FW%2FHpSrzxtKaXbIrkRG9nN8GFdjzATxXkh1GHW0M0XkafoEfx7ihBe%2BSyyK5rlJvv%2FJe05o7h9ThBBiBWkCgKz8r4WNiIvvf6V%2FLa7%2FtB%2FurLX8JpEVr7vGLUZflMLpEz0dWkprPJWF6mC8WwOGmqO0qkcbEtUnutoBL3EqgzAivc9u5foT27iHdP89TBP0Jmv8O%2F%2BLnX4Ft%2FR3AHMV3GxFdpgVQEa3e6OJcQQuC6l9%2FADa9%2B7QWq3rMd2s4k15NIPZ1QLMFKX%2B1qaaNOrElYv9AGmC5z850%2FDfpF3nnXj5O3%2F4Lujq9x2%2Ft%2BjN3vexOSHiFYr3rO7Nw8S8uLzMzOcv0Nr0JU%2BMZffYVvfu2rfO0rXzpX5T2POFPJV%2F%2FtdEOj8BqVXOsTK6JuGrBg%2BBDIvSf3HlHl0X33gzvEO9%2F7iwzsOQ4f%2Fzbz23J6%2BfP0s4O4ZAASEFHMjBe%2B6MX8g3%2F447zqNTei6vi773y7Mp5OU%2FjGUVz2Cr1VyvW5XGAQAiID2m3HwomcmfZOsuU5Unbwucf%2FE4sLW%2BmqREVfhG9%2F8%2Bu02m1eet3L%2BeqX%2F7LaXbPe7pIGFzdUhEKBjP7fUHk0rXFF1G1TokLiHK00pZ2mBO%2FZvftX6S3M8IkHfofvuerHYPlafv3j%2F5PZ9Hu59V33keh8sTtGKuX1hle%2Flq9%2F9cs41QnS6tLq1ZcD1FtWBJioH5lucRNmoaRPuqh9H9e%2FPCHEK1FB%2FSZ%2B6zNfID94I0vPvpbPfeiP0cUbefCe3%2BXgsynKZoIJZjGQxQ%2B%2B4Yf5yz%2F%2FM4oNuzU3ltrsq%2Fk3Xf%2B6137AIB4caWOHdk%2BKyzQuPaxmHhUVgvUwPQ448NuAlCDLiOQgcZu74CDE3chmCig%2B2CpPiNXSa%2FoWby9nJOYywBeKdaC%2BUL92U8rYHYUbnVmhpM%2FEe1wOBKRmIEUMCz6aLEJeWbLTVPF%2BqF%2FJSfbENbj4kbj2YvVGCvfZSpk%2BzcYtKTeUeP34vngXzI%2FcJ0ZlRC3jOZ3NzHB6Z5WXJhJrP1%2B9GZdHZ9pUa1FS6q4rFsfl4Zf1ycQazz1dsp8l2S6EJ8alhES7B4qXp1%2BRa1V%2BvVFHG7jwqLRyve70Gv98y6VGDp4dEmk9z1quuyfruSer%2FMkKef3M1NNrvkaSTBcSzwGGO1pGIRPdcE8dozrbuK3s9C3SYY18rgU9S4e90lPjXD3vdNMbx7Sln4guRCv4hDYelxOTTRMTflDcVt5e%2BoDHqCihimUVquFx%2BPz1JhGnq0KdrZwbT2%2Bj5eapVu9pPXPsR%2Bv5L57r9BNCFr25QqFg1%2FchWMxdac80fJU5Kw2oJZGseG%2BrM1FNFIp7rLipPmsEkCAkJiO%2FqQol0aZWVY6cRWMLIz8u7MBFBMDxxeNCTxRAQi0vxbe18p9xdsrymxTpS5Wn8vADEyuO1WOkDerdc2IepPhchvW4Ot2yDmL6Mla5a%2BXBJjyrjkStDQE0OMQrqaZY7hkGijVQIWggqCeojw6AGlb1AitdTccaXsr%2FpCBYKV3LxweNBtUBpJqixEZWkcoJNGggkMc84DENiEKI2RumP5JoLZ3xyi0JVpIqJNhASLQ9lr4V5fXkZFX5kUDQkzduqJNYh%2B%2BFIt8j5RdSaaEVyWP6se5zgsujM6YGgkAoGliKtEuSjAwg5WfRfj1CyPI3ZfrOu8gDU1LXJuS%2BIlRQH7e%2BqSeoFR09drqSvDo2qibtbA7LDRcc73zrLVhmQyaHABoLEdTzxOcejw%2BX2MjSgiAeM18UoOjl440LkcDFGqJ6AVMsAwmKkiBeueVtt2KZkYgj5L6KXhcKcj3%2B2U%2FHtCWSnMQwDVVH8MFHEolVZ0tbrdLrjS%2BmKGmM52AOyZVb3nYbllE1rpSi2BlePE989tMEzbGio2XkkWjFCoWWHYi6RCtimYoiProISNHttYyXWnTsW952GwwMNUEseoug4CWm98TnP110rpzgPD4JBA0IhtTUCSk7Uk28CoL6YbtIUCQTWq5DyAwXlJvfcguJJThcrPSCqp6AV8%2Fjn%2F1UQbJY%2F6FIv5yklXkopZs88OkHjGBFJLzo9WwBnLpi13EgYAQJmHh8UaFec%2F7gD38fX%2FUmz1PPfhfTvGJ0yeq4N9SRSAsJDofD%2BZS3%2FNxbSWmRuhQ%2FCCSSQhB8Fmilw00ZsbFi%2BjEfsbCf%2BY3P4F2OJwYBGVgPU48VPQuJZdEgSEjQEEkspjif8I43v5OUlMSl5INAKgmEcmWs5gkqUXoFKaR2kf4nP%2FtreOcx8bHczmMa80hZBwHUBLUkSoWQ4EKC%2BoS3%2FtLbSaVFqi3CwJOU6Vc8KVzPpah%2FZwSJ677eZXzq85%2FAu6ySrEHL9IeySwqixrRLMisupLzrl29FMiURFyW1F1KX0lvp02q1sWBFZymHxFDUv5Frzqc%2B%2F2tF%2B4eiw5VcKKwC%2B%2FY9Gru5xQp1roXP43JQXCss2Ihh5JWV3ZwnSwZFhULQnE%2F9%2B0%2FgNa8aoIRaLNjb33wzGhxqsXCzOkvoG%2BYDnc4MK8t9EpcSvNFut8mzvGrfag2z0Hu8egaaxd4jHq%2BeJz73yUKyBsqdz5HcUdy%2F%2Fc3vLNKPQ8CsmyX046kQ3U6XleUVEpeMuBnHRfRy%2FPSFXDa8ejIdjKT%2F%2BGc%2FWTVweexw5GZM%2F%2BZfuQX1CYm1SCxFvYNcILeR9KP0ieNdqKkndX0vaM7ArZBrhqkV5f80QQuVpSJXJJMGx9t%2F%2BR24ov7TkJLmbVxQBAg%2B4Io48oX4ZwQy5AFl%2FbseXnOCFOl%2F%2FvGh2iSGPLbvUbNgReQUqSpVRGPPq0V7sSI00Kg0CVWi9QcPZU45BAyHgbJHaaXAVoJ1KC0YP%2BTEquG3cvcRK%2FSOeq8qFb9Rm1pMTwulXYv8aFWJdTKMmElsODyYFUOQyEgvtlKylO%2BLnj5cjSiGYXNRv8HVlPcyPWrpT0aldBP94Ib1DUECXkMh2cqb65Irllertoiki%2BpMKNZyQ838tHrqWAZLKfW6YZmpCBYqpd9IqsqtP8GYEPTCKsU5ziggBj9LigawQmIM7x%2F9eZSMo0fxWo2I47Cx8lmUKEY1m1GLOowV%2BS6lSqnJyohZoz4bHpJ4vIzrva7CgROHeRWtqTW1WWVZtnoZyolDQVipflPP%2F5o1USNWqUNq1F0ZKulB6ukXZS7KW5JZKIfdmmQtD1LQ0bZZjZJW8VnOHOCq9JOCWGVJkiBRuS6yVxWgfH45Da3LEVuVVHnfONuHca7KqDGhIEkptssxPb4z6lyrz3yqJ5baqsShsiZHV03XVs1mjaEppP7sclq1ygwy%2BswqSpdJYRMa3ik21DFLyb3mk3AAAAXbSURBVFHO0qo7iy%2FHJ6xlGiXxxstQfSKlBjP0vavqkdoMsMx6rRxlvoZSLaoYsTbqo8do2nVIUd%2FxGZNGGRtpw6T8ouBjFVhMigeU08xyt4%2BZVbVSHTZUy0T9PEGzAMWkoNxNbeX0baLkqFW0SFQoywO6a41pDHNdf716WBv9BBk29iRJIcKEDFGlYyM3SD271SdWf1ccUaJWO1ilRpbYneNsd1i%2BoXSxotdOMnxWtq56IctcWa0Gqu%2BGbBsREzLs2iNfTkiz1PdGbhypr9HOk0Q%2BekSI27l8zWGwjC5TEqmWqqgQSl3NQhVjajQzCmYEo3JdFgwLAaliUq0emOrlKskabU5F2qukZNlzR2tm1bPGfjZaf6ulbi0TNboy7HTFz%2Bqpl%2FeZgJdILBcEZzUDZAjViKCF3hjlsEdFoy6IROGiRRilSQSr8jPW5KVwt7KuynvHmaMTPhutkbGutDoTozkZeZeU7sxmhiuOOSsfKzYMgIbVRLwKeT6MoZW2WgwGA1qtVjRd%2BOJcvorpJSmi7cg5LWakoy1dFaTuVaFRguW5H%2B3ypwIZq5yT%2Fu7UE5Cxv%2BMIGMGBC56Zfk7bFyaLmp41nAxEaiEegqEkBG3Rcx3i%2BonVTucYzeFaOa1UlVU3jH2w1npQfTg%2FQ1SBSESE3qAXz61Rx%2B7du2klKf2sz75H9rF7zx4efeRR9uyNf999x14%2Bvu%2Fj7N2zl3379vGe99wZjZjAvkf28e479uLU8dDDD3PXe%2B7ioYceJITAnr17ePjhj%2BFUV8XdqprWCvGqwk%2F8xE%2BQZRntdvssinkqWEdyncavIEp0JOBlwGxvmc%2FdcSebsj5BM9Baq5XKr0rUZywHMzJvHKPLy%2F%2FJmxhoa5UudPY41d55dkjqM4ayoXOfIyLc%2F%2BAD7N2zhyRNMYzde3dXPxSEPXv2xKxaVNI%2Fvu%2BRke8feOBBxCDPM%2B64404effTRmGjioj5Vx4TyisSQjiJR0k0LgoFoPKZFs2W2kbGVFcz6KFG%2F0uJI4iwfkA9yBKMlUcUYeCPpOBLzG0Cs84dKURr3larP8nq9Hvse2Qcw%2FLtvHyJSEcYskCYpt%2B%2B%2BHQuxR959991keYYRK2337tvjvWE4iyxjcK2FMn6CS1yMkzUFl0scSaK0U0c3VQZLx8gXj5AvHWawsJ%2FsxH76x56jf%2Bw5%2FOIh0nyZdr5C1%2Ffp5H22poob9Ipj8aYXI1p4mqbVUJWkaRVtxqny7jvejVPHnr17EI0RaMphEMAHT5Znlc%2BPU8cjjzxCmqR0Wh0%2B9vDHCCGeG9hut4e2lXV2VIsoIXja7TaqjiRJcS65%2BK%2FE4ZyLFm9RpDuDzcxCdxbpzCGd2Xh1Z5HuHFnSIUu7LEubvuuy6B3amY9Sa2QmMV0YIVe%2F368Uc5%2Fn3Hnne6rlCB88Dz%2F0cJRCwUjKyivg1LF3794Rh7Nbb3sXuc%2Brrf4PP%2FwxtIi%2FFaP1rV9rIXjy3FeRBcuZ6cV%2BBe%2Fx3hM89CXlaGuWA%2B3NHG5t5WhnO8c62zne3c6x7nb2J5vZn2xhf%2FsKnu%2Fu5ODsVexPd3JY5ulLQhmffhoh%2B%2FZ93OpD0yoFu5DM6jTGKs2y%2BN1JvFSDD8VwltDrrYycz6duyOlVulcNufe0WilZlpMkjuAv%2FoquGymVnLbPmMsy2j5D8agUBunSXqqKiWOQe8TiZMDh6GvKYrtLX9OxcEq1tE4i0U5thrxxSEZsGRNmbiWCD1XjlsRajxjls3yekybD4fa0MudcsaCqWLgQEZ1PH8MsKmIJXpWlNGUlsYmtHU2%2FCq3aMxCCCJkVFu%2B1ErO1CXYx1FQCVKHTTzVD65HqssfQsgkoXpTgShKtVcOT7GsGpzAkno0H7EbjvIUKH4krf5mQc7hmd%2FI7V6P0UImvpxEXVRz6BuOYTlKVaIKlN9gwNJJrFdZaXzxdKXJ5DP3r4TIl13oEqpNotQvP6T3v8ibYpU%2Bu9daj634zNk6g05VUdYKV0%2B%2BzINclcPrG%2Fwf6x%2Bl7FFg%2F5wAAAABJRU5ErkJggg%3D%3D%3BfontSize%3D30%3B%22%20vertex%3D%221%22%20parent%3D%221%22%3E%3CmxGeometry%20x%3D%22120%22%20y%3D%22400%22%20width%3D%22151%22%20height%3D%22177%22%20as%3D%22geometry%22%2F%3E%3C%2FmxCell%3E%3C%2Froot%3E%3C%2FmxGraphModel%3E&lt;/span&gt;" style="rounded=1;whiteSpace=wrap;html=1;" parent="1" vertex="1">
          <mxGeometry x="485" y="390" width="120" height="60" as="geometry" />
        </mxCell>
        <mxCell id="fMq1iWLXI49MHX_Gh6SI-24" style="edgeStyle=orthogonalEdgeStyle;rounded=1;orthogonalLoop=1;jettySize=auto;html=1;exitX=0.25;exitY=1;exitDx=0;exitDy=0;fontSize=30;entryX=0.086;entryY=0.549;entryDx=0;entryDy=0;entryPerimeter=0;" parent="1" source="Si9AKmO1rTwMyrS4tQQ6-25" target="2Xh3GLrlYR4H0rZl-e0W-64" edge="1">
          <mxGeometry relative="1" as="geometry">
            <mxPoint x="745" y="1110" as="targetPoint" />
          </mxGeometry>
        </mxCell>
        <mxCell id="fMq1iWLXI49MHX_Gh6SI-72" style="rounded=1;orthogonalLoop=1;jettySize=auto;html=1;exitX=1;exitY=0.5;exitDx=0;exitDy=0;fontSize=30;startArrow=none;startFill=0;endArrow=classic;endFill=1;entryX=0;entryY=0.563;entryDx=0;entryDy=0;entryPerimeter=0;" parent="1" source="Si9AKmO1rTwMyrS4tQQ6-25" target="Si9AKmO1rTwMyrS4tQQ6-21" edge="1">
          <mxGeometry relative="1" as="geometry" />
        </mxCell>
        <mxCell id="Si9AKmO1rTwMyrS4tQQ6-25" value="Environment" style="rounded=1;whiteSpace=wrap;html=1;shadow=1;strokeColor=none;fillColor=#dae8fc;fontSize=30;" parent="1" vertex="1">
          <mxGeometry x="767.5" y="842.5" width="245" height="113" as="geometry" />
        </mxCell>
        <mxCell id="Si9AKmO1rTwMyrS4tQQ6-28" value="env" style="rounded=0;whiteSpace=wrap;html=1;shadow=1;strokeColor=none;fillColor=#dae8fc;fontSize=17;" parent="1" vertex="1">
          <mxGeometry x="280" y="475" width="120" height="55" as="geometry" />
        </mxCell>
        <mxCell id="2Xh3GLrlYR4H0rZl-e0W-80" style="edgeStyle=orthogonalEdgeStyle;rounded=1;orthogonalLoop=1;jettySize=auto;html=1;exitX=0;exitY=0.5;exitDx=0;exitDy=0;entryX=1;entryY=0.75;entryDx=0;entryDy=0;fontSize=30;" parent="1" source="Si9AKmO1rTwMyrS4tQQ6-44" target="2Xh3GLrlYR4H0rZl-e0W-66" edge="1">
          <mxGeometry relative="1" as="geometry" />
        </mxCell>
        <mxCell id="fMq1iWLXI49MHX_Gh6SI-39" style="edgeStyle=orthogonalEdgeStyle;rounded=1;orthogonalLoop=1;jettySize=auto;html=1;exitX=0.5;exitY=1;exitDx=0;exitDy=0;fontSize=30;dashed=1;fillColor=#d80073;strokeColor=#A50040;strokeWidth=2;" parent="1" source="Si9AKmO1rTwMyrS4tQQ6-44" target="Si9AKmO1rTwMyrS4tQQ6-57" edge="1">
          <mxGeometry relative="1" as="geometry" />
        </mxCell>
        <mxCell id="Si9AKmO1rTwMyrS4tQQ6-44" value="Feature Distance: d&lt;sub style=&quot;font-size: 30px;&quot;&gt;s&lt;/sub&gt;" style="rounded=1;whiteSpace=wrap;html=1;fontSize=30;fillColor=#d5e8d4;strokeColor=none;shadow=1;" parent="1" vertex="1">
          <mxGeometry x="1757" y="1129" width="320" height="68" as="geometry" />
        </mxCell>
        <mxCell id="Si9AKmO1rTwMyrS4tQQ6-54" value="extrinsic reward" style="rounded=1;whiteSpace=wrap;html=1;fontSize=30;fillColor=#d80073;fontColor=#ffffff;strokeColor=none;shadow=1;" parent="1" vertex="1">
          <mxGeometry x="1390" y="2330" width="238" height="60" as="geometry" />
        </mxCell>
        <mxCell id="fMq1iWLXI49MHX_Gh6SI-68" style="edgeStyle=none;rounded=1;orthogonalLoop=1;jettySize=auto;html=1;exitX=0;exitY=0.5;exitDx=0;exitDy=0;fontSize=30;startArrow=classic;startFill=0;endArrow=classic;endFill=0;" parent="1" source="Si9AKmO1rTwMyrS4tQQ6-57" target="fMq1iWLXI49MHX_Gh6SI-16" edge="1">
          <mxGeometry relative="1" as="geometry" />
        </mxCell>
        <mxCell id="Si9AKmO1rTwMyrS4tQQ6-57" value="intrinsic reward" style="rounded=1;whiteSpace=wrap;html=1;fontSize=30;fillColor=#d80073;strokeColor=none;fontColor=#ffffff;shadow=1;glass=0;" parent="1" vertex="1">
          <mxGeometry x="1776.75" y="1408" width="280.5" height="120" as="geometry" />
        </mxCell>
        <mxCell id="2Xh3GLrlYR4H0rZl-e0W-37" value="feature buffer" style="text;html=1;align=center;verticalAlign=middle;resizable=0;points=[];autosize=1;strokeColor=none;fillColor=none;fontSize=30;" parent="1" vertex="1">
          <mxGeometry x="2060.5" y="783" width="200" height="50" as="geometry" />
        </mxCell>
        <mxCell id="2Xh3GLrlYR4H0rZl-e0W-50" value="" style="group;fontSize=30;" parent="1" vertex="1" connectable="0">
          <mxGeometry x="1857" y="928" width="120" height="20" as="geometry" />
        </mxCell>
        <mxCell id="2Xh3GLrlYR4H0rZl-e0W-29" value="" style="rounded=0;whiteSpace=wrap;html=1;fillColor=#0050ef;fontColor=#ffffff;strokeColor=none;glass=0;shadow=0;fontSize=30;" parent="2Xh3GLrlYR4H0rZl-e0W-50" vertex="1">
          <mxGeometry width="20" height="20" as="geometry" />
        </mxCell>
        <mxCell id="2Xh3GLrlYR4H0rZl-e0W-30" value="" style="rounded=0;whiteSpace=wrap;html=1;fillColor=#1ba1e2;strokeColor=none;fontColor=#ffffff;glass=0;shadow=0;fontSize=30;" parent="2Xh3GLrlYR4H0rZl-e0W-50" vertex="1">
          <mxGeometry x="20" width="20" height="20" as="geometry" />
        </mxCell>
        <mxCell id="2Xh3GLrlYR4H0rZl-e0W-31" value="" style="rounded=0;whiteSpace=wrap;html=1;fillColor=#fa6800;fontColor=#000000;strokeColor=none;glass=0;shadow=0;fontSize=30;" parent="2Xh3GLrlYR4H0rZl-e0W-50" vertex="1">
          <mxGeometry x="40" width="20" height="20" as="geometry" />
        </mxCell>
        <mxCell id="2Xh3GLrlYR4H0rZl-e0W-32" value="" style="rounded=0;whiteSpace=wrap;html=1;fillColor=#f0a30a;fontColor=#000000;strokeColor=none;glass=0;shadow=0;fontSize=30;" parent="2Xh3GLrlYR4H0rZl-e0W-50" vertex="1">
          <mxGeometry x="60" width="20" height="20" as="geometry" />
        </mxCell>
        <mxCell id="2Xh3GLrlYR4H0rZl-e0W-33" value="" style="rounded=0;whiteSpace=wrap;html=1;fillColor=#008a00;fontColor=#ffffff;strokeColor=none;glass=0;shadow=0;fontSize=30;" parent="2Xh3GLrlYR4H0rZl-e0W-50" vertex="1">
          <mxGeometry x="80" width="20" height="20" as="geometry" />
        </mxCell>
        <mxCell id="2Xh3GLrlYR4H0rZl-e0W-34" value="" style="rounded=0;whiteSpace=wrap;html=1;fillColor=#60a917;fontColor=#ffffff;strokeColor=none;glass=0;shadow=0;fontSize=30;" parent="2Xh3GLrlYR4H0rZl-e0W-50" vertex="1">
          <mxGeometry x="100" width="20" height="20" as="geometry" />
        </mxCell>
        <mxCell id="2Xh3GLrlYR4H0rZl-e0W-51" value="" style="group;fontSize=30;" parent="1" vertex="1" connectable="0">
          <mxGeometry x="2100" y="832" width="121" height="183" as="geometry" />
        </mxCell>
        <mxCell id="2Xh3GLrlYR4H0rZl-e0W-9" value="&lt;br&gt;&lt;br&gt;........" style="rounded=0;whiteSpace=wrap;html=1;shadow=0;glass=0;sketch=0;fillColor=#ffe6cc;strokeColor=none;fontSize=30;" parent="2Xh3GLrlYR4H0rZl-e0W-51" vertex="1">
          <mxGeometry width="121" height="183" as="geometry" />
        </mxCell>
        <mxCell id="2Xh3GLrlYR4H0rZl-e0W-1" value="" style="rounded=0;whiteSpace=wrap;html=1;fillColor=#0050ef;fontColor=#ffffff;strokeColor=none;glass=0;shadow=0;fontSize=30;" parent="2Xh3GLrlYR4H0rZl-e0W-51" vertex="1">
          <mxGeometry x="1" width="20" height="20" as="geometry" />
        </mxCell>
        <mxCell id="2Xh3GLrlYR4H0rZl-e0W-2" value="" style="rounded=0;whiteSpace=wrap;html=1;fillColor=#1ba1e2;strokeColor=none;fontColor=#ffffff;glass=0;shadow=0;fontSize=30;" parent="2Xh3GLrlYR4H0rZl-e0W-51" vertex="1">
          <mxGeometry x="21" width="20" height="20" as="geometry" />
        </mxCell>
        <mxCell id="2Xh3GLrlYR4H0rZl-e0W-3" value="" style="rounded=0;whiteSpace=wrap;html=1;fillColor=#fa6800;fontColor=#000000;strokeColor=none;glass=0;shadow=0;fontSize=30;" parent="2Xh3GLrlYR4H0rZl-e0W-51" vertex="1">
          <mxGeometry x="41" width="20" height="20" as="geometry" />
        </mxCell>
        <mxCell id="2Xh3GLrlYR4H0rZl-e0W-4" value="" style="rounded=0;whiteSpace=wrap;html=1;fillColor=#f0a30a;fontColor=#000000;strokeColor=none;glass=0;shadow=0;fontSize=30;" parent="2Xh3GLrlYR4H0rZl-e0W-51" vertex="1">
          <mxGeometry x="61" width="20" height="20" as="geometry" />
        </mxCell>
        <mxCell id="2Xh3GLrlYR4H0rZl-e0W-5" value="" style="rounded=0;whiteSpace=wrap;html=1;fillColor=#008a00;fontColor=#ffffff;strokeColor=none;glass=0;shadow=0;fontSize=30;" parent="2Xh3GLrlYR4H0rZl-e0W-51" vertex="1">
          <mxGeometry x="81" width="20" height="20" as="geometry" />
        </mxCell>
        <mxCell id="2Xh3GLrlYR4H0rZl-e0W-6" value="" style="rounded=0;whiteSpace=wrap;html=1;fillColor=#60a917;fontColor=#ffffff;strokeColor=none;glass=0;shadow=0;fontSize=30;" parent="2Xh3GLrlYR4H0rZl-e0W-51" vertex="1">
          <mxGeometry x="101" width="20" height="20" as="geometry" />
        </mxCell>
        <mxCell id="2Xh3GLrlYR4H0rZl-e0W-10" value="" style="rounded=0;whiteSpace=wrap;html=1;fillColor=#0050ef;fontColor=#ffffff;strokeColor=none;glass=0;shadow=0;fontSize=30;" parent="2Xh3GLrlYR4H0rZl-e0W-51" vertex="1">
          <mxGeometry x="1" y="30" width="20" height="20" as="geometry" />
        </mxCell>
        <mxCell id="2Xh3GLrlYR4H0rZl-e0W-11" value="" style="rounded=0;whiteSpace=wrap;html=1;fillColor=#1ba1e2;strokeColor=none;fontColor=#ffffff;glass=0;shadow=0;fontSize=30;" parent="2Xh3GLrlYR4H0rZl-e0W-51" vertex="1">
          <mxGeometry x="21" y="30" width="20" height="20" as="geometry" />
        </mxCell>
        <mxCell id="2Xh3GLrlYR4H0rZl-e0W-12" value="" style="rounded=0;whiteSpace=wrap;html=1;fillColor=#fa6800;fontColor=#000000;strokeColor=none;glass=0;shadow=0;fontSize=30;" parent="2Xh3GLrlYR4H0rZl-e0W-51" vertex="1">
          <mxGeometry x="41" y="30" width="20" height="20" as="geometry" />
        </mxCell>
        <mxCell id="2Xh3GLrlYR4H0rZl-e0W-13" value="" style="rounded=0;whiteSpace=wrap;html=1;fillColor=#f0a30a;fontColor=#000000;strokeColor=none;glass=0;shadow=0;fontSize=30;" parent="2Xh3GLrlYR4H0rZl-e0W-51" vertex="1">
          <mxGeometry x="61" y="30" width="20" height="20" as="geometry" />
        </mxCell>
        <mxCell id="2Xh3GLrlYR4H0rZl-e0W-14" value="" style="rounded=0;whiteSpace=wrap;html=1;fillColor=#008a00;fontColor=#ffffff;strokeColor=none;glass=0;shadow=0;fontSize=30;" parent="2Xh3GLrlYR4H0rZl-e0W-51" vertex="1">
          <mxGeometry x="81" y="30" width="20" height="20" as="geometry" />
        </mxCell>
        <mxCell id="2Xh3GLrlYR4H0rZl-e0W-15" value="" style="rounded=0;whiteSpace=wrap;html=1;fillColor=#60a917;fontColor=#ffffff;strokeColor=none;glass=0;shadow=0;fontSize=30;" parent="2Xh3GLrlYR4H0rZl-e0W-51" vertex="1">
          <mxGeometry x="101" y="30" width="20" height="20" as="geometry" />
        </mxCell>
        <mxCell id="2Xh3GLrlYR4H0rZl-e0W-16" value="" style="rounded=0;whiteSpace=wrap;html=1;fillColor=#0050ef;fontColor=#ffffff;strokeColor=none;glass=0;shadow=0;fontSize=30;" parent="2Xh3GLrlYR4H0rZl-e0W-51" vertex="1">
          <mxGeometry x="1" y="59" width="20" height="20" as="geometry" />
        </mxCell>
        <mxCell id="2Xh3GLrlYR4H0rZl-e0W-17" value="" style="rounded=0;whiteSpace=wrap;html=1;fillColor=#1ba1e2;strokeColor=none;fontColor=#ffffff;glass=0;shadow=0;fontSize=30;" parent="2Xh3GLrlYR4H0rZl-e0W-51" vertex="1">
          <mxGeometry x="21" y="59" width="20" height="20" as="geometry" />
        </mxCell>
        <mxCell id="2Xh3GLrlYR4H0rZl-e0W-18" value="" style="rounded=0;whiteSpace=wrap;html=1;fillColor=#fa6800;fontColor=#000000;strokeColor=none;glass=0;shadow=0;fontSize=30;" parent="2Xh3GLrlYR4H0rZl-e0W-51" vertex="1">
          <mxGeometry x="41" y="59" width="20" height="20" as="geometry" />
        </mxCell>
        <mxCell id="2Xh3GLrlYR4H0rZl-e0W-19" value="" style="rounded=0;whiteSpace=wrap;html=1;fillColor=#f0a30a;fontColor=#000000;strokeColor=none;glass=0;shadow=0;fontSize=30;" parent="2Xh3GLrlYR4H0rZl-e0W-51" vertex="1">
          <mxGeometry x="61" y="59" width="20" height="20" as="geometry" />
        </mxCell>
        <mxCell id="2Xh3GLrlYR4H0rZl-e0W-20" value="" style="rounded=0;whiteSpace=wrap;html=1;fillColor=#008a00;fontColor=#ffffff;strokeColor=none;glass=0;shadow=0;fontSize=30;" parent="2Xh3GLrlYR4H0rZl-e0W-51" vertex="1">
          <mxGeometry x="81" y="59" width="20" height="20" as="geometry" />
        </mxCell>
        <mxCell id="2Xh3GLrlYR4H0rZl-e0W-21" value="" style="rounded=0;whiteSpace=wrap;html=1;fillColor=#60a917;fontColor=#ffffff;strokeColor=none;glass=0;shadow=0;fontSize=30;" parent="2Xh3GLrlYR4H0rZl-e0W-51" vertex="1">
          <mxGeometry x="101" y="59" width="20" height="20" as="geometry" />
        </mxCell>
        <mxCell id="2Xh3GLrlYR4H0rZl-e0W-22" value="" style="rounded=0;whiteSpace=wrap;html=1;fillColor=#0050ef;fontColor=#ffffff;strokeColor=none;glass=0;shadow=0;fontSize=30;" parent="2Xh3GLrlYR4H0rZl-e0W-51" vertex="1">
          <mxGeometry x="1" y="90" width="20" height="20" as="geometry" />
        </mxCell>
        <mxCell id="2Xh3GLrlYR4H0rZl-e0W-23" value="" style="rounded=0;whiteSpace=wrap;html=1;fillColor=#1ba1e2;strokeColor=none;fontColor=#ffffff;glass=0;shadow=0;fontSize=30;" parent="2Xh3GLrlYR4H0rZl-e0W-51" vertex="1">
          <mxGeometry x="21" y="90" width="20" height="20" as="geometry" />
        </mxCell>
        <mxCell id="2Xh3GLrlYR4H0rZl-e0W-24" value="" style="rounded=0;whiteSpace=wrap;html=1;fillColor=#fa6800;fontColor=#000000;strokeColor=none;glass=0;shadow=0;fontSize=30;" parent="2Xh3GLrlYR4H0rZl-e0W-51" vertex="1">
          <mxGeometry x="41" y="90" width="20" height="20" as="geometry" />
        </mxCell>
        <mxCell id="2Xh3GLrlYR4H0rZl-e0W-25" value="" style="rounded=0;whiteSpace=wrap;html=1;fillColor=#f0a30a;fontColor=#000000;strokeColor=none;glass=0;shadow=0;fontSize=30;" parent="2Xh3GLrlYR4H0rZl-e0W-51" vertex="1">
          <mxGeometry x="61" y="90" width="20" height="20" as="geometry" />
        </mxCell>
        <mxCell id="2Xh3GLrlYR4H0rZl-e0W-26" value="" style="rounded=0;whiteSpace=wrap;html=1;fillColor=#008a00;fontColor=#ffffff;strokeColor=none;glass=0;shadow=0;fontSize=30;" parent="2Xh3GLrlYR4H0rZl-e0W-51" vertex="1">
          <mxGeometry x="81" y="90" width="20" height="20" as="geometry" />
        </mxCell>
        <mxCell id="2Xh3GLrlYR4H0rZl-e0W-27" value="" style="rounded=0;whiteSpace=wrap;html=1;fillColor=#60a917;fontColor=#ffffff;strokeColor=none;glass=0;shadow=0;fontSize=30;" parent="2Xh3GLrlYR4H0rZl-e0W-51" vertex="1">
          <mxGeometry x="101" y="90" width="20" height="20" as="geometry" />
        </mxCell>
        <mxCell id="2Xh3GLrlYR4H0rZl-e0W-54" value="Action-BYOL" style="text;html=1;align=center;verticalAlign=middle;resizable=0;points=[];autosize=1;strokeColor=none;fillColor=none;fontSize=30;" parent="1" vertex="1">
          <mxGeometry x="1475.5" y="792.5" width="200" height="50" as="geometry" />
        </mxCell>
        <mxCell id="2Xh3GLrlYR4H0rZl-e0W-60" style="edgeStyle=orthogonalEdgeStyle;rounded=1;orthogonalLoop=1;jettySize=auto;html=1;exitX=0;exitY=0;exitDx=60;exitDy=35;exitPerimeter=0;entryX=0;entryY=0.5;entryDx=0;entryDy=0;fontSize=30;" parent="1" source="2Xh3GLrlYR4H0rZl-e0W-52" target="2Xh3GLrlYR4H0rZl-e0W-29" edge="1">
          <mxGeometry relative="1" as="geometry" />
        </mxCell>
        <mxCell id="2Xh3GLrlYR4H0rZl-e0W-72" value="d&lt;sub style=&quot;font-size: 30px;&quot;&gt;s&lt;/sub&gt; &amp;gt; c" style="text;html=1;align=center;verticalAlign=middle;resizable=0;points=[];autosize=1;strokeColor=none;fillColor=none;fontSize=30;rounded=0;shadow=1;glass=0;sketch=0;fillStyle=auto;" parent="1" vertex="1">
          <mxGeometry x="1633" y="1109" width="100" height="60" as="geometry" />
        </mxCell>
        <mxCell id="fMq1iWLXI49MHX_Gh6SI-57" style="edgeStyle=none;shape=flexArrow;rounded=1;orthogonalLoop=1;jettySize=auto;html=1;exitX=0;exitY=0.5;exitDx=0;exitDy=0;entryX=0.998;entryY=0.512;entryDx=0;entryDy=0;fontSize=30;startArrow=none;startFill=0;entryPerimeter=0;" parent="1" source="2Xh3GLrlYR4H0rZl-e0W-73" edge="1">
          <mxGeometry relative="1" as="geometry">
            <mxPoint x="1036.346" y="1162.6399999999999" as="targetPoint" />
          </mxGeometry>
        </mxCell>
        <mxCell id="2Xh3GLrlYR4H0rZl-e0W-73" value="advice" style="rounded=1;whiteSpace=wrap;html=1;fontSize=30;fillColor=#fad7ac;strokeColor=none;shadow=1;" parent="1" vertex="1">
          <mxGeometry x="1160" y="1138" width="180" height="50" as="geometry" />
        </mxCell>
        <mxCell id="2Xh3GLrlYR4H0rZl-e0W-79" value="" style="group;fontSize=30;" parent="1" vertex="1" connectable="0">
          <mxGeometry x="1154" y="800" width="181" height="257" as="geometry" />
        </mxCell>
        <mxCell id="Si9AKmO1rTwMyrS4tQQ6-21" value="" style="shape=image;verticalLabelPosition=bottom;labelBackgroundColor=default;verticalAlign=top;aspect=fixed;imageAspect=0;image=data:image/png,iVBORw0KGgoAAAANSUhEUgAAAJcAAACxCAYAAADJai9SAAAgAElEQVR4nO2dabBl11Xff2vtc+7whp7UgyzLtoQtLMuTEOABUoFAhVQllQAphxSBADHGgyxL6m5LFrJly/KgyVJbxrZkYjtJURAIRYWQSlVSJCm+pJiM8YAnbMBCY8/Dm+695+y98mGfc+659933enzdfbvPv+v0u8O5Z0//vfbaa6+9trzxDfuMBmtATvKdAIYQEHqILID0ATBaBJsHayMIwgD0BEIfMIw2FjbHv8XzZCRNi5+vl4WLHElm117oPEwplLTVJR/0cDbA6QHQ50AOkKQJy705Arsw20FiKSqHEZ5BkkOAYWEHZteQhx0EEQxBTSqKQUEvm96+nwQ2X+g8TCmE/sAhGE6XQI/xoY/cQrt7hKXlZTS5mjt+9bdwyQxhAKpH+fBHb0PdfsAIYRd33fk7iG4ihHlcMo/lHiySK/4ppNeUQm56/f+e5vxfOAikacpg8Pe0Wt/i/gd+AZ9/i3s/eDudziy37r6PtPu93PWej7J5Zob73r8blee59/27AeGDH3yULN/BPff8BoPsBmDXyMONimdTS7AECRc6D1MKYzAYoOLBMiws0Jk5SpC/JWeGzsxx1OWkSUYIT6PueVxYRMkBRWWFdnqIRPcTeCk+BJBIqEisQoJhFcmmDcn09osLCxVBUJTNaP+lfOA9n+H+j7+Kjz36NoIIfrDIXXsep203YNmXCZkn0TbiZwGH+i6IogZqSjAHYoARKoKVqU1nGyUXOgPTCrNAlg3opkAA8wEJRshzAooYzM3PcfTwgNnZNuoSCFn56+KS2gWTp4bCtJJLRwt4sV2ni41+/hAGpGmLwALS+ls+fP87ENvMR+/9be7/wH8Bv4Vf/cAv4Ob+nn5YJGhK0AxzS5g7QXDLBIWAI6hhanEIRBATxBQ1h5hDLIEpvJK1K3k6e8uIgrIuf86ufAJk2YBWCqZKFlokYQdZ70qwBPPbWeoFBrmjo1fh/S5EMrw4BE+gjQ+7yG0XnjYmpSQbWrzMQEQYfjNdkJve8Idr1HIpui9eSJG9kk9ioxJpfSPkycsn62rSBnhEeogcR/VJPnL/T+P0edQgD7u4657fJ/e7aLs2vZXv8tDHfhbnno/k8lfyvvf+N3y4BrN5LLRimsVMcViuaaRVxKVNrpNKrlMh13qS3RNn2wZyEE2+hdNDOIwQriALr8CH7ZCDuiNI8k3UHUYJmN+OD6/CbOfwkWE0P9M6SywxtQq9AUHja7FRCmx8o5QJOAwFDLMdWD6HJ0cIGA4fUpIkQVKH2XZCuIkQsoLTKcjMyNOmnUzjmFpywaQ5VrFKV+gpcelko1qsNnwB0AE2EwkXMMtQGRBCwELAB0ea7IzfG0BAyAC/Qfm78JhacglxRBpO1I1QDHVihUhD1/j12aK+qBwXrsEglB96pLBZmQkiQpooZoO4iF2JKD981iWI6SWXgdZ0LhNFArTbGT58FzMjhCsx5s552pMnCoYUZClXPeKQGfU2M6tkXTUbvGRpFbFRXfu8wIrlkiAKkqJ0sOwQneSPePD+H0XlwPBeO/1lrmopZuwaJZZgaLzE4kWkWkmlWM3lJdV9lzqmVnJZOR5KDtJHxePE4/gmD9z/TwnyBVSfJvidhc+UIzZ59YRTS+gkJBgSyGr2KFnj6UZdXl1i+vsqTC25AAKGhWVEnqXVOobjEHOz38DpMqpzJO67eLsKYxcWuiCuYEOoOeadzJY16VNZ83sbe16kWdTJ6sOgXPLUmvJhEYR2usRHP/STpO5/cf8Db+RDH/lHdLp/T5Ic4MMf+RVUn8fCUvULGxvSTndp6CSWsZFLRkg4vC59WkVMteQSA7FnmZ/5Pzz80HWY/jaSLGH0cG4zps+BPIfKi4uZXPXLU1pSWZtIZ6YvXQ7Sqo6pJVepCil9nOyn2zlKbh5vM2T5NowXEcIVBGaBBFWHWV3nOd8NfXkRC6aUXGYBROM6nHUx/wKWFq4nDzvxNofhyP1LuPue/0sIr8bYAmYoHswKI2tpJmiwUZhKcolEVTGu7m1h4L+Pe+95gjxcjbd5ALx9Bx9uwGwnJg6EaNDkctJ6LiymcuHaIBolxSEs4vRpTHKCbcXoRDsmaZRqpFhBRi2HxcLIKWO7bcZTOVsj5+VO4UTXNS5evOQCCD7HJXPAy/C5EegCaaGPeVRyCoMFMNTTAlGljwve66ntDbnOBkl7mhchVCF4EEhFMXKGC8GljXy10XKo0k9tyacCyWY31F+mEyPONqwuyST5cbnLlPODZFM+AKaZXA0uViS79NL1J2pwYZHsyBcvdB4aXKJIrnRHLnQeGlyiSDbLkxc6Dw0uUSTOvn2h89DgEkWSa0OuBhuDZO7K/ELnocElimSpvbzqQ5viaHYNLh4kh7tXjHxgZg25GpwTJEd3/dCqxRCRZnmkwdlDtl79xpGVa5W4iVO0IViDs0Oy7SX/6mS7pxo0OCMkz+0vN8MP0cisBucCic+XYgxOiUMiSCHJGoo1ODsk3STFa20/n5VboBpyNTg7JDt3XI2X+mbRhlgNzg2S/c88s4pc5e6aBg3OBgkhBx0q9CIaNy+INt6pDc4KiWcBz3C3u6IxNGcZ+4pmI0ODM0PygmtnMDdKn+GWq3pgxoZgDU4PgvvHkTV1i7yNhTuLAUbPf+4aTDWSmRe/roqgB8VccURyWWPBb3BGSMRmRz4oyRXRsKrBmSNZFULR4l5lqX3aUKzBmSBGuZnAniYSTIOzRWMtbbBhaMjVYMOgrBNCSUUKT4kGDU4fCuufy3WpHXbU4PwhsWCIi29EC0ll8QBZH8LY2UzFLLLZwNHgFKDC8OiSbqfLwtISrXaL61/5aqxupS8w6VWDBpMg3avvM1PBJQkWhtvKTMZ3AZVn2ICM6GnNuNlgMqrZoorQ6XToZwM6nQ7Xfs/LUNHCt2vMgbBR8hucArSUVKrKsRPHmZuZ5UUvuZZvfP1rjJ64VcZuL32iG4/VButDfQioKEmSsmlujsXlJQ4dPMBMp0uwUOhjjmjMF0Tia8FddseNNDg9RFOEKNu27yRNW3Q7bY4eOUTAE2xAsBwzBVpEkilCAqQ0kqvBetAQPHPzm9i560q8z+l2W6QtELdCLofJ5QhelvHSw+sypn2s8lttyNVgbWi7leKznL/+xte5/pWvZPuuK8g5QSb7Sef2c/dH/x15+jy5O4B3B/DuCEFXMHyNZA0arIbOdDfx4mtfyqtecyNZlvHia3bRmTtBOvMsN9/xz1jMv8L89sOE1pO42f38wtv+OV5OYNKvznJu0GASZMs1j5k5w8gRzXnl9+/kB36kzdYXLLD/2LeYnd9Cv7+NT+77LG+7+RY68gI++dH/TpLvRK2N2FSeTdXgPEC9F/LMM8gG+OD56lf+DNMj9PKn2bKthWeBwCF+6W0/xezmjMceei9In/Jo3QYN1oJ67/EhEMxYXDhBCIEnHv80Pk+wfCvk21hayNi29QpOHFvEdTcj1kJIkMZjp8E6UCMDAirCzOwcS0sZt73rPkL/Sh689zfZ1H4VV17xGh578D8y17qau+58AAkziLVYyx2sMa82AFCTHiYx6K6qY+v81Zw4uJ1H7/kDZOWVPPS+3+PIU9uwpWv4+Id/l4NPCRo2IdaO3hNjGF+NbHD5QtovfL+pa2NA4sC1Agsrh5iZadPrB/LlJbpbZ1g5fghUmdv0AnxvLpJrZK928cBTSLTR1C4PJCoJGKgKZoGQC91kG74f0ACd2U2EQaDVnUWAvO9QhEnEgnL7//oQGoJdDkhEFFFBpDj+sogEJwgqIKarhzqDScQqcSoEq2M9T9gG0ws1GT3LudyvGP0hpNh9Xdsse4otvt5tpxois9HZphtJdAi0Yp+ixAg3Barh6wxFyOn8bJxIjdSafjSGqgYbhotm7aaRVJceLrjkOlXdrMH04aKQXA2JLk1ccMnV4NJFQ64GG4aGXA02DA25GmwYGnI12DBcFLPFBiWk9nf6w7M35DofkLVpEh0B6jvYy8HEiJ4n00uwZO3l4WbZ+JygRqyhg0CIDprSAwwJbQSHiYElCB3EHNO+T0FlVbCRoZNyE3T3DFEc1GVjxDKBIJ6gGUGPkydP8o69P4l3h/B6FK/7CXoIyLgUOrdaPEZq4tXgzDBR1ohhMiDoIrkc4Mpr4Pa734TOPEUmT5K758j1Od5x278l0FvrKVOFZrZ4HmAoRiDIMsEd4M4P/gw/9fM3kCXfJJl/hnff+zPMbDnI7Xf+PDPzOUafade3oFHozwPGVA3p4/UArn0kSjHr4VrCW299ExKO859/83+AbsFCXvP6nU5U8bkabCQESBDrQmjz2KOP0Ol0SGSewYrw3HNPYnICdAHTRUxXMMliLI4p1k5UmiiB5wHxwBuxFLUZ3vKWvfQWujyx7/fYPPMKXvaS1/O5x3+HkHf52X/zZrLFlQud4XOCRufacBgQMELc9GIzJP5qHnvgD+gf/x7uf+/vc/jpqzjx/FXs+8h/xfkX0e5eVexq16keFmXmmgemOPsXKUZMEMSZYvHOZIWgx4AcrIvgiMp7DpIh1kLDFah1iQdQTG/zNAr9RqDYW1cSa/ghBXm2Fq8T4uAR94CaeMQUzGH4aVa3gIZcG4b6xt9R2ZOgFuPLVuEQpJBQ1SGq9V9NL8Uacm04BKm27jHy/2jwvHhf3JA8/Gya0ZDrvOBU415PN5nG0cwWG2wYGsm1gYjnKk36Zlyfmn79ahIacm0UDJByOLSRL4ZUspFv5bRDuFycKM/obMi1gVgdKqowR4xJqtH3kWDTRrFJh7425NoQFPIqDGeDVoQIWk22ujuzFLQqwlhN0dKcqhLCaFitRqE/TyhtqeMumTL2r37vxY7Xv/GHJ34uEjtGI7k2BJPZIWue6Tw9EmocZoaIVOd0BjMww6k25Dp/mF4CrYU//eP/V72ujlYUwRfDYzMsNjgrmAV+4PVvJBQSrCSWSHNKwXmArXGd7L6LG8NDYB0LJ04A4JIEHzxmgVa73ZDr/GAyccodQrn5uHVxSogFhWQSodVq8fyzzwDwspdfT+IScu85dORQo3NtLEY9HErlN0IQc5FOwRcKymp718WASTasYFYNhYsLUXIlLiHLM9IkJXGuIddGQWqSKh7nHGdQYPiQ0z94mB3Xvpa03eHAwSeZ6XRYWVkqfh0YJdj4MtH5RTBbRTCnSj8b0KbNq2+8iVarxRf+9I9pp63iDm2GxY2AjJFARXAqpEnK8uJxtmyexW3pcPjo39BfeYbULbGyfBDImUSg0bOULgzBfAjVBXFYnOnO4POcLM8QEW563Ru47vobmN+0ubFzbQRWO/tRbDEWfB6YnZ2jt3yYdus47ZkBh499lfnuNmCWYFsI1qnWGFc7HNbfnd8hs7RlmQVEHOocZoGbfvD1HD9+nC9+4U/p9/skLiFttWh3Og25NgqVU6CVw2PAOUd/sETijvOBD/4iu65e4kP33cNTf/s087OvYKXXihszin0ZZlKEWrh4sGnTFl50zTVs2bKFEydOsLC4wN/89TcJIaDqAMizjGwwaMh17lHIG9PCbRkgQ/AsLC7SaS+DPEN39jv08y9y9z2vo3/8Ot5/9+/hbHOc4lu529qBDBe37QIq+iqCN2Nh4QRf+8qX8CFw3ctfwaH9+wnFeZ0qUlnotbFznVtobSYYhzWHmIvnJ1kgLB+hlfawcJBu+xCbNx2g3XqSrZuWOXrwOzhbwVmOWkBtOCGIW9OseuqFglNldnaW3Hte94Yf4tD+/fRWloFh2bUwUUBjoT8pJu1Ir1dg/TOIw1j83qGkqJSn6sLOK7cRsqO0kwEtzegvncB5T76ywK6tsyRhGRdWSILhTIikyovzMIexIy4EvUQElzjMjBtv+gH+4s/+hOWlxVWeEHU0w+KakGLLhAcZUJ6oC4JJCoCRF/e1EWlh1cJ0JIKKQyTj6Ilnme0uIOEQW644zsrykywvP8W2OYflfforTzE39xyDpEO/f5jcd8FmcNIm0AbawAwwD7QvyHwxyzPIYTDI+PpXv0LiTk6dZlPsBKgIZoJKm36+yJZtRm9wkEG+GDex2iyCkLZyujObOXYIWm4LZg4sEKyPmKLWRuQEL3ppn7e/80cY5H/J1S8MWHaUQe9Zup0T+HwZCW3UZslWOsx1r6TXS3n/vfvo5Zt54KH/wOLyPO++8xPk/hqMrSNxv04Na9nJzs5+VulYa6CRXBMQLOo3wTKQPsu9IywuPUl7roj6EOYxlOPLxzHdgclWkDkwx1Ar8sCAYAus9A+y3PsbZuefJdgyaiukuoAfLKCyTJIcQ8xYGhyjteXFGAnve++P4+2F3HXHT+Ja12F+B8JVU7I4FNGQaw0EyxBdQdwC77tvL0EOMDOfoRogdAkhpd/PcGzmnjsfI9gymItKvAgqHgtLiCyxZfMcV+26iv7Kk7zn1scYnIBff+Kn0GSZbHCIMMhptzpsms1ROU4rbbFj+yzPPHecjz18H8eXtnPb7s8ibm39Zn2sRcmzo+p6Ugsacq0BQxREAqpw1217kZk+aasfN7JaG6GNz5V8JWVu9iVY7kZsnKE0HIQEP+iQ9TaT2NU8+uB9SLZA3j+M5gOc65A4CB5mZlKCJQxy8GGGTVuvIdgW+oMZct8hPQU952JCo3OtQrnInCNqqHoGfom4NAPgwFoIaSGpUlrJLCFE/UMsDoeCoeaAHt4fwIen2brlCHtv/9dc8+LNpG6JEI5joYcPOUIAyTGEQEqweRYX57j3g59jpbeLdvdlLC3PE5g7A53rwqAh1yqU5ArRfimGD77YZp8ASfHXFbEeBKcOM49JjooH86gIEhwicGLxIC9/2Qs4fPjr9FaeopUuEfwimI+kwjDLQXy0aokjhJQtW6/i/R/4BFm+k5vfcRebtryQQDI1jjkNuSbCavat6NUApao+GoYSGFmiid9Y1foqCa1kNlrdbQXnBsASvd4CSkoIQAhYkYYhqEtBPWgPwyGyFWQGVAkWbW/T0GjTNYifN8jYu9KBJlrLI2pOf1b+RtEi7LqoIBLvX+ot01vps2luM8t9odPu4tIrCF7jc8WKHT+CGYhLUedx7R553gfr4pI2uR+A+akgFjTkWhP1HS0iOvR2WNM8Xi5SR1U+rt4Y4NHEMTOv5CwgqTEofLt6PkMQVLV6tCEM6EEISM8Xi8FGnvXj0LuhpT63uKiWf0LwvObGmwjBF451FxrjTXkSH3gprvIeMZAQg+fKoLgyTAIeH00LzhMkI0iGl4wgg/gej6EE0+p500QsuIgk1/gaXn238ah78HnLEaP+U7aO1BrDSXa1mgXMQHXSAwvHekpdzgp70rRR6yIiF8TK/MqXvoiqI/e+9vmF9CWvSaFTvv8sk5v44cXhT386uBjGnhGplfscp8prbryp8Hw0QvATvRM2GuW29Kic62lflzvOj+Qa73RjPCklkxVOZi5JUFVarZTllRXSJD0v2Vwbq+PVnBLW3L5/eeAMu9eonWe920prcqB2wJvUbhif9ovS7/f5wp//CQCv/b7vP7MsnjMUBaiOITuNa0LYkVO7Lg0kscmVMizsyTH0hRy63Q7jBJh4gg2K71NMAiY9YpD/BLEEtTS6rlBUp+jQUFk44okIWZbT7c6cy/KeJs6FW/HpSrzxtKaXbIrkRG9nN8GFdjzATxXkh1GHW0M0XkafoEfx7ihBe+SyyK5rlJvv/Je05o7h9ThBBiBWkCgKz8r4WNiIvvf6V/La7/tB/urLX8JpEVr7vGLUZflMLpEz0dWkprPJWF6mC8WwOGmqO0qkcbEtUnutoBL3EqgzAivc9u5foT27iHdP89TBP0Jmv8O/+LnX4Ft/R3AHMV3GxFdpgVQEa3e6OJcQQuC6l9/ADa9+7QWq3rMd2s4k15NIPZ1QLMFKX+1qaaNOrElYv9AGmC5z850/DfpF3nnXj5O3/4Lujq9x2/t+jN3vexOSHiFYr3rO7Nw8S8uLzMzOcv0Nr0JU+MZffYVvfu2rfO0rXzpX5T2POFPJV//tdEOj8BqVXOsTK6JuGrBg+BDIvSf3HlHl0X33gzvEO9/7iwzsOQ4f/zbz23J6+fP0s4O4ZAASEFHMjBe+6MX8g3/447zqNTei6vi773y7Mp5OU/jGUVz2Cr1VyvW5XGAQAiID2m3HwomcmfZOsuU5Unbwucf/E4sLW+mqREVfhG9/8+u02m1eet3L+eqX/7LaXbPe7pIGFzdUhEKBjP7fUHk0rXFF1G1TokLiHK00pZ2mBO/ZvftX6S3M8IkHfofvuerHYPlafv3j/5PZ9Hu59V33keh8sTtGKuX1hle/lq9/9cs41QnS6tLq1ZcD1FtWBJioH5lucRNmoaRPuqh9H9e/PCHEK1FB/SZ+6zNfID94I0vPvpbPfeiP0cUbefCe3+XgsynKZoIJZjGQxQ++4Yf5yz//M4oNuzU3ltrsq/k3Xf+6137AIB4caWOHdk+KyzQuPaxmHhUVgvUwPQ448NuAlCDLiOQgcZu74CDE3chmCig+2CpPiNXSa/oWby9nJOYywBeKdaC+UL92U8rYHYUbnVmhpM/Ee1wOBKRmIEUMCz6aLEJeWbLTVPF+qF/JSfbENbj4kbj2YvVGCvfZSpk+zcYtKTeUeP34vngXzI/cJ0ZlRC3jOZ3NzHB6Z5WXJhJrP1+9GZdHZ9pUa1FS6q4rFsfl4Zf1ycQazz1dsp8l2S6EJ8alhES7B4qXp1+Ra1V+vVFHG7jwqLRyve70Gv98y6VGDp4dEmk9z1quuyfruSer/MkKef3M1NNrvkaSTBcSzwGGO1pGIRPdcE8dozrbuK3s9C3SYY18rgU9S4e90lPjXD3vdNMbx7Sln4guRCv4hDYelxOTTRMTflDcVt5e+oDHqCihimUVquFx+Pz1JhGnq0KdrZwbT2+j5eapVu9pPXPsR+v5L57r9BNCFr25QqFg1/chWMxdac80fJU5Kw2oJZGseG+rM1FNFIp7rLipPmsEkCAkJiO/qQol0aZWVY6cRWMLIz8u7MBFBMDxxeNCTxRAQi0vxbe18p9xdsrymxTpS5Wn8vADEyuO1WOkDerdc2IepPhchvW4Ot2yDmL6Mla5a+XBJjyrjkStDQE0OMQrqaZY7hkGijVQIWggqCeojw6AGlb1AitdTccaXsr/pCBYKV3LxweNBtUBpJqixEZWkcoJNGggkMc84DENiEKI2RumP5JoLZ3xyi0JVpIqJNhASLQ9lr4V5fXkZFX5kUDQkzduqJNYh++FIt8j5RdSaaEVyWP6se5zgsujM6YGgkAoGliKtEuSjAwg5WfRfj1CyPI3ZfrOu8gDU1LXJuS+IlRQH7e+qSeoFR09drqSvDo2qibtbA7LDRcc73zrLVhmQyaHABoLEdTzxOcejw+X2MjSgiAeM18UoOjl440LkcDFGqJ6AVMsAwmKkiBeueVtt2KZkYgj5L6KXhcKcj3+2U/HtCWSnMQwDVVH8MFHEolVZ0tbrdLrjS+mKGmM52AOyZVb3nYbllE1rpSi2BlePE989tMEzbGio2XkkWjFCoWWHYi6RCtimYoiProISNHttYyXWnTsW952GwwMNUEseoug4CWm98TnP110rpzgPD4JBA0IhtTUCSk7Uk28CoL6YbtIUCQTWq5DyAwXlJvfcguJJThcrPSCqp6AV8/jn/1UQbJY/6FIv5yklXkopZs88OkHjGBFJLzo9WwBnLpi13EgYAQJmHh8UaFec/7gD38fX/Umz1PPfhfTvGJ0yeq4N9SRSAsJDofD+ZS3/NxbSWmRuhQ/CCSSQhB8Fmilw00ZsbFi+jEfsbCf+Y3P4F2OJwYBGVgPU48VPQuJZdEgSEjQEEkspjif8I43v5OUlMSl5INAKgmEcmWs5gkqUXoFKaR2kf4nP/treOcx8bHczmMa80hZBwHUBLUkSoWQ4EKC+oS3/tLbSaVFqi3CwJOU6Vc8KVzPpah/ZwSJ677eZXzq85/Au6ySrEHL9IeySwqixrRLMisupLzrl29FMiURFyW1F1KX0lvp02q1sWBFZymHxFDUv5Frzqc+/2tF+4eiw5VcKKwC+/Y9Gru5xQp1roXP43JQXCss2Ihh5JWV3ZwnSwZFhULQnE/9+0/gNa8aoIRaLNjb33wzGhxqsXCzOkvoG+YDnc4MK8t9EpcSvNFut8mzvGrfag2z0Hu8egaaxd4jHq+eJz73yUKyBsqdz5HcUdy//c3vLNKPQ8CsmyX046kQ3U6XleUVEpeMuBnHRfRy/PSFXDa8ejIdjKT/+Gc/WTVweexw5GZM/+ZfuQX1CYm1SCxFvYNcILeR9KP0ieNdqKkndX0vaM7ArZBrhqkV5f80QQuVpSJXJJMGx9t/+R24ov7TkJLmbVxQBAg+4Io48oX4ZwQy5AFl/bseXnOCFOl//vGh2iSGPLbvUbNgReQUqSpVRGPPq0V7sSI00Kg0CVWi9QcPZU45BAyHgbJHaaXAVoJ1KC0YP+TEquG3cvcRK/SOeq8qFb9Rm1pMTwulXYv8aFWJdTKMmElsODyYFUOQyEgvtlKylO+Lnj5cjSiGYXNRv8HVlPcyPWrpT0aldBP94Ib1DUECXkMh2cqb65Irllertoiki+pMKNZyQ838tHrqWAZLKfW6YZmpCBYqpd9IqsqtP8GYEPTCKsU5ziggBj9LigawQmIM7x/9eZSMo0fxWo2I47Cx8lmUKEY1m1GLOowV+S6lSqnJyohZoz4bHpJ4vIzrva7CgROHeRWtqTW1WWVZtnoZyolDQVipflPP/5o1USNWqUNq1F0ZKulB6ukXZS7KW5JZKIfdmmQtD1LQ0bZZjZJW8VnOHOCq9JOCWGVJkiBRuS6yVxWgfH45Da3LEVuVVHnfONuHca7KqDGhIEkptssxPb4z6lyrz3yqJ5baqsShsiZHV03XVs1mjaEppP7sclq1ygwy+swqSpdJYRMa3ik21DFLyb3mk3AAAAXbSURBVFHO0qo7iy/HJ6xlGiXxxstQfSKlBjP0vavqkdoMsMx6rRxlvoZSLaoYsTbqo8do2nVIUd/xGZNGGRtpw6T8ouBjFVhMigeU08xyt4+ZVbVSHTZUy0T9PEGzAMWkoNxNbeX0baLkqFW0SFQoywO6a41pDHNdf716WBv9BBk29iRJIcKEDFGlYyM3SD271SdWf1ccUaJWO1ilRpbYneNsd1i+oXSxotdOMnxWtq56IctcWa0Gqu+GbBsREzLs2iNfTkiz1PdGbhypr9HOk0Q+ekSI27l8zWGwjC5TEqmWqqgQSl3NQhVjajQzCmYEo3JdFgwLAaliUq0emOrlKskabU5F2qukZNlzR2tm1bPGfjZaf6ulbi0TNboy7HTFz+qpl/eZgJdILBcEZzUDZAjViKCF3hjlsEdFoy6IROGiRRilSQSr8jPW5KVwt7KuynvHmaMTPhutkbGutDoTozkZeZeU7sxmhiuOOSsfKzYMgIbVRLwKeT6MoZW2WgwGA1qtVjRd+OJcvorpJSmi7cg5LWakoy1dFaTuVaFRguW5H+3ypwIZq5yT/u7UE5Cxv+MIGMGBC56Zfk7bFyaLmp41nAxEaiEegqEkBG3Rcx3i+onVTucYzeFaOa1UlVU3jH2w1npQfTg/Q1SBSESE3qAXz61Rx+7du2klKf2sz75H9rF7zx4efeRR9uyNf999x14+vu/j7N2zl3379vGe99wZjZjAvkf28e479uLU8dDDD3PXe+7ioYceJITAnr17ePjhj+FUV8XdqprWCvGqwk/8xE+QZRntdvssinkqWEdyncavIEp0JOBlwGxvmc/dcSebsj5BM9Baq5XKr0rUZywHMzJvHKPLy//Jmxhoa5UudPY41d55dkjqM4ayoXOfIyLc/+AD7N2zhyRNMYzde3dXPxSEPXv2xKxaVNI/vu+Rke8feOBBxCDPM+64404effTRmGjioj5Vx4TyisSQjiJR0k0LgoFoPKZFs2W2kbGVFcz6KFG/0uJI4iwfkA9yBKMlUcUYeCPpOBLzG0Cs84dKURr3larP8nq9Hvse2Qcw/LtvHyJSEcYskCYpt+++HQuxR959991keYYRK2337tvjvWE4iyxjcK2FMn6CS1yMkzUFl0scSaK0U0c3VQZLx8gXj5AvHWawsJ/sxH76x56jf+w5/OIh0nyZdr5C1/fp5H22poob9Ipj8aYXI1p4mqbVUJWkaRVtxqny7jvejVPHnr17EI0RaMphEMAHT5Znlc+PU8cjjzxCmqR0Wh0+9vDHCCGeG9hut4e2lXV2VIsoIXja7TaqjiRJcS65+K/E4ZyLFm9RpDuDzcxCdxbpzCGd2Xh1Z5HuHFnSIUu7LEubvuuy6B3amY9Sa2QmMV0YIVe/368Uc5/n3Hnne6rlCB88Dz/0cJRCwUjKyivg1LF3794Rh7Nbb3sXuc+rrf4PP/wxtIi/FaP1rV9rIXjy3FeRBcuZ6cV+Be/x3hM89CXlaGuWA+3NHG5t5WhnO8c62zne3c6x7nb2J5vZn2xhf/sKnu/u5ODsVexPd3JY5ulLQhmffhoh+/Z93OpD0yoFu5DM6jTGKs2y+N1JvFSDD8VwltDrrYycz6duyOlVulcNufe0WilZlpMkjuAv/oquGymVnLbPmMsy2j5D8agUBunSXqqKiWOQe8TiZMDh6GvKYrtLX9OxcEq1tE4i0U5thrxxSEZsGRNmbiWCD1XjlsRajxjls3yekybD4fa0MudcsaCqWLgQEZ1PH8MsKmIJXpWlNGUlsYmtHU2/Cq3aMxCCCJkVFu+1ErO1CXYx1FQCVKHTTzVD65HqssfQsgkoXpTgShKtVcOT7GsGpzAkno0H7EbjvIUKH4krf5mQc7hmd/I7V6P0UImvpxEXVRz6BuOYTlKVaIKlN9gwNJJrFdZaXzxdKXJ5DP3r4TIl13oEqpNotQvP6T3v8ibYpU+u9daj634zNk6g05VUdYKV0++zINclcPrG/wf6x+l7FFg/5wAAAABJRU5ErkJggg==;fontSize=30;" parent="2Xh3GLrlYR4H0rZl-e0W-79" vertex="1">
          <mxGeometry width="151" height="177" as="geometry" />
        </mxCell>
        <mxCell id="Si9AKmO1rTwMyrS4tQQ6-22" value="" style="shape=image;verticalLabelPosition=bottom;labelBackgroundColor=default;verticalAlign=top;aspect=fixed;imageAspect=0;image=data:image/png,iVBORw0KGgoAAAANSUhEUgAAAJcAAACxCAYAAADJai9SAAAgAElEQVR4nO2dabBl11Xff2vtc+7whp7UgyzLtoQtLMuTEOABUoFAhVQllQAphxSBADHGgyxL6m5LFrJly/KgyVJbxrZkYjtJURAIRYWQSlVSJCm+pJiM8YAnbMBCY8/Dm+695+y98mGfc+659933enzdfbvPv+v0u8O5Z0//vfbaa6+9trzxDfuMBmtATvKdAIYQEHqILID0ATBaBJsHayMIwgD0BEIfMIw2FjbHv8XzZCRNi5+vl4WLHElm117oPEwplLTVJR/0cDbA6QHQ50AOkKQJy705Arsw20FiKSqHEZ5BkkOAYWEHZteQhx0EEQxBTSqKQUEvm96+nwQ2X+g8TCmE/sAhGE6XQI/xoY/cQrt7hKXlZTS5mjt+9bdwyQxhAKpH+fBHb0PdfsAIYRd33fk7iG4ihHlcMo/lHiySK/4ppNeUQm56/f+e5vxfOAikacpg8Pe0Wt/i/gd+AZ9/i3s/eDudziy37r6PtPu93PWej7J5Zob73r8blee59/27AeGDH3yULN/BPff8BoPsBmDXyMONimdTS7AECRc6D1MKYzAYoOLBMiws0Jk5SpC/JWeGzsxx1OWkSUYIT6PueVxYRMkBRWWFdnqIRPcTeCk+BJBIqEisQoJhFcmmDcn09osLCxVBUJTNaP+lfOA9n+H+j7+Kjz36NoIIfrDIXXsep203YNmXCZkn0TbiZwGH+i6IogZqSjAHYoARKoKVqU1nGyUXOgPTCrNAlg3opkAA8wEJRshzAooYzM3PcfTwgNnZNuoSCFn56+KS2gWTp4bCtJJLRwt4sV2ni41+/hAGpGmLwALS+ls+fP87ENvMR+/9be7/wH8Bv4Vf/cAv4Ob+nn5YJGhK0AxzS5g7QXDLBIWAI6hhanEIRBATxBQ1h5hDLIEpvJK1K3k6e8uIgrIuf86ufAJk2YBWCqZKFlokYQdZ70qwBPPbWeoFBrmjo1fh/S5EMrw4BE+gjQ+7yG0XnjYmpSQbWrzMQEQYfjNdkJve8Idr1HIpui9eSJG9kk9ioxJpfSPkycsn62rSBnhEeogcR/VJPnL/T+P0edQgD7u4657fJ/e7aLs2vZXv8tDHfhbnno/k8lfyvvf+N3y4BrN5LLRimsVMcViuaaRVxKVNrpNKrlMh13qS3RNn2wZyEE2+hdNDOIwQriALr8CH7ZCDuiNI8k3UHUYJmN+OD6/CbOfwkWE0P9M6SywxtQq9AUHja7FRCmx8o5QJOAwFDLMdWD6HJ0cIGA4fUpIkQVKH2XZCuIkQsoLTKcjMyNOmnUzjmFpywaQ5VrFKV+gpcelko1qsNnwB0AE2EwkXMMtQGRBCwELAB0ea7IzfG0BAyAC/Qfm78JhacglxRBpO1I1QDHVihUhD1/j12aK+qBwXrsEglB96pLBZmQkiQpooZoO4iF2JKD981iWI6SWXgdZ0LhNFArTbGT58FzMjhCsx5s552pMnCoYUZClXPeKQGfU2M6tkXTUbvGRpFbFRXfu8wIrlkiAKkqJ0sOwQneSPePD+H0XlwPBeO/1lrmopZuwaJZZgaLzE4kWkWkmlWM3lJdV9lzqmVnJZOR5KDtJHxePE4/gmD9z/TwnyBVSfJvidhc+UIzZ59YRTS+gkJBgSyGr2KFnj6UZdXl1i+vsqTC25AAKGhWVEnqXVOobjEHOz38DpMqpzJO67eLsKYxcWuiCuYEOoOeadzJY16VNZ83sbe16kWdTJ6sOgXPLUmvJhEYR2usRHP/STpO5/cf8Db+RDH/lHdLp/T5Ic4MMf+RVUn8fCUvULGxvSTndp6CSWsZFLRkg4vC59WkVMteQSA7FnmZ/5Pzz80HWY/jaSLGH0cG4zps+BPIfKi4uZXPXLU1pSWZtIZ6YvXQ7Sqo6pJVepCil9nOyn2zlKbh5vM2T5NowXEcIVBGaBBFWHWV3nOd8NfXkRC6aUXGYBROM6nHUx/wKWFq4nDzvxNofhyP1LuPue/0sIr8bYAmYoHswKI2tpJmiwUZhKcolEVTGu7m1h4L+Pe+95gjxcjbd5ALx9Bx9uwGwnJg6EaNDkctJ6LiymcuHaIBolxSEs4vRpTHKCbcXoRDsmaZRqpFhBRi2HxcLIKWO7bcZTOVsj5+VO4UTXNS5evOQCCD7HJXPAy/C5EegCaaGPeVRyCoMFMNTTAlGljwve66ntDbnOBkl7mhchVCF4EEhFMXKGC8GljXy10XKo0k9tyacCyWY31F+mEyPONqwuyST5cbnLlPODZFM+AKaZXA0uViS79NL1J2pwYZHsyBcvdB4aXKJIrnRHLnQeGlyiSDbLkxc6Dw0uUSTOvn2h89DgEkWSa0OuBhuDZO7K/ELnocElimSpvbzqQ5viaHYNLh4kh7tXjHxgZg25GpwTJEd3/dCqxRCRZnmkwdlDtl79xpGVa5W4iVO0IViDs0Oy7SX/6mS7pxo0OCMkz+0vN8MP0cisBucCic+XYgxOiUMiSCHJGoo1ODsk3STFa20/n5VboBpyNTg7JDt3XI2X+mbRhlgNzg2S/c88s4pc5e6aBg3OBgkhBx0q9CIaNy+INt6pDc4KiWcBz3C3u6IxNGcZ+4pmI0ODM0PygmtnMDdKn+GWq3pgxoZgDU4PgvvHkTV1i7yNhTuLAUbPf+4aTDWSmRe/roqgB8VccURyWWPBb3BGSMRmRz4oyRXRsKrBmSNZFULR4l5lqX3aUKzBmSBGuZnAniYSTIOzRWMtbbBhaMjVYMOgrBNCSUUKT4kGDU4fCuufy3WpHXbU4PwhsWCIi29EC0ll8QBZH8LY2UzFLLLZwNHgFKDC8OiSbqfLwtISrXaL61/5aqxupS8w6VWDBpMg3avvM1PBJQkWhtvKTMZ3AZVn2ICM6GnNuNlgMqrZoorQ6XToZwM6nQ7Xfs/LUNHCt2vMgbBR8hucArSUVKrKsRPHmZuZ5UUvuZZvfP1rjJ64VcZuL32iG4/VButDfQioKEmSsmlujsXlJQ4dPMBMp0uwUOhjjmjMF0Tia8FddseNNDg9RFOEKNu27yRNW3Q7bY4eOUTAE2xAsBwzBVpEkilCAqQ0kqvBetAQPHPzm9i560q8z+l2W6QtELdCLofJ5QhelvHSw+sypn2s8lttyNVgbWi7leKznL/+xte5/pWvZPuuK8g5QSb7Sef2c/dH/x15+jy5O4B3B/DuCEFXMHyNZA0arIbOdDfx4mtfyqtecyNZlvHia3bRmTtBOvMsN9/xz1jMv8L89sOE1pO42f38wtv+OV5OYNKvznJu0GASZMs1j5k5w8gRzXnl9+/kB36kzdYXLLD/2LeYnd9Cv7+NT+77LG+7+RY68gI++dH/TpLvRK2N2FSeTdXgPEC9F/LMM8gG+OD56lf+DNMj9PKn2bKthWeBwCF+6W0/xezmjMceei9In/Jo3QYN1oJ67/EhEMxYXDhBCIEnHv80Pk+wfCvk21hayNi29QpOHFvEdTcj1kJIkMZjp8E6UCMDAirCzOwcS0sZt73rPkL/Sh689zfZ1H4VV17xGh578D8y17qau+58AAkziLVYyx2sMa82AFCTHiYx6K6qY+v81Zw4uJ1H7/kDZOWVPPS+3+PIU9uwpWv4+Id/l4NPCRo2IdaO3hNjGF+NbHD5QtovfL+pa2NA4sC1Agsrh5iZadPrB/LlJbpbZ1g5fghUmdv0AnxvLpJrZK928cBTSLTR1C4PJCoJGKgKZoGQC91kG74f0ACd2U2EQaDVnUWAvO9QhEnEgnL7//oQGoJdDkhEFFFBpDj+sogEJwgqIKarhzqDScQqcSoEq2M9T9gG0ws1GT3LudyvGP0hpNh9Xdsse4otvt5tpxois9HZphtJdAi0Yp+ixAg3Barh6wxFyOn8bJxIjdSafjSGqgYbhotm7aaRVJceLrjkOlXdrMH04aKQXA2JLk1ccMnV4NJFQ64GG4aGXA02DA25GmwYGnI12DBcFLPFBiWk9nf6w7M35DofkLVpEh0B6jvYy8HEiJ4n00uwZO3l4WbZ+JygRqyhg0CIDprSAwwJbQSHiYElCB3EHNO+T0FlVbCRoZNyE3T3DFEc1GVjxDKBIJ6gGUGPkydP8o69P4l3h/B6FK/7CXoIyLgUOrdaPEZq4tXgzDBR1ohhMiDoIrkc4Mpr4Pa734TOPEUmT5K758j1Od5x278l0FvrKVOFZrZ4HmAoRiDIMsEd4M4P/gw/9fM3kCXfJJl/hnff+zPMbDnI7Xf+PDPzOUafade3oFHozwPGVA3p4/UArn0kSjHr4VrCW299ExKO859/83+AbsFCXvP6nU5U8bkabCQESBDrQmjz2KOP0Ol0SGSewYrw3HNPYnICdAHTRUxXMMliLI4p1k5UmiiB5wHxwBuxFLUZ3vKWvfQWujyx7/fYPPMKXvaS1/O5x3+HkHf52X/zZrLFlQud4XOCRufacBgQMELc9GIzJP5qHnvgD+gf/x7uf+/vc/jpqzjx/FXs+8h/xfkX0e5eVexq16keFmXmmgemOPsXKUZMEMSZYvHOZIWgx4AcrIvgiMp7DpIh1kLDFah1iQdQTG/zNAr9RqDYW1cSa/ghBXm2Fq8T4uAR94CaeMQUzGH4aVa3gIZcG4b6xt9R2ZOgFuPLVuEQpJBQ1SGq9V9NL8Uacm04BKm27jHy/2jwvHhf3JA8/Gya0ZDrvOBU415PN5nG0cwWG2wYGsm1gYjnKk36Zlyfmn79ahIacm0UDJByOLSRL4ZUspFv5bRDuFycKM/obMi1gVgdKqowR4xJqtH3kWDTRrFJh7425NoQFPIqDGeDVoQIWk22ujuzFLQqwlhN0dKcqhLCaFitRqE/TyhtqeMumTL2r37vxY7Xv/GHJ34uEjtGI7k2BJPZIWue6Tw9EmocZoaIVOd0BjMww6k25Dp/mF4CrYU//eP/V72ujlYUwRfDYzMsNjgrmAV+4PVvJBQSrCSWSHNKwXmArXGd7L6LG8NDYB0LJ04A4JIEHzxmgVa73ZDr/GAyccodQrn5uHVxSogFhWQSodVq8fyzzwDwspdfT+IScu85dORQo3NtLEY9HErlN0IQc5FOwRcKymp718WASTasYFYNhYsLUXIlLiHLM9IkJXGuIddGQWqSKh7nHGdQYPiQ0z94mB3Xvpa03eHAwSeZ6XRYWVkqfh0YJdj4MtH5RTBbRTCnSj8b0KbNq2+8iVarxRf+9I9pp63iDm2GxY2AjJFARXAqpEnK8uJxtmyexW3pcPjo39BfeYbULbGyfBDImUSg0bOULgzBfAjVBXFYnOnO4POcLM8QEW563Ru47vobmN+0ubFzbQRWO/tRbDEWfB6YnZ2jt3yYdus47ZkBh499lfnuNmCWYFsI1qnWGFc7HNbfnd8hs7RlmQVEHOocZoGbfvD1HD9+nC9+4U/p9/skLiFttWh3Og25NgqVU6CVw2PAOUd/sETijvOBD/4iu65e4kP33cNTf/s087OvYKXXihszin0ZZlKEWrh4sGnTFl50zTVs2bKFEydOsLC4wN/89TcJIaDqAMizjGwwaMh17lHIG9PCbRkgQ/AsLC7SaS+DPEN39jv08y9y9z2vo3/8Ot5/9+/hbHOc4lu529qBDBe37QIq+iqCN2Nh4QRf+8qX8CFw3ctfwaH9+wnFeZ0qUlnotbFznVtobSYYhzWHmIvnJ1kgLB+hlfawcJBu+xCbNx2g3XqSrZuWOXrwOzhbwVmOWkBtOCGIW9OseuqFglNldnaW3Hte94Yf4tD+/fRWloFh2bUwUUBjoT8pJu1Ir1dg/TOIw1j83qGkqJSn6sLOK7cRsqO0kwEtzegvncB5T76ywK6tsyRhGRdWSILhTIikyovzMIexIy4EvUQElzjMjBtv+gH+4s/+hOWlxVWeEHU0w+KakGLLhAcZUJ6oC4JJCoCRF/e1EWlh1cJ0JIKKQyTj6Ilnme0uIOEQW644zsrykywvP8W2OYflfforTzE39xyDpEO/f5jcd8FmcNIm0AbawAwwD7QvyHwxyzPIYTDI+PpXv0LiTk6dZlPsBKgIZoJKm36+yJZtRm9wkEG+GDex2iyCkLZyujObOXYIWm4LZg4sEKyPmKLWRuQEL3ppn7e/80cY5H/J1S8MWHaUQe9Zup0T+HwZCW3UZslWOsx1r6TXS3n/vfvo5Zt54KH/wOLyPO++8xPk/hqMrSNxv04Na9nJzs5+VulYa6CRXBMQLOo3wTKQPsu9IywuPUl7roj6EOYxlOPLxzHdgclWkDkwx1Ar8sCAYAus9A+y3PsbZuefJdgyaiukuoAfLKCyTJIcQ8xYGhyjteXFGAnve++P4+2F3HXHT+Ja12F+B8JVU7I4FNGQaw0EyxBdQdwC77tvL0EOMDOfoRogdAkhpd/PcGzmnjsfI9gymItKvAgqHgtLiCyxZfMcV+26iv7Kk7zn1scYnIBff+Kn0GSZbHCIMMhptzpsms1ROU4rbbFj+yzPPHecjz18H8eXtnPb7s8ibm39Zn2sRcmzo+p6Ugsacq0BQxREAqpw1217kZk+aasfN7JaG6GNz5V8JWVu9iVY7kZsnKE0HIQEP+iQ9TaT2NU8+uB9SLZA3j+M5gOc65A4CB5mZlKCJQxy8GGGTVuvIdgW+oMZct8hPQU952JCo3OtQrnInCNqqHoGfom4NAPgwFoIaSGpUlrJLCFE/UMsDoeCoeaAHt4fwIen2brlCHtv/9dc8+LNpG6JEI5joYcPOUIAyTGEQEqweRYX57j3g59jpbeLdvdlLC3PE5g7A53rwqAh1yqU5ArRfimGD77YZp8ASfHXFbEeBKcOM49JjooH86gIEhwicGLxIC9/2Qs4fPjr9FaeopUuEfwimI+kwjDLQXy0aokjhJQtW6/i/R/4BFm+k5vfcRebtryQQDI1jjkNuSbCavat6NUApao+GoYSGFmiid9Y1foqCa1kNlrdbQXnBsASvd4CSkoIQAhYkYYhqEtBPWgPwyGyFWQGVAkWbW/T0GjTNYifN8jYu9KBJlrLI2pOf1b+RtEi7LqoIBLvX+ot01vps2luM8t9odPu4tIrCF7jc8WKHT+CGYhLUedx7R553gfr4pI2uR+A+akgFjTkWhP1HS0iOvR2WNM8Xi5SR1U+rt4Y4NHEMTOv5CwgqTEofLt6PkMQVLV6tCEM6EEISM8Xi8FGnvXj0LuhpT63uKiWf0LwvObGmwjBF451FxrjTXkSH3gprvIeMZAQg+fKoLgyTAIeH00LzhMkI0iGl4wgg/gej6EE0+p500QsuIgk1/gaXn238ah78HnLEaP+U7aO1BrDSXa1mgXMQHXSAwvHekpdzgp70rRR6yIiF8TK/MqXvoiqI/e+9vmF9CWvSaFTvv8sk5v44cXhT386uBjGnhGplfscp8prbryp8Hw0QvATvRM2GuW29Kic62lflzvOj+Qa73RjPCklkxVOZi5JUFVarZTllRXSJD0v2Vwbq+PVnBLW3L5/eeAMu9eonWe920prcqB2wJvUbhif9ovS7/f5wp//CQCv/b7vP7MsnjMUBaiOITuNa0LYkVO7Lg0kscmVMizsyTH0hRy63Q7jBJh4gg2K71NMAiY9YpD/BLEEtTS6rlBUp+jQUFk44okIWZbT7c6cy/KeJs6FW/HpSrzxtKaXbIrkRG9nN8GFdjzATxXkh1GHW0M0XkafoEfx7ihBe+SyyK5rlJvv/Je05o7h9ThBBiBWkCgKz8r4WNiIvvf6V/La7/tB/urLX8JpEVr7vGLUZflMLpEz0dWkprPJWF6mC8WwOGmqO0qkcbEtUnutoBL3EqgzAivc9u5foT27iHdP89TBP0Jmv8O/+LnX4Ft/R3AHMV3GxFdpgVQEa3e6OJcQQuC6l9/ADa9+7QWq3rMd2s4k15NIPZ1QLMFKX+1qaaNOrElYv9AGmC5z850/DfpF3nnXj5O3/4Lujq9x2/t+jN3vexOSHiFYr3rO7Nw8S8uLzMzOcv0Nr0JU+MZffYVvfu2rfO0rXzpX5T2POFPJV//tdEOj8BqVXOsTK6JuGrBg+BDIvSf3HlHl0X33gzvEO9/7iwzsOQ4f/zbz23J6+fP0s4O4ZAASEFHMjBe+6MX8g3/447zqNTei6vi773y7Mp5OU/jGUVz2Cr1VyvW5XGAQAiID2m3HwomcmfZOsuU5Unbwucf/E4sLW+mqREVfhG9/8+u02m1eet3L+eqX/7LaXbPe7pIGFzdUhEKBjP7fUHk0rXFF1G1TokLiHK00pZ2mBO/ZvftX6S3M8IkHfofvuerHYPlafv3j/5PZ9Hu59V33keh8sTtGKuX1hle/lq9/9cs41QnS6tLq1ZcD1FtWBJioH5lucRNmoaRPuqh9H9e/PCHEK1FB/SZ+6zNfID94I0vPvpbPfeiP0cUbefCe3+XgsynKZoIJZjGQxQ++4Yf5yz//M4oNuzU3ltrsq/k3Xf+6137AIB4caWOHdk+KyzQuPaxmHhUVgvUwPQ448NuAlCDLiOQgcZu74CDE3chmCig+2CpPiNXSa/oWby9nJOYywBeKdaC+UL92U8rYHYUbnVmhpM/Ee1wOBKRmIEUMCz6aLEJeWbLTVPF+qF/JSfbENbj4kbj2YvVGCvfZSpk+zcYtKTeUeP34vngXzI/cJ0ZlRC3jOZ3NzHB6Z5WXJhJrP1+9GZdHZ9pUa1FS6q4rFsfl4Zf1ycQazz1dsp8l2S6EJ8alhES7B4qXp1+Ra1V+vVFHG7jwqLRyve70Gv98y6VGDp4dEmk9z1quuyfruSer/MkKef3M1NNrvkaSTBcSzwGGO1pGIRPdcE8dozrbuK3s9C3SYY18rgU9S4e90lPjXD3vdNMbx7Sln4guRCv4hDYelxOTTRMTflDcVt5e+oDHqCihimUVquFx+Pz1JhGnq0KdrZwbT2+j5eapVu9pPXPsR+v5L57r9BNCFr25QqFg1/chWMxdac80fJU5Kw2oJZGseG+rM1FNFIp7rLipPmsEkCAkJiO/qQol0aZWVY6cRWMLIz8u7MBFBMDxxeNCTxRAQi0vxbe18p9xdsrymxTpS5Wn8vADEyuO1WOkDerdc2IepPhchvW4Ot2yDmL6Mla5a+XBJjyrjkStDQE0OMQrqaZY7hkGijVQIWggqCeojw6AGlb1AitdTccaXsr/pCBYKV3LxweNBtUBpJqixEZWkcoJNGggkMc84DENiEKI2RumP5JoLZ3xyi0JVpIqJNhASLQ9lr4V5fXkZFX5kUDQkzduqJNYh++FIt8j5RdSaaEVyWP6se5zgsujM6YGgkAoGliKtEuSjAwg5WfRfj1CyPI3ZfrOu8gDU1LXJuS+IlRQH7e+qSeoFR09drqSvDo2qibtbA7LDRcc73zrLVhmQyaHABoLEdTzxOcejw+X2MjSgiAeM18UoOjl440LkcDFGqJ6AVMsAwmKkiBeueVtt2KZkYgj5L6KXhcKcj3+2U/HtCWSnMQwDVVH8MFHEolVZ0tbrdLrjS+mKGmM52AOyZVb3nYbllE1rpSi2BlePE989tMEzbGio2XkkWjFCoWWHYi6RCtimYoiProISNHttYyXWnTsW952GwwMNUEseoug4CWm98TnP110rpzgPD4JBA0IhtTUCSk7Uk28CoL6YbtIUCQTWq5DyAwXlJvfcguJJThcrPSCqp6AV8/jn/1UQbJY/6FIv5yklXkopZs88OkHjGBFJLzo9WwBnLpi13EgYAQJmHh8UaFec/7gD38fX/Umz1PPfhfTvGJ0yeq4N9SRSAsJDofD+ZS3/NxbSWmRuhQ/CCSSQhB8Fmilw00ZsbFi+jEfsbCf+Y3P4F2OJwYBGVgPU48VPQuJZdEgSEjQEEkspjif8I43v5OUlMSl5INAKgmEcmWs5gkqUXoFKaR2kf4nP/treOcx8bHczmMa80hZBwHUBLUkSoWQ4EKC+oS3/tLbSaVFqi3CwJOU6Vc8KVzPpah/ZwSJ677eZXzq85/Au6ySrEHL9IeySwqixrRLMisupLzrl29FMiURFyW1F1KX0lvp02q1sWBFZymHxFDUv5Frzqc+/2tF+4eiw5VcKKwC+/Y9Gru5xQp1roXP43JQXCss2Ihh5JWV3ZwnSwZFhULQnE/9+0/gNa8aoIRaLNjb33wzGhxqsXCzOkvoG+YDnc4MK8t9EpcSvNFut8mzvGrfag2z0Hu8egaaxd4jHq+eJz73yUKyBsqdz5HcUdy//c3vLNKPQ8CsmyX046kQ3U6XleUVEpeMuBnHRfRy/PSFXDa8ejIdjKT/+Gc/WTVweexw5GZM/+ZfuQX1CYm1SCxFvYNcILeR9KP0ieNdqKkndX0vaM7ArZBrhqkV5f80QQuVpSJXJJMGx9t/+R24ov7TkJLmbVxQBAg+4Io48oX4ZwQy5AFl/bseXnOCFOl//vGh2iSGPLbvUbNgReQUqSpVRGPPq0V7sSI00Kg0CVWi9QcPZU45BAyHgbJHaaXAVoJ1KC0YP+TEquG3cvcRK/SOeq8qFb9Rm1pMTwulXYv8aFWJdTKMmElsODyYFUOQyEgvtlKylO+Lnj5cjSiGYXNRv8HVlPcyPWrpT0aldBP94Ib1DUECXkMh2cqb65Irllertoiki+pMKNZyQ838tHrqWAZLKfW6YZmpCBYqpd9IqsqtP8GYEPTCKsU5ziggBj9LigawQmIM7x/9eZSMo0fxWo2I47Cx8lmUKEY1m1GLOowV+S6lSqnJyohZoz4bHpJ4vIzrva7CgROHeRWtqTW1WWVZtnoZyolDQVipflPP/5o1USNWqUNq1F0ZKulB6ukXZS7KW5JZKIfdmmQtD1LQ0bZZjZJW8VnOHOCq9JOCWGVJkiBRuS6yVxWgfH45Da3LEVuVVHnfONuHca7KqDGhIEkptssxPb4z6lyrz3yqJ5baqsShsiZHV03XVs1mjaEppP7sclq1ygwy+swqSpdJYRMa3ik21DFLyb3mk3AAAAXbSURBVFHO0qo7iy/HJ6xlGiXxxstQfSKlBjP0vavqkdoMsMx6rRxlvoZSLaoYsTbqo8do2nVIUd/xGZNGGRtpw6T8ouBjFVhMigeU08xyt4+ZVbVSHTZUy0T9PEGzAMWkoNxNbeX0baLkqFW0SFQoywO6a41pDHNdf716WBv9BBk29iRJIcKEDFGlYyM3SD271SdWf1ccUaJWO1ilRpbYneNsd1i+oXSxotdOMnxWtq56IctcWa0Gqu+GbBsREzLs2iNfTkiz1PdGbhypr9HOk0Q+ekSI27l8zWGwjC5TEqmWqqgQSl3NQhVjajQzCmYEo3JdFgwLAaliUq0emOrlKskabU5F2qukZNlzR2tm1bPGfjZaf6ulbi0TNboy7HTFz+qpl/eZgJdILBcEZzUDZAjViKCF3hjlsEdFoy6IROGiRRilSQSr8jPW5KVwt7KuynvHmaMTPhutkbGutDoTozkZeZeU7sxmhiuOOSsfKzYMgIbVRLwKeT6MoZW2WgwGA1qtVjRd+OJcvorpJSmi7cg5LWakoy1dFaTuVaFRguW5H+3ypwIZq5yT/u7UE5Cxv+MIGMGBC56Zfk7bFyaLmp41nAxEaiEegqEkBG3Rcx3i+onVTucYzeFaOa1UlVU3jH2w1npQfTg/Q1SBSESE3qAXz61Rx+7du2klKf2sz75H9rF7zx4efeRR9uyNf999x14+vu/j7N2zl3379vGe99wZjZjAvkf28e479uLU8dDDD3PXe+7ioYceJITAnr17ePjhj+FUV8XdqprWCvGqwk/8xE+QZRntdvssinkqWEdyncavIEp0JOBlwGxvmc/dcSebsj5BM9Baq5XKr0rUZywHMzJvHKPLy//Jmxhoa5UudPY41d55dkjqM4ayoXOfIyLc/+AD7N2zhyRNMYzde3dXPxSEPXv2xKxaVNI/vu+Rke8feOBBxCDPM+64404effTRmGjioj5Vx4TyisSQjiJR0k0LgoFoPKZFs2W2kbGVFcz6KFG/0uJI4iwfkA9yBKMlUcUYeCPpOBLzG0Cs84dKURr3larP8nq9Hvse2Qcw/LtvHyJSEcYskCYpt+++HQuxR959991keYYRK2337tvjvWE4iyxjcK2FMn6CS1yMkzUFl0scSaK0U0c3VQZLx8gXj5AvHWawsJ/sxH76x56jf+w5/OIh0nyZdr5C1/fp5H22poob9Ipj8aYXI1p4mqbVUJWkaRVtxqny7jvejVPHnr17EI0RaMphEMAHT5Znlc+PU8cjjzxCmqR0Wh0+9vDHCCGeG9hut4e2lXV2VIsoIXja7TaqjiRJcS65+K/E4ZyLFm9RpDuDzcxCdxbpzCGd2Xh1Z5HuHFnSIUu7LEubvuuy6B3amY9Sa2QmMV0YIVe/368Uc5/n3Hnne6rlCB88Dz/0cJRCwUjKyivg1LF3794Rh7Nbb3sXuc+rrf4PP/wxtIi/FaP1rV9rIXjy3FeRBcuZ6cV+Be/x3hM89CXlaGuWA+3NHG5t5WhnO8c62zne3c6x7nb2J5vZn2xhf/sKnu/u5ODsVexPd3JY5ulLQhmffhoh+/Z93OpD0yoFu5DM6jTGKs2y+N1JvFSDD8VwltDrrYycz6duyOlVulcNufe0WilZlpMkjuAv/oquGymVnLbPmMsy2j5D8agUBunSXqqKiWOQe8TiZMDh6GvKYrtLX9OxcEq1tE4i0U5thrxxSEZsGRNmbiWCD1XjlsRajxjls3yekybD4fa0MudcsaCqWLgQEZ1PH8MsKmIJXpWlNGUlsYmtHU2/Cq3aMxCCCJkVFu+1ErO1CXYx1FQCVKHTTzVD65HqssfQsgkoXpTgShKtVcOT7GsGpzAkno0H7EbjvIUKH4krf5mQc7hmd/I7V6P0UImvpxEXVRz6BuOYTlKVaIKlN9gwNJJrFdZaXzxdKXJ5DP3r4TIl13oEqpNotQvP6T3v8ibYpU+u9daj634zNk6g05VUdYKV0++zINclcPrG/wf6x+l7FFg/5wAAAABJRU5ErkJggg==;fontSize=30;" parent="2Xh3GLrlYR4H0rZl-e0W-79" vertex="1">
          <mxGeometry x="10" y="10" width="151" height="177" as="geometry" />
        </mxCell>
        <mxCell id="Si9AKmO1rTwMyrS4tQQ6-23" value="" style="shape=image;verticalLabelPosition=bottom;labelBackgroundColor=default;verticalAlign=top;aspect=fixed;imageAspect=0;image=data:image/png,iVBORw0KGgoAAAANSUhEUgAAAJcAAACxCAYAAADJai9SAAAgAElEQVR4nO2dabBl11Xff2vtc+7whp7UgyzLtoQtLMuTEOABUoFAhVQllQAphxSBADHGgyxL6m5LFrJly/KgyVJbxrZkYjtJURAIRYWQSlVSJCm+pJiM8YAnbMBCY8/Dm+695+y98mGfc+659933enzdfbvPv+v0u8O5Z0//vfbaa6+9trzxDfuMBmtATvKdAIYQEHqILID0ATBaBJsHayMIwgD0BEIfMIw2FjbHv8XzZCRNi5+vl4WLHElm117oPEwplLTVJR/0cDbA6QHQ50AOkKQJy705Arsw20FiKSqHEZ5BkkOAYWEHZteQhx0EEQxBTSqKQUEvm96+nwQ2X+g8TCmE/sAhGE6XQI/xoY/cQrt7hKXlZTS5mjt+9bdwyQxhAKpH+fBHb0PdfsAIYRd33fk7iG4ihHlcMo/lHiySK/4ppNeUQm56/f+e5vxfOAikacpg8Pe0Wt/i/gd+AZ9/i3s/eDudziy37r6PtPu93PWej7J5Zob73r8blee59/27AeGDH3yULN/BPff8BoPsBmDXyMONimdTS7AECRc6D1MKYzAYoOLBMiws0Jk5SpC/JWeGzsxx1OWkSUYIT6PueVxYRMkBRWWFdnqIRPcTeCk+BJBIqEisQoJhFcmmDcn09osLCxVBUJTNaP+lfOA9n+H+j7+Kjz36NoIIfrDIXXsep203YNmXCZkn0TbiZwGH+i6IogZqSjAHYoARKoKVqU1nGyUXOgPTCrNAlg3opkAA8wEJRshzAooYzM3PcfTwgNnZNuoSCFn56+KS2gWTp4bCtJJLRwt4sV2ni41+/hAGpGmLwALS+ls+fP87ENvMR+/9be7/wH8Bv4Vf/cAv4Ob+nn5YJGhK0AxzS5g7QXDLBIWAI6hhanEIRBATxBQ1h5hDLIEpvJK1K3k6e8uIgrIuf86ufAJk2YBWCqZKFlokYQdZ70qwBPPbWeoFBrmjo1fh/S5EMrw4BE+gjQ+7yG0XnjYmpSQbWrzMQEQYfjNdkJve8Idr1HIpui9eSJG9kk9ioxJpfSPkycsn62rSBnhEeogcR/VJPnL/T+P0edQgD7u4657fJ/e7aLs2vZXv8tDHfhbnno/k8lfyvvf+N3y4BrN5LLRimsVMcViuaaRVxKVNrpNKrlMh13qS3RNn2wZyEE2+hdNDOIwQriALr8CH7ZCDuiNI8k3UHUYJmN+OD6/CbOfwkWE0P9M6SywxtQq9AUHja7FRCmx8o5QJOAwFDLMdWD6HJ0cIGA4fUpIkQVKH2XZCuIkQsoLTKcjMyNOmnUzjmFpywaQ5VrFKV+gpcelko1qsNnwB0AE2EwkXMMtQGRBCwELAB0ea7IzfG0BAyAC/Qfm78JhacglxRBpO1I1QDHVihUhD1/j12aK+qBwXrsEglB96pLBZmQkiQpooZoO4iF2JKD981iWI6SWXgdZ0LhNFArTbGT58FzMjhCsx5s552pMnCoYUZClXPeKQGfU2M6tkXTUbvGRpFbFRXfu8wIrlkiAKkqJ0sOwQneSPePD+H0XlwPBeO/1lrmopZuwaJZZgaLzE4kWkWkmlWM3lJdV9lzqmVnJZOR5KDtJHxePE4/gmD9z/TwnyBVSfJvidhc+UIzZ59YRTS+gkJBgSyGr2KFnj6UZdXl1i+vsqTC25AAKGhWVEnqXVOobjEHOz38DpMqpzJO67eLsKYxcWuiCuYEOoOeadzJY16VNZ83sbe16kWdTJ6sOgXPLUmvJhEYR2usRHP/STpO5/cf8Db+RDH/lHdLp/T5Ic4MMf+RVUn8fCUvULGxvSTndp6CSWsZFLRkg4vC59WkVMteQSA7FnmZ/5Pzz80HWY/jaSLGH0cG4zps+BPIfKi4uZXPXLU1pSWZtIZ6YvXQ7Sqo6pJVepCil9nOyn2zlKbh5vM2T5NowXEcIVBGaBBFWHWV3nOd8NfXkRC6aUXGYBROM6nHUx/wKWFq4nDzvxNofhyP1LuPue/0sIr8bYAmYoHswKI2tpJmiwUZhKcolEVTGu7m1h4L+Pe+95gjxcjbd5ALx9Bx9uwGwnJg6EaNDkctJ6LiymcuHaIBolxSEs4vRpTHKCbcXoRDsmaZRqpFhBRi2HxcLIKWO7bcZTOVsj5+VO4UTXNS5evOQCCD7HJXPAy/C5EegCaaGPeVRyCoMFMNTTAlGljwve66ntDbnOBkl7mhchVCF4EEhFMXKGC8GljXy10XKo0k9tyacCyWY31F+mEyPONqwuyST5cbnLlPODZFM+AKaZXA0uViS79NL1J2pwYZHsyBcvdB4aXKJIrnRHLnQeGlyiSDbLkxc6Dw0uUSTOvn2h89DgEkWSa0OuBhuDZO7K/ELnocElimSpvbzqQ5viaHYNLh4kh7tXjHxgZg25GpwTJEd3/dCqxRCRZnmkwdlDtl79xpGVa5W4iVO0IViDs0Oy7SX/6mS7pxo0OCMkz+0vN8MP0cisBucCic+XYgxOiUMiSCHJGoo1ODsk3STFa20/n5VboBpyNTg7JDt3XI2X+mbRhlgNzg2S/c88s4pc5e6aBg3OBgkhBx0q9CIaNy+INt6pDc4KiWcBz3C3u6IxNGcZ+4pmI0ODM0PygmtnMDdKn+GWq3pgxoZgDU4PgvvHkTV1i7yNhTuLAUbPf+4aTDWSmRe/roqgB8VccURyWWPBb3BGSMRmRz4oyRXRsKrBmSNZFULR4l5lqX3aUKzBmSBGuZnAniYSTIOzRWMtbbBhaMjVYMOgrBNCSUUKT4kGDU4fCuufy3WpHXbU4PwhsWCIi29EC0ll8QBZH8LY2UzFLLLZwNHgFKDC8OiSbqfLwtISrXaL61/5aqxupS8w6VWDBpMg3avvM1PBJQkWhtvKTMZ3AZVn2ICM6GnNuNlgMqrZoorQ6XToZwM6nQ7Xfs/LUNHCt2vMgbBR8hucArSUVKrKsRPHmZuZ5UUvuZZvfP1rjJ64VcZuL32iG4/VButDfQioKEmSsmlujsXlJQ4dPMBMp0uwUOhjjmjMF0Tia8FddseNNDg9RFOEKNu27yRNW3Q7bY4eOUTAE2xAsBwzBVpEkilCAqQ0kqvBetAQPHPzm9i560q8z+l2W6QtELdCLofJ5QhelvHSw+sypn2s8lttyNVgbWi7leKznL/+xte5/pWvZPuuK8g5QSb7Sef2c/dH/x15+jy5O4B3B/DuCEFXMHyNZA0arIbOdDfx4mtfyqtecyNZlvHia3bRmTtBOvMsN9/xz1jMv8L89sOE1pO42f38wtv+OV5OYNKvznJu0GASZMs1j5k5w8gRzXnl9+/kB36kzdYXLLD/2LeYnd9Cv7+NT+77LG+7+RY68gI++dH/TpLvRK2N2FSeTdXgPEC9F/LMM8gG+OD56lf+DNMj9PKn2bKthWeBwCF+6W0/xezmjMceei9In/Jo3QYN1oJ67/EhEMxYXDhBCIEnHv80Pk+wfCvk21hayNi29QpOHFvEdTcj1kJIkMZjp8E6UCMDAirCzOwcS0sZt73rPkL/Sh689zfZ1H4VV17xGh578D8y17qau+58AAkziLVYyx2sMa82AFCTHiYx6K6qY+v81Zw4uJ1H7/kDZOWVPPS+3+PIU9uwpWv4+Id/l4NPCRo2IdaO3hNjGF+NbHD5QtovfL+pa2NA4sC1Agsrh5iZadPrB/LlJbpbZ1g5fghUmdv0AnxvLpJrZK928cBTSLTR1C4PJCoJGKgKZoGQC91kG74f0ACd2U2EQaDVnUWAvO9QhEnEgnL7//oQGoJdDkhEFFFBpDj+sogEJwgqIKarhzqDScQqcSoEq2M9T9gG0ws1GT3LudyvGP0hpNh9Xdsse4otvt5tpxois9HZphtJdAi0Yp+ixAg3Barh6wxFyOn8bJxIjdSafjSGqgYbhotm7aaRVJceLrjkOlXdrMH04aKQXA2JLk1ccMnV4NJFQ64GG4aGXA02DA25GmwYGnI12DBcFLPFBiWk9nf6w7M35DofkLVpEh0B6jvYy8HEiJ4n00uwZO3l4WbZ+JygRqyhg0CIDprSAwwJbQSHiYElCB3EHNO+T0FlVbCRoZNyE3T3DFEc1GVjxDKBIJ6gGUGPkydP8o69P4l3h/B6FK/7CXoIyLgUOrdaPEZq4tXgzDBR1ohhMiDoIrkc4Mpr4Pa734TOPEUmT5K758j1Od5x278l0FvrKVOFZrZ4HmAoRiDIMsEd4M4P/gw/9fM3kCXfJJl/hnff+zPMbDnI7Xf+PDPzOUafade3oFHozwPGVA3p4/UArn0kSjHr4VrCW299ExKO859/83+AbsFCXvP6nU5U8bkabCQESBDrQmjz2KOP0Ol0SGSewYrw3HNPYnICdAHTRUxXMMliLI4p1k5UmiiB5wHxwBuxFLUZ3vKWvfQWujyx7/fYPPMKXvaS1/O5x3+HkHf52X/zZrLFlQud4XOCRufacBgQMELc9GIzJP5qHnvgD+gf/x7uf+/vc/jpqzjx/FXs+8h/xfkX0e5eVexq16keFmXmmgemOPsXKUZMEMSZYvHOZIWgx4AcrIvgiMp7DpIh1kLDFah1iQdQTG/zNAr9RqDYW1cSa/ghBXm2Fq8T4uAR94CaeMQUzGH4aVa3gIZcG4b6xt9R2ZOgFuPLVuEQpJBQ1SGq9V9NL8Uacm04BKm27jHy/2jwvHhf3JA8/Gya0ZDrvOBU415PN5nG0cwWG2wYGsm1gYjnKk36Zlyfmn79ahIacm0UDJByOLSRL4ZUspFv5bRDuFycKM/obMi1gVgdKqowR4xJqtH3kWDTRrFJh7425NoQFPIqDGeDVoQIWk22ujuzFLQqwlhN0dKcqhLCaFitRqE/TyhtqeMumTL2r37vxY7Xv/GHJ34uEjtGI7k2BJPZIWue6Tw9EmocZoaIVOd0BjMww6k25Dp/mF4CrYU//eP/V72ujlYUwRfDYzMsNjgrmAV+4PVvJBQSrCSWSHNKwXmArXGd7L6LG8NDYB0LJ04A4JIEHzxmgVa73ZDr/GAyccodQrn5uHVxSogFhWQSodVq8fyzzwDwspdfT+IScu85dORQo3NtLEY9HErlN0IQc5FOwRcKymp718WASTasYFYNhYsLUXIlLiHLM9IkJXGuIddGQWqSKh7nHGdQYPiQ0z94mB3Xvpa03eHAwSeZ6XRYWVkqfh0YJdj4MtH5RTBbRTCnSj8b0KbNq2+8iVarxRf+9I9pp63iDm2GxY2AjJFARXAqpEnK8uJxtmyexW3pcPjo39BfeYbULbGyfBDImUSg0bOULgzBfAjVBXFYnOnO4POcLM8QEW563Ru47vobmN+0ubFzbQRWO/tRbDEWfB6YnZ2jt3yYdus47ZkBh499lfnuNmCWYFsI1qnWGFc7HNbfnd8hs7RlmQVEHOocZoGbfvD1HD9+nC9+4U/p9/skLiFttWh3Og25NgqVU6CVw2PAOUd/sETijvOBD/4iu65e4kP33cNTf/s087OvYKXXihszin0ZZlKEWrh4sGnTFl50zTVs2bKFEydOsLC4wN/89TcJIaDqAMizjGwwaMh17lHIG9PCbRkgQ/AsLC7SaS+DPEN39jv08y9y9z2vo3/8Ot5/9+/hbHOc4lu529qBDBe37QIq+iqCN2Nh4QRf+8qX8CFw3ctfwaH9+wnFeZ0qUlnotbFznVtobSYYhzWHmIvnJ1kgLB+hlfawcJBu+xCbNx2g3XqSrZuWOXrwOzhbwVmOWkBtOCGIW9OseuqFglNldnaW3Hte94Yf4tD+/fRWloFh2bUwUUBjoT8pJu1Ir1dg/TOIw1j83qGkqJSn6sLOK7cRsqO0kwEtzegvncB5T76ywK6tsyRhGRdWSILhTIikyovzMIexIy4EvUQElzjMjBtv+gH+4s/+hOWlxVWeEHU0w+KakGLLhAcZUJ6oC4JJCoCRF/e1EWlh1cJ0JIKKQyTj6Ilnme0uIOEQW644zsrykywvP8W2OYflfforTzE39xyDpEO/f5jcd8FmcNIm0AbawAwwD7QvyHwxyzPIYTDI+PpXv0LiTk6dZlPsBKgIZoJKm36+yJZtRm9wkEG+GDex2iyCkLZyujObOXYIWm4LZg4sEKyPmKLWRuQEL3ppn7e/80cY5H/J1S8MWHaUQe9Zup0T+HwZCW3UZslWOsx1r6TXS3n/vfvo5Zt54KH/wOLyPO++8xPk/hqMrSNxv04Na9nJzs5+VulYa6CRXBMQLOo3wTKQPsu9IywuPUl7roj6EOYxlOPLxzHdgclWkDkwx1Ar8sCAYAus9A+y3PsbZuefJdgyaiukuoAfLKCyTJIcQ8xYGhyjteXFGAnve++P4+2F3HXHT+Ja12F+B8JVU7I4FNGQaw0EyxBdQdwC77tvL0EOMDOfoRogdAkhpd/PcGzmnjsfI9gymItKvAgqHgtLiCyxZfMcV+26iv7Kk7zn1scYnIBff+Kn0GSZbHCIMMhptzpsms1ROU4rbbFj+yzPPHecjz18H8eXtnPb7s8ibm39Zn2sRcmzo+p6Ugsacq0BQxREAqpw1217kZk+aasfN7JaG6GNz5V8JWVu9iVY7kZsnKE0HIQEP+iQ9TaT2NU8+uB9SLZA3j+M5gOc65A4CB5mZlKCJQxy8GGGTVuvIdgW+oMZct8hPQU952JCo3OtQrnInCNqqHoGfom4NAPgwFoIaSGpUlrJLCFE/UMsDoeCoeaAHt4fwIen2brlCHtv/9dc8+LNpG6JEI5joYcPOUIAyTGEQEqweRYX57j3g59jpbeLdvdlLC3PE5g7A53rwqAh1yqU5ArRfimGD77YZp8ASfHXFbEeBKcOM49JjooH86gIEhwicGLxIC9/2Qs4fPjr9FaeopUuEfwimI+kwjDLQXy0aokjhJQtW6/i/R/4BFm+k5vfcRebtryQQDI1jjkNuSbCavat6NUApao+GoYSGFmiid9Y1foqCa1kNlrdbQXnBsASvd4CSkoIQAhYkYYhqEtBPWgPwyGyFWQGVAkWbW/T0GjTNYifN8jYu9KBJlrLI2pOf1b+RtEi7LqoIBLvX+ot01vps2luM8t9odPu4tIrCF7jc8WKHT+CGYhLUedx7R553gfr4pI2uR+A+akgFjTkWhP1HS0iOvR2WNM8Xi5SR1U+rt4Y4NHEMTOv5CwgqTEofLt6PkMQVLV6tCEM6EEISM8Xi8FGnvXj0LuhpT63uKiWf0LwvObGmwjBF451FxrjTXkSH3gprvIeMZAQg+fKoLgyTAIeH00LzhMkI0iGl4wgg/gej6EE0+p500QsuIgk1/gaXn238ah78HnLEaP+U7aO1BrDSXa1mgXMQHXSAwvHekpdzgp70rRR6yIiF8TK/MqXvoiqI/e+9vmF9CWvSaFTvv8sk5v44cXhT386uBjGnhGplfscp8prbryp8Hw0QvATvRM2GuW29Kic62lflzvOj+Qa73RjPCklkxVOZi5JUFVarZTllRXSJD0v2Vwbq+PVnBLW3L5/eeAMu9eonWe920prcqB2wJvUbhif9ovS7/f5wp//CQCv/b7vP7MsnjMUBaiOITuNa0LYkVO7Lg0kscmVMizsyTH0hRy63Q7jBJh4gg2K71NMAiY9YpD/BLEEtTS6rlBUp+jQUFk44okIWZbT7c6cy/KeJs6FW/HpSrzxtKaXbIrkRG9nN8GFdjzATxXkh1GHW0M0XkafoEfx7ihBe+SyyK5rlJvv/Je05o7h9ThBBiBWkCgKz8r4WNiIvvf6V/La7/tB/urLX8JpEVr7vGLUZflMLpEz0dWkprPJWF6mC8WwOGmqO0qkcbEtUnutoBL3EqgzAivc9u5foT27iHdP89TBP0Jmv8O/+LnX4Ft/R3AHMV3GxFdpgVQEa3e6OJcQQuC6l9/ADa9+7QWq3rMd2s4k15NIPZ1QLMFKX+1qaaNOrElYv9AGmC5z850/DfpF3nnXj5O3/4Lujq9x2/t+jN3vexOSHiFYr3rO7Nw8S8uLzMzOcv0Nr0JU+MZffYVvfu2rfO0rXzpX5T2POFPJV//tdEOj8BqVXOsTK6JuGrBg+BDIvSf3HlHl0X33gzvEO9/7iwzsOQ4f/zbz23J6+fP0s4O4ZAASEFHMjBe+6MX8g3/447zqNTei6vi773y7Mp5OU/jGUVz2Cr1VyvW5XGAQAiID2m3HwomcmfZOsuU5Unbwucf/E4sLW+mqREVfhG9/8+u02m1eet3L+eqX/7LaXbPe7pIGFzdUhEKBjP7fUHk0rXFF1G1TokLiHK00pZ2mBO/ZvftX6S3M8IkHfofvuerHYPlafv3j/5PZ9Hu59V33keh8sTtGKuX1hle/lq9/9cs41QnS6tLq1ZcD1FtWBJioH5lucRNmoaRPuqh9H9e/PCHEK1FB/SZ+6zNfID94I0vPvpbPfeiP0cUbefCe3+XgsynKZoIJZjGQxQ++4Yf5yz//M4oNuzU3ltrsq/k3Xf+6137AIB4caWOHdk+KyzQuPaxmHhUVgvUwPQ448NuAlCDLiOQgcZu74CDE3chmCig+2CpPiNXSa/oWby9nJOYywBeKdaC+UL92U8rYHYUbnVmhpM/Ee1wOBKRmIEUMCz6aLEJeWbLTVPF+qF/JSfbENbj4kbj2YvVGCvfZSpk+zcYtKTeUeP34vngXzI/cJ0ZlRC3jOZ3NzHB6Z5WXJhJrP1+9GZdHZ9pUa1FS6q4rFsfl4Zf1ycQazz1dsp8l2S6EJ8alhES7B4qXp1+Ra1V+vVFHG7jwqLRyve70Gv98y6VGDp4dEmk9z1quuyfruSer/MkKef3M1NNrvkaSTBcSzwGGO1pGIRPdcE8dozrbuK3s9C3SYY18rgU9S4e90lPjXD3vdNMbx7Sln4guRCv4hDYelxOTTRMTflDcVt5e+oDHqCihimUVquFx+Pz1JhGnq0KdrZwbT2+j5eapVu9pPXPsR+v5L57r9BNCFr25QqFg1/chWMxdac80fJU5Kw2oJZGseG+rM1FNFIp7rLipPmsEkCAkJiO/qQol0aZWVY6cRWMLIz8u7MBFBMDxxeNCTxRAQi0vxbe18p9xdsrymxTpS5Wn8vADEyuO1WOkDerdc2IepPhchvW4Ot2yDmL6Mla5a+XBJjyrjkStDQE0OMQrqaZY7hkGijVQIWggqCeojw6AGlb1AitdTccaXsr/pCBYKV3LxweNBtUBpJqixEZWkcoJNGggkMc84DENiEKI2RumP5JoLZ3xyi0JVpIqJNhASLQ9lr4V5fXkZFX5kUDQkzduqJNYh++FIt8j5RdSaaEVyWP6se5zgsujM6YGgkAoGliKtEuSjAwg5WfRfj1CyPI3ZfrOu8gDU1LXJuS+IlRQH7e+qSeoFR09drqSvDo2qibtbA7LDRcc73zrLVhmQyaHABoLEdTzxOcejw+X2MjSgiAeM18UoOjl440LkcDFGqJ6AVMsAwmKkiBeueVtt2KZkYgj5L6KXhcKcj3+2U/HtCWSnMQwDVVH8MFHEolVZ0tbrdLrjS+mKGmM52AOyZVb3nYbllE1rpSi2BlePE989tMEzbGio2XkkWjFCoWWHYi6RCtimYoiProISNHttYyXWnTsW952GwwMNUEseoug4CWm98TnP110rpzgPD4JBA0IhtTUCSk7Uk28CoL6YbtIUCQTWq5DyAwXlJvfcguJJThcrPSCqp6AV8/jn/1UQbJY/6FIv5yklXkopZs88OkHjGBFJLzo9WwBnLpi13EgYAQJmHh8UaFec/7gD38fX/Umz1PPfhfTvGJ0yeq4N9SRSAsJDofD+ZS3/NxbSWmRuhQ/CCSSQhB8Fmilw00ZsbFi+jEfsbCf+Y3P4F2OJwYBGVgPU48VPQuJZdEgSEjQEEkspjif8I43v5OUlMSl5INAKgmEcmWs5gkqUXoFKaR2kf4nP/treOcx8bHczmMa80hZBwHUBLUkSoWQ4EKC+oS3/tLbSaVFqi3CwJOU6Vc8KVzPpah/ZwSJ677eZXzq85/Au6ySrEHL9IeySwqixrRLMisupLzrl29FMiURFyW1F1KX0lvp02q1sWBFZymHxFDUv5Frzqc+/2tF+4eiw5VcKKwC+/Y9Gru5xQp1roXP43JQXCss2Ihh5JWV3ZwnSwZFhULQnE/9+0/gNa8aoIRaLNjb33wzGhxqsXCzOkvoG+YDnc4MK8t9EpcSvNFut8mzvGrfag2z0Hu8egaaxd4jHq+eJz73yUKyBsqdz5HcUdy//c3vLNKPQ8CsmyX046kQ3U6XleUVEpeMuBnHRfRy/PSFXDa8ejIdjKT/+Gc/WTVweexw5GZM/+ZfuQX1CYm1SCxFvYNcILeR9KP0ieNdqKkndX0vaM7ArZBrhqkV5f80QQuVpSJXJJMGx9t/+R24ov7TkJLmbVxQBAg+4Io48oX4ZwQy5AFl/bseXnOCFOl//vGh2iSGPLbvUbNgReQUqSpVRGPPq0V7sSI00Kg0CVWi9QcPZU45BAyHgbJHaaXAVoJ1KC0YP+TEquG3cvcRK/SOeq8qFb9Rm1pMTwulXYv8aFWJdTKMmElsODyYFUOQyEgvtlKylO+Lnj5cjSiGYXNRv8HVlPcyPWrpT0aldBP94Ib1DUECXkMh2cqb65Irllertoiki+pMKNZyQ838tHrqWAZLKfW6YZmpCBYqpd9IqsqtP8GYEPTCKsU5ziggBj9LigawQmIM7x/9eZSMo0fxWo2I47Cx8lmUKEY1m1GLOowV+S6lSqnJyohZoz4bHpJ4vIzrva7CgROHeRWtqTW1WWVZtnoZyolDQVipflPP/5o1USNWqUNq1F0ZKulB6ukXZS7KW5JZKIfdmmQtD1LQ0bZZjZJW8VnOHOCq9JOCWGVJkiBRuS6yVxWgfH45Da3LEVuVVHnfONuHca7KqDGhIEkptssxPb4z6lyrz3yqJ5baqsShsiZHV03XVs1mjaEppP7sclq1ygwy+swqSpdJYRMa3ik21DFLyb3mk3AAAAXbSURBVFHO0qo7iy/HJ6xlGiXxxstQfSKlBjP0vavqkdoMsMx6rRxlvoZSLaoYsTbqo8do2nVIUd/xGZNGGRtpw6T8ouBjFVhMigeU08xyt4+ZVbVSHTZUy0T9PEGzAMWkoNxNbeX0baLkqFW0SFQoywO6a41pDHNdf716WBv9BBk29iRJIcKEDFGlYyM3SD271SdWf1ccUaJWO1ilRpbYneNsd1i+oXSxotdOMnxWtq56IctcWa0Gqu+GbBsREzLs2iNfTkiz1PdGbhypr9HOk0Q+ekSI27l8zWGwjC5TEqmWqqgQSl3NQhVjajQzCmYEo3JdFgwLAaliUq0emOrlKskabU5F2qukZNlzR2tm1bPGfjZaf6ulbi0TNboy7HTFz+qpl/eZgJdILBcEZzUDZAjViKCF3hjlsEdFoy6IROGiRRilSQSr8jPW5KVwt7KuynvHmaMTPhutkbGutDoTozkZeZeU7sxmhiuOOSsfKzYMgIbVRLwKeT6MoZW2WgwGA1qtVjRd+OJcvorpJSmi7cg5LWakoy1dFaTuVaFRguW5H+3ypwIZq5yT/u7UE5Cxv+MIGMGBC56Zfk7bFyaLmp41nAxEaiEegqEkBG3Rcx3i+onVTucYzeFaOa1UlVU3jH2w1npQfTg/Q1SBSESE3qAXz61Rx+7du2klKf2sz75H9rF7zx4efeRR9uyNf999x14+vu/j7N2zl3379vGe99wZjZjAvkf28e479uLU8dDDD3PXe+7ioYceJITAnr17ePjhj+FUV8XdqprWCvGqwk/8xE+QZRntdvssinkqWEdyncavIEp0JOBlwGxvmc/dcSebsj5BM9Baq5XKr0rUZywHMzJvHKPLy//Jmxhoa5UudPY41d55dkjqM4ayoXOfIyLc/+AD7N2zhyRNMYzde3dXPxSEPXv2xKxaVNI/vu+Rke8feOBBxCDPM+64404effTRmGjioj5Vx4TyisSQjiJR0k0LgoFoPKZFs2W2kbGVFcz6KFG/0uJI4iwfkA9yBKMlUcUYeCPpOBLzG0Cs84dKURr3larP8nq9Hvse2Qcw/LtvHyJSEcYskCYpt+++HQuxR959991keYYRK2337tvjvWE4iyxjcK2FMn6CS1yMkzUFl0scSaK0U0c3VQZLx8gXj5AvHWawsJ/sxH76x56jf+w5/OIh0nyZdr5C1/fp5H22poob9Ipj8aYXI1p4mqbVUJWkaRVtxqny7jvejVPHnr17EI0RaMphEMAHT5Znlc+PU8cjjzxCmqR0Wh0+9vDHCCGeG9hut4e2lXV2VIsoIXja7TaqjiRJcS65+K/E4ZyLFm9RpDuDzcxCdxbpzCGd2Xh1Z5HuHFnSIUu7LEubvuuy6B3amY9Sa2QmMV0YIVe/368Uc5/n3Hnne6rlCB88Dz/0cJRCwUjKyivg1LF3794Rh7Nbb3sXuc+rrf4PP/wxtIi/FaP1rV9rIXjy3FeRBcuZ6cV+Be/x3hM89CXlaGuWA+3NHG5t5WhnO8c62zne3c6x7nb2J5vZn2xhf/sKnu/u5ODsVexPd3JY5ulLQhmffhoh+/Z93OpD0yoFu5DM6jTGKs2y+N1JvFSDD8VwltDrrYycz6duyOlVulcNufe0WilZlpMkjuAv/oquGymVnLbPmMsy2j5D8agUBunSXqqKiWOQe8TiZMDh6GvKYrtLX9OxcEq1tE4i0U5thrxxSEZsGRNmbiWCD1XjlsRajxjls3yekybD4fa0MudcsaCqWLgQEZ1PH8MsKmIJXpWlNGUlsYmtHU2/Cq3aMxCCCJkVFu+1ErO1CXYx1FQCVKHTTzVD65HqssfQsgkoXpTgShKtVcOT7GsGpzAkno0H7EbjvIUKH4krf5mQc7hmd/I7V6P0UImvpxEXVRz6BuOYTlKVaIKlN9gwNJJrFdZaXzxdKXJ5DP3r4TIl13oEqpNotQvP6T3v8ibYpU+u9daj634zNk6g05VUdYKV0++zINclcPrG/wf6x+l7FFg/5wAAAABJRU5ErkJggg==;fontSize=30;" parent="2Xh3GLrlYR4H0rZl-e0W-79" vertex="1">
          <mxGeometry x="20" y="20" width="151" height="177" as="geometry" />
        </mxCell>
        <mxCell id="Si9AKmO1rTwMyrS4tQQ6-24" value="" style="shape=image;verticalLabelPosition=bottom;labelBackgroundColor=default;verticalAlign=top;aspect=fixed;imageAspect=0;image=data:image/png,iVBORw0KGgoAAAANSUhEUgAAAJcAAACxCAYAAADJai9SAAAgAElEQVR4nO2dabBl11Xff2vtc+7whp7UgyzLtoQtLMuTEOABUoFAhVQllQAphxSBADHGgyxL6m5LFrJly/KgyVJbxrZkYjtJURAIRYWQSlVSJCm+pJiM8YAnbMBCY8/Dm+695+y98mGfc+659933enzdfbvPv+v0u8O5Z0//vfbaa6+9trzxDfuMBmtATvKdAIYQEHqILID0ATBaBJsHayMIwgD0BEIfMIw2FjbHv8XzZCRNi5+vl4WLHElm117oPEwplLTVJR/0cDbA6QHQ50AOkKQJy705Arsw20FiKSqHEZ5BkkOAYWEHZteQhx0EEQxBTSqKQUEvm96+nwQ2X+g8TCmE/sAhGE6XQI/xoY/cQrt7hKXlZTS5mjt+9bdwyQxhAKpH+fBHb0PdfsAIYRd33fk7iG4ihHlcMo/lHiySK/4ppNeUQm56/f+e5vxfOAikacpg8Pe0Wt/i/gd+AZ9/i3s/eDudziy37r6PtPu93PWej7J5Zob73r8blee59/27AeGDH3yULN/BPff8BoPsBmDXyMONimdTS7AECRc6D1MKYzAYoOLBMiws0Jk5SpC/JWeGzsxx1OWkSUYIT6PueVxYRMkBRWWFdnqIRPcTeCk+BJBIqEisQoJhFcmmDcn09osLCxVBUJTNaP+lfOA9n+H+j7+Kjz36NoIIfrDIXXsep203YNmXCZkn0TbiZwGH+i6IogZqSjAHYoARKoKVqU1nGyUXOgPTCrNAlg3opkAA8wEJRshzAooYzM3PcfTwgNnZNuoSCFn56+KS2gWTp4bCtJJLRwt4sV2ni41+/hAGpGmLwALS+ls+fP87ENvMR+/9be7/wH8Bv4Vf/cAv4Ob+nn5YJGhK0AxzS5g7QXDLBIWAI6hhanEIRBATxBQ1h5hDLIEpvJK1K3k6e8uIgrIuf86ufAJk2YBWCqZKFlokYQdZ70qwBPPbWeoFBrmjo1fh/S5EMrw4BE+gjQ+7yG0XnjYmpSQbWrzMQEQYfjNdkJve8Idr1HIpui9eSJG9kk9ioxJpfSPkycsn62rSBnhEeogcR/VJPnL/T+P0edQgD7u4657fJ/e7aLs2vZXv8tDHfhbnno/k8lfyvvf+N3y4BrN5LLRimsVMcViuaaRVxKVNrpNKrlMh13qS3RNn2wZyEE2+hdNDOIwQriALr8CH7ZCDuiNI8k3UHUYJmN+OD6/CbOfwkWE0P9M6SywxtQq9AUHja7FRCmx8o5QJOAwFDLMdWD6HJ0cIGA4fUpIkQVKH2XZCuIkQsoLTKcjMyNOmnUzjmFpywaQ5VrFKV+gpcelko1qsNnwB0AE2EwkXMMtQGRBCwELAB0ea7IzfG0BAyAC/Qfm78JhacglxRBpO1I1QDHVihUhD1/j12aK+qBwXrsEglB96pLBZmQkiQpooZoO4iF2JKD981iWI6SWXgdZ0LhNFArTbGT58FzMjhCsx5s552pMnCoYUZClXPeKQGfU2M6tkXTUbvGRpFbFRXfu8wIrlkiAKkqJ0sOwQneSPePD+H0XlwPBeO/1lrmopZuwaJZZgaLzE4kWkWkmlWM3lJdV9lzqmVnJZOR5KDtJHxePE4/gmD9z/TwnyBVSfJvidhc+UIzZ59YRTS+gkJBgSyGr2KFnj6UZdXl1i+vsqTC25AAKGhWVEnqXVOobjEHOz38DpMqpzJO67eLsKYxcWuiCuYEOoOeadzJY16VNZ83sbe16kWdTJ6sOgXPLUmvJhEYR2usRHP/STpO5/cf8Db+RDH/lHdLp/T5Ic4MMf+RVUn8fCUvULGxvSTndp6CSWsZFLRkg4vC59WkVMteQSA7FnmZ/5Pzz80HWY/jaSLGH0cG4zps+BPIfKi4uZXPXLU1pSWZtIZ6YvXQ7Sqo6pJVepCil9nOyn2zlKbh5vM2T5NowXEcIVBGaBBFWHWV3nOd8NfXkRC6aUXGYBROM6nHUx/wKWFq4nDzvxNofhyP1LuPue/0sIr8bYAmYoHswKI2tpJmiwUZhKcolEVTGu7m1h4L+Pe+95gjxcjbd5ALx9Bx9uwGwnJg6EaNDkctJ6LiymcuHaIBolxSEs4vRpTHKCbcXoRDsmaZRqpFhBRi2HxcLIKWO7bcZTOVsj5+VO4UTXNS5evOQCCD7HJXPAy/C5EegCaaGPeVRyCoMFMNTTAlGljwve66ntDbnOBkl7mhchVCF4EEhFMXKGC8GljXy10XKo0k9tyacCyWY31F+mEyPONqwuyST5cbnLlPODZFM+AKaZXA0uViS79NL1J2pwYZHsyBcvdB4aXKJIrnRHLnQeGlyiSDbLkxc6Dw0uUSTOvn2h89DgEkWSa0OuBhuDZO7K/ELnocElimSpvbzqQ5viaHYNLh4kh7tXjHxgZg25GpwTJEd3/dCqxRCRZnmkwdlDtl79xpGVa5W4iVO0IViDs0Oy7SX/6mS7pxo0OCMkz+0vN8MP0cisBucCic+XYgxOiUMiSCHJGoo1ODsk3STFa20/n5VboBpyNTg7JDt3XI2X+mbRhlgNzg2S/c88s4pc5e6aBg3OBgkhBx0q9CIaNy+INt6pDc4KiWcBz3C3u6IxNGcZ+4pmI0ODM0PygmtnMDdKn+GWq3pgxoZgDU4PgvvHkTV1i7yNhTuLAUbPf+4aTDWSmRe/roqgB8VccURyWWPBb3BGSMRmRz4oyRXRsKrBmSNZFULR4l5lqX3aUKzBmSBGuZnAniYSTIOzRWMtbbBhaMjVYMOgrBNCSUUKT4kGDU4fCuufy3WpHXbU4PwhsWCIi29EC0ll8QBZH8LY2UzFLLLZwNHgFKDC8OiSbqfLwtISrXaL61/5aqxupS8w6VWDBpMg3avvM1PBJQkWhtvKTMZ3AZVn2ICM6GnNuNlgMqrZoorQ6XToZwM6nQ7Xfs/LUNHCt2vMgbBR8hucArSUVKrKsRPHmZuZ5UUvuZZvfP1rjJ64VcZuL32iG4/VButDfQioKEmSsmlujsXlJQ4dPMBMp0uwUOhjjmjMF0Tia8FddseNNDg9RFOEKNu27yRNW3Q7bY4eOUTAE2xAsBwzBVpEkilCAqQ0kqvBetAQPHPzm9i560q8z+l2W6QtELdCLofJ5QhelvHSw+sypn2s8lttyNVgbWi7leKznL/+xte5/pWvZPuuK8g5QSb7Sef2c/dH/x15+jy5O4B3B/DuCEFXMHyNZA0arIbOdDfx4mtfyqtecyNZlvHia3bRmTtBOvMsN9/xz1jMv8L89sOE1pO42f38wtv+OV5OYNKvznJu0GASZMs1j5k5w8gRzXnl9+/kB36kzdYXLLD/2LeYnd9Cv7+NT+77LG+7+RY68gI++dH/TpLvRK2N2FSeTdXgPEC9F/LMM8gG+OD56lf+DNMj9PKn2bKthWeBwCF+6W0/xezmjMceei9In/Jo3QYN1oJ67/EhEMxYXDhBCIEnHv80Pk+wfCvk21hayNi29QpOHFvEdTcj1kJIkMZjp8E6UCMDAirCzOwcS0sZt73rPkL/Sh689zfZ1H4VV17xGh578D8y17qau+58AAkziLVYyx2sMa82AFCTHiYx6K6qY+v81Zw4uJ1H7/kDZOWVPPS+3+PIU9uwpWv4+Id/l4NPCRo2IdaO3hNjGF+NbHD5QtovfL+pa2NA4sC1Agsrh5iZadPrB/LlJbpbZ1g5fghUmdv0AnxvLpJrZK928cBTSLTR1C4PJCoJGKgKZoGQC91kG74f0ACd2U2EQaDVnUWAvO9QhEnEgnL7//oQGoJdDkhEFFFBpDj+sogEJwgqIKarhzqDScQqcSoEq2M9T9gG0ws1GT3LudyvGP0hpNh9Xdsse4otvt5tpxois9HZphtJdAi0Yp+ixAg3Barh6wxFyOn8bJxIjdSafjSGqgYbhotm7aaRVJceLrjkOlXdrMH04aKQXA2JLk1ccMnV4NJFQ64GG4aGXA02DA25GmwYGnI12DBcFLPFBiWk9nf6w7M35DofkLVpEh0B6jvYy8HEiJ4n00uwZO3l4WbZ+JygRqyhg0CIDprSAwwJbQSHiYElCB3EHNO+T0FlVbCRoZNyE3T3DFEc1GVjxDKBIJ6gGUGPkydP8o69P4l3h/B6FK/7CXoIyLgUOrdaPEZq4tXgzDBR1ohhMiDoIrkc4Mpr4Pa734TOPEUmT5K758j1Od5x278l0FvrKVOFZrZ4HmAoRiDIMsEd4M4P/gw/9fM3kCXfJJl/hnff+zPMbDnI7Xf+PDPzOUafade3oFHozwPGVA3p4/UArn0kSjHr4VrCW299ExKO859/83+AbsFCXvP6nU5U8bkabCQESBDrQmjz2KOP0Ol0SGSewYrw3HNPYnICdAHTRUxXMMliLI4p1k5UmiiB5wHxwBuxFLUZ3vKWvfQWujyx7/fYPPMKXvaS1/O5x3+HkHf52X/zZrLFlQud4XOCRufacBgQMELc9GIzJP5qHnvgD+gf/x7uf+/vc/jpqzjx/FXs+8h/xfkX0e5eVexq16keFmXmmgemOPsXKUZMEMSZYvHOZIWgx4AcrIvgiMp7DpIh1kLDFah1iQdQTG/zNAr9RqDYW1cSa/ghBXm2Fq8T4uAR94CaeMQUzGH4aVa3gIZcG4b6xt9R2ZOgFuPLVuEQpJBQ1SGq9V9NL8Uacm04BKm27jHy/2jwvHhf3JA8/Gya0ZDrvOBU415PN5nG0cwWG2wYGsm1gYjnKk36Zlyfmn79ahIacm0UDJByOLSRL4ZUspFv5bRDuFycKM/obMi1gVgdKqowR4xJqtH3kWDTRrFJh7425NoQFPIqDGeDVoQIWk22ujuzFLQqwlhN0dKcqhLCaFitRqE/TyhtqeMumTL2r37vxY7Xv/GHJ34uEjtGI7k2BJPZIWue6Tw9EmocZoaIVOd0BjMww6k25Dp/mF4CrYU//eP/V72ujlYUwRfDYzMsNjgrmAV+4PVvJBQSrCSWSHNKwXmArXGd7L6LG8NDYB0LJ04A4JIEHzxmgVa73ZDr/GAyccodQrn5uHVxSogFhWQSodVq8fyzzwDwspdfT+IScu85dORQo3NtLEY9HErlN0IQc5FOwRcKymp718WASTasYFYNhYsLUXIlLiHLM9IkJXGuIddGQWqSKh7nHGdQYPiQ0z94mB3Xvpa03eHAwSeZ6XRYWVkqfh0YJdj4MtH5RTBbRTCnSj8b0KbNq2+8iVarxRf+9I9pp63iDm2GxY2AjJFARXAqpEnK8uJxtmyexW3pcPjo39BfeYbULbGyfBDImUSg0bOULgzBfAjVBXFYnOnO4POcLM8QEW563Ru47vobmN+0ubFzbQRWO/tRbDEWfB6YnZ2jt3yYdus47ZkBh499lfnuNmCWYFsI1qnWGFc7HNbfnd8hs7RlmQVEHOocZoGbfvD1HD9+nC9+4U/p9/skLiFttWh3Og25NgqVU6CVw2PAOUd/sETijvOBD/4iu65e4kP33cNTf/s087OvYKXXihszin0ZZlKEWrh4sGnTFl50zTVs2bKFEydOsLC4wN/89TcJIaDqAMizjGwwaMh17lHIG9PCbRkgQ/AsLC7SaS+DPEN39jv08y9y9z2vo3/8Ot5/9+/hbHOc4lu529qBDBe37QIq+iqCN2Nh4QRf+8qX8CFw3ctfwaH9+wnFeZ0qUlnotbFznVtobSYYhzWHmIvnJ1kgLB+hlfawcJBu+xCbNx2g3XqSrZuWOXrwOzhbwVmOWkBtOCGIW9OseuqFglNldnaW3Hte94Yf4tD+/fRWloFh2bUwUUBjoT8pJu1Ir1dg/TOIw1j83qGkqJSn6sLOK7cRsqO0kwEtzegvncB5T76ywK6tsyRhGRdWSILhTIikyovzMIexIy4EvUQElzjMjBtv+gH+4s/+hOWlxVWeEHU0w+KakGLLhAcZUJ6oC4JJCoCRF/e1EWlh1cJ0JIKKQyTj6Ilnme0uIOEQW644zsrykywvP8W2OYflfforTzE39xyDpEO/f5jcd8FmcNIm0AbawAwwD7QvyHwxyzPIYTDI+PpXv0LiTk6dZlPsBKgIZoJKm36+yJZtRm9wkEG+GDex2iyCkLZyujObOXYIWm4LZg4sEKyPmKLWRuQEL3ppn7e/80cY5H/J1S8MWHaUQe9Zup0T+HwZCW3UZslWOsx1r6TXS3n/vfvo5Zt54KH/wOLyPO++8xPk/hqMrSNxv04Na9nJzs5+VulYa6CRXBMQLOo3wTKQPsu9IywuPUl7roj6EOYxlOPLxzHdgclWkDkwx1Ar8sCAYAus9A+y3PsbZuefJdgyaiukuoAfLKCyTJIcQ8xYGhyjteXFGAnve++P4+2F3HXHT+Ja12F+B8JVU7I4FNGQaw0EyxBdQdwC77tvL0EOMDOfoRogdAkhpd/PcGzmnjsfI9gymItKvAgqHgtLiCyxZfMcV+26iv7Kk7zn1scYnIBff+Kn0GSZbHCIMMhptzpsms1ROU4rbbFj+yzPPHecjz18H8eXtnPb7s8ibm39Zn2sRcmzo+p6Ugsacq0BQxREAqpw1217kZk+aasfN7JaG6GNz5V8JWVu9iVY7kZsnKE0HIQEP+iQ9TaT2NU8+uB9SLZA3j+M5gOc65A4CB5mZlKCJQxy8GGGTVuvIdgW+oMZct8hPQU952JCo3OtQrnInCNqqHoGfom4NAPgwFoIaSGpUlrJLCFE/UMsDoeCoeaAHt4fwIen2brlCHtv/9dc8+LNpG6JEI5joYcPOUIAyTGEQEqweRYX57j3g59jpbeLdvdlLC3PE5g7A53rwqAh1yqU5ArRfimGD77YZp8ASfHXFbEeBKcOM49JjooH86gIEhwicGLxIC9/2Qs4fPjr9FaeopUuEfwimI+kwjDLQXy0aokjhJQtW6/i/R/4BFm+k5vfcRebtryQQDI1jjkNuSbCavat6NUApao+GoYSGFmiid9Y1foqCa1kNlrdbQXnBsASvd4CSkoIQAhYkYYhqEtBPWgPwyGyFWQGVAkWbW/T0GjTNYifN8jYu9KBJlrLI2pOf1b+RtEi7LqoIBLvX+ot01vps2luM8t9odPu4tIrCF7jc8WKHT+CGYhLUedx7R553gfr4pI2uR+A+akgFjTkWhP1HS0iOvR2WNM8Xi5SR1U+rt4Y4NHEMTOv5CwgqTEofLt6PkMQVLV6tCEM6EEISM8Xi8FGnvXj0LuhpT63uKiWf0LwvObGmwjBF451FxrjTXkSH3gprvIeMZAQg+fKoLgyTAIeH00LzhMkI0iGl4wgg/gej6EE0+p500QsuIgk1/gaXn238ah78HnLEaP+U7aO1BrDSXa1mgXMQHXSAwvHekpdzgp70rRR6yIiF8TK/MqXvoiqI/e+9vmF9CWvSaFTvv8sk5v44cXhT386uBjGnhGplfscp8prbryp8Hw0QvATvRM2GuW29Kic62lflzvOj+Qa73RjPCklkxVOZi5JUFVarZTllRXSJD0v2Vwbq+PVnBLW3L5/eeAMu9eonWe920prcqB2wJvUbhif9ovS7/f5wp//CQCv/b7vP7MsnjMUBaiOITuNa0LYkVO7Lg0kscmVMizsyTH0hRy63Q7jBJh4gg2K71NMAiY9YpD/BLEEtTS6rlBUp+jQUFk44okIWZbT7c6cy/KeJs6FW/HpSrzxtKaXbIrkRG9nN8GFdjzATxXkh1GHW0M0XkafoEfx7ihBe+SyyK5rlJvv/Je05o7h9ThBBiBWkCgKz8r4WNiIvvf6V/La7/tB/urLX8JpEVr7vGLUZflMLpEz0dWkprPJWF6mC8WwOGmqO0qkcbEtUnutoBL3EqgzAivc9u5foT27iHdP89TBP0Jmv8O/+LnX4Ft/R3AHMV3GxFdpgVQEa3e6OJcQQuC6l9/ADa9+7QWq3rMd2s4k15NIPZ1QLMFKX+1qaaNOrElYv9AGmC5z850/DfpF3nnXj5O3/4Lujq9x2/t+jN3vexOSHiFYr3rO7Nw8S8uLzMzOcv0Nr0JU+MZffYVvfu2rfO0rXzpX5T2POFPJV//tdEOj8BqVXOsTK6JuGrBg+BDIvSf3HlHl0X33gzvEO9/7iwzsOQ4f/zbz23J6+fP0s4O4ZAASEFHMjBe+6MX8g3/447zqNTei6vi773y7Mp5OU/jGUVz2Cr1VyvW5XGAQAiID2m3HwomcmfZOsuU5Unbwucf/E4sLW+mqREVfhG9/8+u02m1eet3L+eqX/7LaXbPe7pIGFzdUhEKBjP7fUHk0rXFF1G1TokLiHK00pZ2mBO/ZvftX6S3M8IkHfofvuerHYPlafv3j/5PZ9Hu59V33keh8sTtGKuX1hle/lq9/9cs41QnS6tLq1ZcD1FtWBJioH5lucRNmoaRPuqh9H9e/PCHEK1FB/SZ+6zNfID94I0vPvpbPfeiP0cUbefCe3+XgsynKZoIJZjGQxQ++4Yf5yz//M4oNuzU3ltrsq/k3Xf+6137AIB4caWOHdk+KyzQuPaxmHhUVgvUwPQ448NuAlCDLiOQgcZu74CDE3chmCig+2CpPiNXSa/oWby9nJOYywBeKdaC+UL92U8rYHYUbnVmhpM/Ee1wOBKRmIEUMCz6aLEJeWbLTVPF+qF/JSfbENbj4kbj2YvVGCvfZSpk+zcYtKTeUeP34vngXzI/cJ0ZlRC3jOZ3NzHB6Z5WXJhJrP1+9GZdHZ9pUa1FS6q4rFsfl4Zf1ycQazz1dsp8l2S6EJ8alhES7B4qXp1+Ra1V+vVFHG7jwqLRyve70Gv98y6VGDp4dEmk9z1quuyfruSer/MkKef3M1NNrvkaSTBcSzwGGO1pGIRPdcE8dozrbuK3s9C3SYY18rgU9S4e90lPjXD3vdNMbx7Sln4guRCv4hDYelxOTTRMTflDcVt5e+oDHqCihimUVquFx+Pz1JhGnq0KdrZwbT2+j5eapVu9pPXPsR+v5L57r9BNCFr25QqFg1/chWMxdac80fJU5Kw2oJZGseG+rM1FNFIp7rLipPmsEkCAkJiO/qQol0aZWVY6cRWMLIz8u7MBFBMDxxeNCTxRAQi0vxbe18p9xdsrymxTpS5Wn8vADEyuO1WOkDerdc2IepPhchvW4Ot2yDmL6Mla5a+XBJjyrjkStDQE0OMQrqaZY7hkGijVQIWggqCeojw6AGlb1AitdTccaXsr/pCBYKV3LxweNBtUBpJqixEZWkcoJNGggkMc84DENiEKI2RumP5JoLZ3xyi0JVpIqJNhASLQ9lr4V5fXkZFX5kUDQkzduqJNYh++FIt8j5RdSaaEVyWP6se5zgsujM6YGgkAoGliKtEuSjAwg5WfRfj1CyPI3ZfrOu8gDU1LXJuS+IlRQH7e+qSeoFR09drqSvDo2qibtbA7LDRcc73zrLVhmQyaHABoLEdTzxOcejw+X2MjSgiAeM18UoOjl440LkcDFGqJ6AVMsAwmKkiBeueVtt2KZkYgj5L6KXhcKcj3+2U/HtCWSnMQwDVVH8MFHEolVZ0tbrdLrjS+mKGmM52AOyZVb3nYbllE1rpSi2BlePE989tMEzbGio2XkkWjFCoWWHYi6RCtimYoiProISNHttYyXWnTsW952GwwMNUEseoug4CWm98TnP110rpzgPD4JBA0IhtTUCSk7Uk28CoL6YbtIUCQTWq5DyAwXlJvfcguJJThcrPSCqp6AV8/jn/1UQbJY/6FIv5yklXkopZs88OkHjGBFJLzo9WwBnLpi13EgYAQJmHh8UaFec/7gD38fX/Umz1PPfhfTvGJ0yeq4N9SRSAsJDofD+ZS3/NxbSWmRuhQ/CCSSQhB8Fmilw00ZsbFi+jEfsbCf+Y3P4F2OJwYBGVgPU48VPQuJZdEgSEjQEEkspjif8I43v5OUlMSl5INAKgmEcmWs5gkqUXoFKaR2kf4nP/treOcx8bHczmMa80hZBwHUBLUkSoWQ4EKC+oS3/tLbSaVFqi3CwJOU6Vc8KVzPpah/ZwSJ677eZXzq85/Au6ySrEHL9IeySwqixrRLMisupLzrl29FMiURFyW1F1KX0lvp02q1sWBFZymHxFDUv5Frzqc+/2tF+4eiw5VcKKwC+/Y9Gru5xQp1roXP43JQXCss2Ihh5JWV3ZwnSwZFhULQnE/9+0/gNa8aoIRaLNjb33wzGhxqsXCzOkvoG+YDnc4MK8t9EpcSvNFut8mzvGrfag2z0Hu8egaaxd4jHq+eJz73yUKyBsqdz5HcUdy//c3vLNKPQ8CsmyX046kQ3U6XleUVEpeMuBnHRfRy/PSFXDa8ejIdjKT/+Gc/WTVweexw5GZM/+ZfuQX1CYm1SCxFvYNcILeR9KP0ieNdqKkndX0vaM7ArZBrhqkV5f80QQuVpSJXJJMGx9t/+R24ov7TkJLmbVxQBAg+4Io48oX4ZwQy5AFl/bseXnOCFOl//vGh2iSGPLbvUbNgReQUqSpVRGPPq0V7sSI00Kg0CVWi9QcPZU45BAyHgbJHaaXAVoJ1KC0YP+TEquG3cvcRK/SOeq8qFb9Rm1pMTwulXYv8aFWJdTKMmElsODyYFUOQyEgvtlKylO+Lnj5cjSiGYXNRv8HVlPcyPWrpT0aldBP94Ib1DUECXkMh2cqb65Irllertoiki+pMKNZyQ838tHrqWAZLKfW6YZmpCBYqpd9IqsqtP8GYEPTCKsU5ziggBj9LigawQmIM7x/9eZSMo0fxWo2I47Cx8lmUKEY1m1GLOowV+S6lSqnJyohZoz4bHpJ4vIzrva7CgROHeRWtqTW1WWVZtnoZyolDQVipflPP/5o1USNWqUNq1F0ZKulB6ukXZS7KW5JZKIfdmmQtD1LQ0bZZjZJW8VnOHOCq9JOCWGVJkiBRuS6yVxWgfH45Da3LEVuVVHnfONuHca7KqDGhIEkptssxPb4z6lyrz3yqJ5baqsShsiZHV03XVs1mjaEppP7sclq1ygwy+swqSpdJYRMa3ik21DFLyb3mk3AAAAXbSURBVFHO0qo7iy/HJ6xlGiXxxstQfSKlBjP0vavqkdoMsMx6rRxlvoZSLaoYsTbqo8do2nVIUd/xGZNGGRtpw6T8ouBjFVhMigeU08xyt4+ZVbVSHTZUy0T9PEGzAMWkoNxNbeX0baLkqFW0SFQoywO6a41pDHNdf716WBv9BBk29iRJIcKEDFGlYyM3SD271SdWf1ccUaJWO1ilRpbYneNsd1i+oXSxotdOMnxWtq56IctcWa0Gqu+GbBsREzLs2iNfTkiz1PdGbhypr9HOk0Q+ekSI27l8zWGwjC5TEqmWqqgQSl3NQhVjajQzCmYEo3JdFgwLAaliUq0emOrlKskabU5F2qukZNlzR2tm1bPGfjZaf6ulbi0TNboy7HTFz+qpl/eZgJdILBcEZzUDZAjViKCF3hjlsEdFoy6IROGiRRilSQSr8jPW5KVwt7KuynvHmaMTPhutkbGutDoTozkZeZeU7sxmhiuOOSsfKzYMgIbVRLwKeT6MoZW2WgwGA1qtVjRd+OJcvorpJSmi7cg5LWakoy1dFaTuVaFRguW5H+3ypwIZq5yT/u7UE5Cxv+MIGMGBC56Zfk7bFyaLmp41nAxEaiEegqEkBG3Rcx3i+onVTucYzeFaOa1UlVU3jH2w1npQfTg/Q1SBSESE3qAXz61Rx+7du2klKf2sz75H9rF7zx4efeRR9uyNf999x14+vu/j7N2zl3379vGe99wZjZjAvkf28e479uLU8dDDD3PXe+7ioYceJITAnr17ePjhj+FUV8XdqprWCvGqwk/8xE+QZRntdvssinkqWEdyncavIEp0JOBlwGxvmc/dcSebsj5BM9Baq5XKr0rUZywHMzJvHKPLy//Jmxhoa5UudPY41d55dkjqM4ayoXOfIyLc/+AD7N2zhyRNMYzde3dXPxSEPXv2xKxaVNI/vu+Rke8feOBBxCDPM+64404effTRmGjioj5Vx4TyisSQjiJR0k0LgoFoPKZFs2W2kbGVFcz6KFG/0uJI4iwfkA9yBKMlUcUYeCPpOBLzG0Cs84dKURr3larP8nq9Hvse2Qcw/LtvHyJSEcYskCYpt+++HQuxR959991keYYRK2337tvjvWE4iyxjcK2FMn6CS1yMkzUFl0scSaK0U0c3VQZLx8gXj5AvHWawsJ/sxH76x56jf+w5/OIh0nyZdr5C1/fp5H22poob9Ipj8aYXI1p4mqbVUJWkaRVtxqny7jvejVPHnr17EI0RaMphEMAHT5Znlc+PU8cjjzxCmqR0Wh0+9vDHCCGeG9hut4e2lXV2VIsoIXja7TaqjiRJcS65+K/E4ZyLFm9RpDuDzcxCdxbpzCGd2Xh1Z5HuHFnSIUu7LEubvuuy6B3amY9Sa2QmMV0YIVe/368Uc5/n3Hnne6rlCB88Dz/0cJRCwUjKyivg1LF3794Rh7Nbb3sXuc+rrf4PP/wxtIi/FaP1rV9rIXjy3FeRBcuZ6cV+Be/x3hM89CXlaGuWA+3NHG5t5WhnO8c62zne3c6x7nb2J5vZn2xhf/sKnu/u5ODsVexPd3JY5ulLQhmffhoh+/Z93OpD0yoFu5DM6jTGKs2y+N1JvFSDD8VwltDrrYycz6duyOlVulcNufe0WilZlpMkjuAv/oquGymVnLbPmMsy2j5D8agUBunSXqqKiWOQe8TiZMDh6GvKYrtLX9OxcEq1tE4i0U5thrxxSEZsGRNmbiWCD1XjlsRajxjls3yekybD4fa0MudcsaCqWLgQEZ1PH8MsKmIJXpWlNGUlsYmtHU2/Cq3aMxCCCJkVFu+1ErO1CXYx1FQCVKHTTzVD65HqssfQsgkoXpTgShKtVcOT7GsGpzAkno0H7EbjvIUKH4krf5mQc7hmd/I7V6P0UImvpxEXVRz6BuOYTlKVaIKlN9gwNJJrFdZaXzxdKXJ5DP3r4TIl13oEqpNotQvP6T3v8ibYpU+u9daj634zNk6g05VUdYKV0++zINclcPrG/wf6x+l7FFg/5wAAAABJRU5ErkJggg==;fontSize=30;" parent="2Xh3GLrlYR4H0rZl-e0W-79" vertex="1">
          <mxGeometry x="30" y="30" width="151" height="177" as="geometry" />
        </mxCell>
        <mxCell id="Si9AKmO1rTwMyrS4tQQ6-27" value="state" style="text;html=1;align=center;verticalAlign=middle;resizable=0;points=[];autosize=1;strokeColor=none;fillColor=none;fontSize=30;" parent="2Xh3GLrlYR4H0rZl-e0W-79" vertex="1">
          <mxGeometry x="60.5" y="207" width="90" height="50" as="geometry" />
        </mxCell>
        <mxCell id="2Xh3GLrlYR4H0rZl-e0W-81" value="" style="group;fontSize=30;" parent="1" vertex="1" connectable="0">
          <mxGeometry x="1485" y="1058" width="130" height="202" as="geometry" />
        </mxCell>
        <mxCell id="2Xh3GLrlYR4H0rZl-e0W-66" value="" style="shape=actor;whiteSpace=wrap;html=1;rounded=0;shadow=1;glass=0;fillStyle=auto;strokeColor=none;fontSize=30;fillColor=#B2C2B1;" parent="2Xh3GLrlYR4H0rZl-e0W-81" vertex="1">
          <mxGeometry x="15" width="100" height="140" as="geometry" />
        </mxCell>
        <mxCell id="2Xh3GLrlYR4H0rZl-e0W-67" value="teacher" style="text;html=1;align=center;verticalAlign=middle;resizable=0;points=[];autosize=1;strokeColor=none;fillColor=none;fontSize=30;" parent="2Xh3GLrlYR4H0rZl-e0W-81" vertex="1">
          <mxGeometry x="5" y="152" width="120" height="50" as="geometry" />
        </mxCell>
        <mxCell id="fMq1iWLXI49MHX_Gh6SI-6" style="edgeStyle=orthogonalEdgeStyle;rounded=0;orthogonalLoop=1;jettySize=auto;html=1;exitX=0.5;exitY=1;exitDx=0;exitDy=0;fontSize=30;" parent="2Xh3GLrlYR4H0rZl-e0W-81" source="2Xh3GLrlYR4H0rZl-e0W-66" target="2Xh3GLrlYR4H0rZl-e0W-66" edge="1">
          <mxGeometry relative="1" as="geometry" />
        </mxCell>
        <mxCell id="2Xh3GLrlYR4H0rZl-e0W-84" style="edgeStyle=orthogonalEdgeStyle;rounded=1;orthogonalLoop=1;jettySize=auto;html=1;exitX=1;exitY=0.5;exitDx=0;exitDy=0;entryX=0;entryY=0.75;entryDx=0;entryDy=0;fontSize=30;" parent="1" source="2Xh3GLrlYR4H0rZl-e0W-34" target="2Xh3GLrlYR4H0rZl-e0W-22" edge="1">
          <mxGeometry relative="1" as="geometry" />
        </mxCell>
        <mxCell id="fMq1iWLXI49MHX_Gh6SI-7" style="edgeStyle=orthogonalEdgeStyle;rounded=0;orthogonalLoop=1;jettySize=auto;html=1;exitX=0.5;exitY=1;exitDx=0;exitDy=0;fontSize=30;" parent="1" source="2Xh3GLrlYR4H0rZl-e0W-73" target="2Xh3GLrlYR4H0rZl-e0W-73" edge="1">
          <mxGeometry relative="1" as="geometry" />
        </mxCell>
        <mxCell id="fMq1iWLXI49MHX_Gh6SI-9" value="" style="group;fontSize=30;" parent="1" vertex="1" connectable="0">
          <mxGeometry x="819" y="1053" width="110" height="208.25" as="geometry" />
        </mxCell>
        <mxCell id="2Xh3GLrlYR4H0rZl-e0W-82" value="" style="group;fontSize=30;" parent="fMq1iWLXI49MHX_Gh6SI-9" vertex="1" connectable="0">
          <mxGeometry width="110.00000000000001" height="208.25000000000003" as="geometry" />
        </mxCell>
        <mxCell id="2Xh3GLrlYR4H0rZl-e0W-65" value="actor" style="text;html=1;align=center;verticalAlign=middle;resizable=0;points=[];autosize=1;strokeColor=none;fillColor=none;fontSize=30;rounded=0;shadow=0;glass=0;sketch=0;fillStyle=auto;" parent="2Xh3GLrlYR4H0rZl-e0W-82" vertex="1">
          <mxGeometry x="5.5" y="155.72793190416144" width="90" height="50" as="geometry" />
        </mxCell>
        <mxCell id="2Xh3GLrlYR4H0rZl-e0W-64" value="" style="shape=actor;whiteSpace=wrap;html=1;rounded=0;shadow=1;glass=0;fillStyle=auto;strokeColor=none;fontSize=30;fillColor=#d5e8d4;" parent="fMq1iWLXI49MHX_Gh6SI-9" vertex="1">
          <mxGeometry width="110.00000000000001" height="147.06179066834807" as="geometry" />
        </mxCell>
        <mxCell id="fMq1iWLXI49MHX_Gh6SI-14" style="edgeStyle=orthogonalEdgeStyle;rounded=0;orthogonalLoop=1;jettySize=auto;html=1;exitX=0;exitY=0.75;exitDx=0;exitDy=0;entryX=1;entryY=0.5;entryDx=0;entryDy=0;fontSize=30;" parent="1" source="2Xh3GLrlYR4H0rZl-e0W-66" target="2Xh3GLrlYR4H0rZl-e0W-73" edge="1">
          <mxGeometry relative="1" as="geometry" />
        </mxCell>
        <mxCell id="fMq1iWLXI49MHX_Gh6SI-67" style="edgeStyle=none;rounded=1;orthogonalLoop=1;jettySize=auto;html=1;exitX=0;exitY=0.5;exitDx=0;exitDy=0;entryX=1;entryY=0.5;entryDx=0;entryDy=0;fontSize=30;startArrow=none;startFill=0;" parent="1" source="fMq1iWLXI49MHX_Gh6SI-16" target="fMq1iWLXI49MHX_Gh6SI-64" edge="1">
          <mxGeometry relative="1" as="geometry" />
        </mxCell>
        <mxCell id="fMq1iWLXI49MHX_Gh6SI-16" value="reuse model" style="whiteSpace=wrap;html=1;rounded=1;fontSize=30;fillColor=#B5E8BC;strokeColor=none;shadow=1;" parent="1" vertex="1">
          <mxGeometry x="1410" y="1408" width="280" height="120" as="geometry" />
        </mxCell>
        <mxCell id="fMq1iWLXI49MHX_Gh6SI-19" style="edgeStyle=orthogonalEdgeStyle;rounded=0;orthogonalLoop=1;jettySize=auto;html=1;exitX=0;exitY=1;exitDx=0;exitDy=0;fontSize=30;" parent="1" source="2Xh3GLrlYR4H0rZl-e0W-32" target="Si9AKmO1rTwMyrS4tQQ6-44" edge="1">
          <mxGeometry relative="1" as="geometry" />
        </mxCell>
        <mxCell id="fMq1iWLXI49MHX_Gh6SI-27" style="edgeStyle=orthogonalEdgeStyle;rounded=1;orthogonalLoop=1;jettySize=auto;html=1;exitX=0.9;exitY=0.5;exitDx=0;exitDy=0;exitPerimeter=0;entryX=0.612;entryY=1;entryDx=0;entryDy=0;entryPerimeter=0;fontSize=30;" parent="1" source="2Xh3GLrlYR4H0rZl-e0W-64" target="Si9AKmO1rTwMyrS4tQQ6-25" edge="1">
          <mxGeometry relative="1" as="geometry" />
        </mxCell>
        <mxCell id="fMq1iWLXI49MHX_Gh6SI-28" value="a&lt;sub style=&quot;font-size: 30px;&quot;&gt;t&lt;/sub&gt;" style="text;html=1;align=center;verticalAlign=middle;resizable=0;points=[];autosize=1;strokeColor=none;fillColor=none;fontSize=30;" parent="1" vertex="1">
          <mxGeometry x="930" y="1008.5" width="50" height="60" as="geometry" />
        </mxCell>
        <mxCell id="fMq1iWLXI49MHX_Gh6SI-29" value="s&lt;sub style=&quot;font-size: 30px;&quot;&gt;t&lt;/sub&gt;" style="text;html=1;align=center;verticalAlign=middle;resizable=0;points=[];autosize=1;strokeColor=none;fillColor=none;fontSize=30;" parent="1" vertex="1">
          <mxGeometry x="767.5" y="1008.5" width="50" height="60" as="geometry" />
        </mxCell>
        <mxCell id="fMq1iWLXI49MHX_Gh6SI-35" value="&lt;b style=&quot;font-size: 30px;&quot;&gt;state-advice pair&lt;/b&gt;" style="text;html=1;align=center;verticalAlign=middle;resizable=0;points=[];autosize=1;strokeColor=none;fillColor=none;fontSize=30;" parent="1" vertex="1">
          <mxGeometry x="1120" y="715" width="260" height="50" as="geometry" />
        </mxCell>
        <mxCell id="fMq1iWLXI49MHX_Gh6SI-36" value="feature" style="text;html=1;align=center;verticalAlign=middle;resizable=0;points=[];autosize=1;strokeColor=none;fillColor=none;fontSize=30;" parent="1" vertex="1">
          <mxGeometry x="1858" y="870" width="120" height="50" as="geometry" />
        </mxCell>
        <mxCell id="2Xh3GLrlYR4H0rZl-e0W-53" value="" style="group;fillColor=none;fontSize=30;" parent="1" vertex="1" connectable="0">
          <mxGeometry x="1497" y="853" width="157" height="130" as="geometry" />
        </mxCell>
        <mxCell id="2Xh3GLrlYR4H0rZl-e0W-42" value="" style="shape=cube;whiteSpace=wrap;html=1;boundedLbl=1;backgroundOutline=1;darkOpacity=0.05;darkOpacity2=0.1;rounded=0;shadow=0;glass=0;sketch=0;direction=east;size=10;fillColor=#1786BD;strokeColor=none;fillStyle=auto;rotation=0;movable=1;resizable=1;rotatable=1;deletable=1;editable=1;connectable=1;fontSize=30;" parent="2Xh3GLrlYR4H0rZl-e0W-53" vertex="1">
          <mxGeometry width="130" height="130" as="geometry" />
        </mxCell>
        <mxCell id="2Xh3GLrlYR4H0rZl-e0W-43" value="" style="shape=cube;whiteSpace=wrap;html=1;boundedLbl=1;backgroundOutline=1;darkOpacity=0.05;darkOpacity2=0.1;rounded=0;shadow=0;glass=0;sketch=0;direction=south;size=10;fillColor=#3C92BD;strokeColor=none;fillStyle=auto;rotation=-90;movable=1;resizable=1;rotatable=1;deletable=1;editable=1;connectable=1;fontSize=30;" parent="2Xh3GLrlYR4H0rZl-e0W-53" vertex="1">
          <mxGeometry x="39" y="20" width="100" height="100" as="geometry" />
        </mxCell>
        <mxCell id="2Xh3GLrlYR4H0rZl-e0W-45" value="" style="shape=cube;whiteSpace=wrap;html=1;boundedLbl=1;backgroundOutline=1;darkOpacity=0.05;darkOpacity2=0.1;rounded=0;shadow=0;glass=0;sketch=0;direction=south;size=10;fillColor=#4F95F0;strokeColor=none;fillStyle=auto;rotation=-90;movable=1;resizable=1;rotatable=1;deletable=1;editable=1;connectable=1;fontSize=30;" parent="2Xh3GLrlYR4H0rZl-e0W-53" vertex="1">
          <mxGeometry x="67" y="35" width="80" height="80" as="geometry" />
        </mxCell>
        <mxCell id="2Xh3GLrlYR4H0rZl-e0W-52" value="" style="shape=cube;whiteSpace=wrap;html=1;boundedLbl=1;backgroundOutline=1;darkOpacity=0.05;darkOpacity2=0.1;rounded=0;shadow=0;glass=0;sketch=0;direction=south;size=10;fillColor=#A3A3A3;strokeColor=none;fillStyle=auto;rotation=-90;movable=1;resizable=1;rotatable=1;deletable=1;editable=1;connectable=1;fontSize=30;" parent="2Xh3GLrlYR4H0rZl-e0W-53" vertex="1">
          <mxGeometry x="97" y="50" width="60" height="60" as="geometry" />
        </mxCell>
        <mxCell id="fMq1iWLXI49MHX_Gh6SI-42" value="behavior cloning" style="text;html=1;align=center;verticalAlign=middle;resizable=0;points=[];autosize=1;strokeColor=none;fillColor=none;fontSize=30;" parent="1" vertex="1">
          <mxGeometry x="1241" y="1338" width="240" height="50" as="geometry" />
        </mxCell>
        <mxCell id="fMq1iWLXI49MHX_Gh6SI-45" value="&lt;b style=&quot;font-size: 30px;&quot;&gt;Feature-Driven Advice Selector&lt;/b&gt;" style="text;html=1;strokeColor=none;fillColor=none;align=center;verticalAlign=middle;whiteSpace=wrap;rounded=0;shadow=0;fontSize=30;" parent="1" vertex="1">
          <mxGeometry x="1600" y="730" width="596" height="20" as="geometry" />
        </mxCell>
        <mxCell id="fMq1iWLXI49MHX_Gh6SI-53" value="" style="edgeStyle=none;rounded=1;orthogonalLoop=1;jettySize=auto;html=1;fontSize=30;startArrow=classic;startFill=1;shape=flexArrow;" parent="1" source="fMq1iWLXI49MHX_Gh6SI-52" target="2Xh3GLrlYR4H0rZl-e0W-65" edge="1">
          <mxGeometry relative="1" as="geometry" />
        </mxCell>
        <mxCell id="fMq1iWLXI49MHX_Gh6SI-52" value="replay&lt;br style=&quot;font-size: 30px;&quot;&gt;buffer" style="shape=cylinder3;whiteSpace=wrap;html=1;boundedLbl=1;backgroundOutline=1;size=15;rounded=1;shadow=1;fontSize=30;fillColor=#ffe6cc;strokeColor=none;" parent="1" vertex="1">
          <mxGeometry x="800.5" y="1350" width="145.5" height="208" as="geometry" />
        </mxCell>
        <mxCell id="fMq1iWLXI49MHX_Gh6SI-55" value="Feature-Driven Intrinsic Rewards Generator" style="text;html=1;strokeColor=none;fillColor=none;align=center;verticalAlign=middle;whiteSpace=wrap;rounded=0;shadow=1;fontSize=30;fontStyle=1" parent="1" vertex="1">
          <mxGeometry x="1224.5" y="1558" width="836" height="30" as="geometry" />
        </mxCell>
        <mxCell id="fMq1iWLXI49MHX_Gh6SI-58" value="RL Interaction" style="text;html=1;strokeColor=none;fillColor=none;align=center;verticalAlign=middle;whiteSpace=wrap;rounded=0;shadow=0;fontSize=30;fontStyle=1" parent="1" vertex="1">
          <mxGeometry x="780" y="730" width="206" height="30" as="geometry" />
        </mxCell>
        <mxCell id="fMq1iWLXI49MHX_Gh6SI-65" style="edgeStyle=none;rounded=1;orthogonalLoop=1;jettySize=auto;html=1;entryX=0.5;entryY=1;entryDx=0;entryDy=0;fontSize=30;startArrow=none;startFill=0;" parent="1" source="fMq1iWLXI49MHX_Gh6SI-64" target="fMq1iWLXI49MHX_Gh6SI-64" edge="1">
          <mxGeometry relative="1" as="geometry" />
        </mxCell>
        <mxCell id="fMq1iWLXI49MHX_Gh6SI-75" style="edgeStyle=orthogonalEdgeStyle;rounded=1;orthogonalLoop=1;jettySize=auto;html=1;exitX=0;exitY=0.5;exitDx=0;exitDy=0;entryX=0.997;entryY=0.851;entryDx=0;entryDy=0;entryPerimeter=0;fontSize=11;startArrow=none;startFill=0;endArrow=classic;endFill=1;shape=flexArrow;" parent="1" source="fMq1iWLXI49MHX_Gh6SI-64" target="fMq1iWLXI49MHX_Gh6SI-56" edge="1">
          <mxGeometry relative="1" as="geometry" />
        </mxCell>
        <mxCell id="fMq1iWLXI49MHX_Gh6SI-64" value="advice&amp;nbsp; &amp;nbsp; reward" style="rounded=1;whiteSpace=wrap;html=1;fontSize=30;fillColor=#fad7ac;strokeColor=none;shadow=1;" parent="1" vertex="1">
          <mxGeometry x="1111.5" y="1443" width="247" height="50" as="geometry" />
        </mxCell>
        <mxCell id="fMq1iWLXI49MHX_Gh6SI-66" value="" style="endArrow=none;html=1;rounded=1;fontSize=30;entryX=0.5;entryY=0;entryDx=0;entryDy=0;exitX=0.5;exitY=1;exitDx=0;exitDy=0;" parent="1" source="fMq1iWLXI49MHX_Gh6SI-64" target="fMq1iWLXI49MHX_Gh6SI-64" edge="1">
          <mxGeometry width="50" height="50" relative="1" as="geometry">
            <mxPoint x="1263" y="1502.17" as="sourcePoint" />
            <mxPoint x="1313" y="1452.17" as="targetPoint" />
          </mxGeometry>
        </mxCell>
        <mxCell id="fMq1iWLXI49MHX_Gh6SI-73" style="edgeStyle=orthogonalEdgeStyle;rounded=1;orthogonalLoop=1;jettySize=auto;html=1;exitX=1;exitY=0.5;exitDx=0;exitDy=0;fontSize=30;startArrow=none;startFill=0;endArrow=classic;endFill=1;" parent="1" source="Si9AKmO1rTwMyrS4tQQ6-24" target="2Xh3GLrlYR4H0rZl-e0W-42" edge="1">
          <mxGeometry relative="1" as="geometry" />
        </mxCell>
        <mxCell id="engydc4x_XcqHQpthq46-4" style="edgeStyle=orthogonalEdgeStyle;rounded=1;orthogonalLoop=1;jettySize=auto;html=1;exitX=1;exitY=0.75;exitDx=0;exitDy=0;dashed=1;strokeWidth=2;fillColor=#60a917;strokeColor=#2D7600;" edge="1" parent="1" source="Si9AKmO1rTwMyrS4tQQ6-24" target="fMq1iWLXI49MHX_Gh6SI-16">
          <mxGeometry relative="1" as="geometry">
            <Array as="points">
              <mxPoint x="1420" y="963" />
              <mxPoint x="1420" y="1300" />
              <mxPoint x="1550" y="1300" />
            </Array>
          </mxGeometry>
        </mxCell>
        <mxCell id="engydc4x_XcqHQpthq46-5" value="s&lt;sub&gt;t&lt;/sub&gt;" style="text;html=1;align=center;verticalAlign=middle;resizable=0;points=[];autosize=1;strokeColor=none;fillColor=none;fontSize=30;" vertex="1" parent="1">
          <mxGeometry x="1550.5" y="1328" width="50" height="60" as="geometry" />
        </mxCell>
      </root>
    </mxGraphModel>
  </diagram>
</mxfile>
